<svg xmlns="http://www.w3.org/2000/svg" width="16" height="15" viewBox="0 0 16 15" fill="none">
  <path d="M8 13.6C9.48521 13.6 10.9096 13.01 11.9598 11.9598C13.01 10.9096 13.6 9.48521 13.6 8C13.6 6.51479 13.01 5.0904 11.9598 4.0402C10.9096 2.99 9.48521 2.4 8 2.4C6.51479 2.4 5.09041 2.99 4.0402 4.0402C2.99 5.0904 2.4 6.51479 2.4 8C2.4 9.48521 2.99 10.9096 4.0402 11.9598C5.09041 13.01 6.51479 13.6 8 13.6Z" fill="white"/>
  <path d="M3.1 1L1 3.1L3.1 1Z" fill="white"/>
  <path d="M15 3.1L12.9 1L15 3.1Z" fill="white"/>
  <path d="M3.8 12.2L2.4 13.6L3.8 12.2Z" fill="white"/>
  <path d="M12.2 12.2L13.6 13.6L12.2 12.2Z" fill="white"/>
  <path d="M8 5.2V8L9.4 9.4" fill="white"/>
  <path d="M3.1 1L1 3.1M15 3.1L12.9 1M3.8 12.2L2.4 13.6M12.2 12.2L13.6 13.6M8 5.2V8L9.4 9.4M8 13.6C9.48521 13.6 10.9096 13.01 11.9598 11.9598C13.01 10.9096 13.6 9.48521 13.6 8C13.6 6.51479 13.01 5.09041 11.9598 4.0402C10.9096 2.99 9.48521 2.4 8 2.4C6.51479 2.4 5.09041 2.99 4.0402 4.0402C2.99 5.09041 2.4 6.51479 2.4 8C2.4 9.48521 2.99 10.9096 4.0402 11.9598C5.09041 13.01 6.51479 13.6 8 13.6Z" stroke="#929292" stroke-width="1.33826" stroke-linecap="round" stroke-linejoin="round"/>
</svg>