<svg xmlns="http://www.w3.org/2000/svg" width="79" height="79" viewBox="0 0 79 79" fill="none">
  <circle cx="39.5" cy="39.5" r="28" fill="#ABEFEB" stroke="black"/>
  <mask id="mask0_1150_8575" style="mask-type:alpha" maskUnits="userSpaceOnUse" x="11" y="10" width="57" height="57">
    <circle cx="39.5004" cy="38.3715" r="27.7143" fill="#EFABAB" stroke="black"/>
  </mask>
  <g mask="url(#mask0_1150_8575)">
    <path d="M21.0432 40.2387C21.0432 37.0632 20.9665 35.4419 20.7746 35.4419C20.5827 35.4419 20.4868 36.0559 20.2853 37.303C19.2984 37.4429 18.2924 37.2719 17.4072 36.8138C16.9148 36.6121 16.463 36.3228 16.0737 35.9599C15.5652 35.4707 15.2774 34.9526 15.1143 35.0006C14.9512 35.0485 14.9992 35.1253 15.0376 35.5378C15.8244 37.118 16.9673 38.494 18.3762 39.5576C18.9401 39.983 19.5442 40.3525 20.1798 40.6608L21.0432 40.2387Z" fill="#FFA4A4"/>
    <path d="M44.7494 56.1355H34.6377V73.7399H44.7494V56.1355Z" fill="#65EFEF"/>
    <path d="M61.5 38.656C61.9724 38.3576 62.4662 38.0947 62.9774 37.8693C63.8025 37.4951 64.8962 37.121 64.9441 37.2553C64.9921 37.3896 64.7619 37.5335 63.5722 38.2147C64.5316 37.5815 65.0592 37.3033 65.1264 37.3896C65.1936 37.476 64.474 38.2818 62.9007 39.7209C63.5914 39.1932 64.1191 38.7615 64.474 38.4929C64.829 38.2243 65.2032 37.9173 65.2895 38.0036C65.3759 38.09 65.2895 38.1187 65.2895 38.1571C64.7417 38.9734 64.0975 39.7207 63.3708 40.3829C64.5732 39.5642 65.2128 39.1996 65.2895 39.2892C65.3567 39.3755 64.7523 39.9895 63.4859 41.1312L60.6366 42.5414L59.2935 41.1504L61.5 38.656Z" fill="#FFA4A4"/>
    <path d="M61.0109 38.7521C61.3467 38.6178 61.5482 38.5986 61.6057 38.6754C61.6633 38.7521 61.5098 39.1071 61.0589 39.6347L59.6198 41.0738L59.332 41.1505C59.4213 40.3272 59.8315 39.5723 60.4737 39.0495C60.6389 38.9271 60.8195 38.8271 61.0109 38.7521Z" fill="#FFA4A4"/>
    <path d="M63.5153 38.3011C63.4939 38.3034 63.4724 38.2991 63.4535 38.2888C63.4347 38.2785 63.4194 38.2627 63.4097 38.2436C63.3902 38.2209 63.3794 38.1919 63.3794 38.162C63.3794 38.1321 63.3902 38.1031 63.4097 38.0804L64.3691 37.5336C64.3829 37.5202 64.3996 37.5102 64.4179 37.5044C64.4362 37.4986 64.4556 37.497 64.4746 37.4999C64.4936 37.5028 64.5117 37.5101 64.5274 37.5211C64.5432 37.5321 64.5561 37.5466 64.5653 37.5635C64.5745 37.5804 64.5797 37.5991 64.5805 37.6183C64.5812 37.6375 64.5775 37.6567 64.5697 37.6742C64.5618 37.6917 64.55 37.7072 64.5352 37.7194C64.5204 37.7317 64.5029 37.7403 64.4842 37.7447L63.5249 38.2915L63.5153 38.3011Z" fill="#342939"/>
    <path d="M62.2573 39.3373C62.2332 39.3367 62.2098 39.329 62.19 39.3152C62.1701 39.3015 62.1547 39.2822 62.1455 39.2599C62.1364 39.2375 62.1339 39.213 62.1384 39.1893C62.143 39.1656 62.1543 39.1437 62.171 39.1263L63.0152 38.282C63.0385 38.2598 63.0694 38.2473 63.1016 38.2473C63.1338 38.2473 63.1647 38.2598 63.1879 38.282C63.2058 38.3055 63.2155 38.3341 63.2155 38.3636C63.2155 38.3931 63.2058 38.4217 63.1879 38.4451L62.3341 39.299C62.3144 39.3212 62.2869 39.3349 62.2573 39.3373Z" fill="#342939"/>
    <path d="M60.0891 40.239C60.0644 40.2486 60.0371 40.2486 60.0124 40.239C59.9921 40.2148 59.981 40.1843 59.981 40.1527C59.981 40.1211 59.9921 40.0905 60.0124 40.0663L61.3363 38.6848C61.3595 38.6626 61.3905 38.6501 61.4227 38.6501C61.4548 38.6501 61.4858 38.6626 61.509 38.6848C61.5211 38.6947 61.5307 38.7072 61.5374 38.7213C61.5441 38.7354 61.5475 38.7508 61.5475 38.7664C61.5475 38.782 61.5441 38.7974 61.5374 38.8115C61.5307 38.8256 61.5211 38.838 61.509 38.8479L60.1851 40.2294C60.1713 40.2393 60.1552 40.2455 60.1384 40.2472C60.1215 40.2488 60.1045 40.246 60.0891 40.239Z" fill="#342939"/>
    <path d="M41.7079 70.6798C41.775 72.3683 42.8304 73.9704 43.6266 73.9608C45.2288 73.9608 46.5047 66.5161 47.3682 59.4744C47.4499 58.4512 47.4241 57.4222 47.2914 56.4044C47.0397 54.4699 46.4141 52.6028 45.4494 50.9072L41.0747 55.704C41.1802 60.4337 41.7079 70.5551 41.7079 70.6798Z" fill="#FFA4A4"/>
    <path d="M45.7661 50.6769C46.1115 54.428 43.8473 57.3925 41.6888 57.7187C39.204 58.0736 35.8078 55.1572 35.9325 50.6769C35.9997 48.998 36.0669 47.3287 36.1244 45.6498C35.9997 45.4004 35.8654 45.1414 35.7407 44.8727L35.3953 44.1436C35.1555 43.5776 34.1002 40.4596 32.7954 36.1425C33.6205 35.7779 34.4839 35.3654 35.3857 34.8953C36.5274 34.3005 37.5635 33.6865 38.5037 33.0821C39.156 33.0821 39.8276 33.0821 40.5087 33.1301C41.1899 33.178 42.1109 33.2068 42.888 33.2548C43.9808 33.8828 45.1193 34.428 46.2937 34.8857C47.1075 35.2054 47.9368 35.4839 48.7785 35.7204C47.2051 40.2774 46.572 42.1481 46.3417 42.8293C46.3417 42.9348 46.2074 43.2706 46.0443 43.7119C45.8812 44.1532 45.6318 44.8056 45.4111 45.3044C45.5262 47.0985 45.651 48.8829 45.7661 50.6769Z" fill="#FFA4A4"/>
    <path d="M28.9201 47.8564L26.3394 46.4845C27.2412 44.5082 28.0758 42.8868 28.7186 41.6876C31.5199 36.4974 32.8247 35.4805 34.0239 35.4133C34.2089 35.3947 34.3953 35.3947 34.5803 35.4133C34.1582 37.5336 33.7457 39.6442 33.3236 41.7644L28.9201 47.8564Z" fill="#FFA4A4"/>
    <path d="M20.4478 38.1762L18.9224 39.4329C19.5172 40.2676 20.1024 41.131 20.6876 42.0232C21.7717 43.6638 22.779 45.2851 23.7096 46.8201C23.9813 47.0565 24.2848 47.2535 24.6114 47.4053C24.9183 47.5442 25.2403 47.6472 25.5708 47.7123L27.7677 45.7936C27.3364 45.1437 26.8518 44.5308 26.3191 43.9612C24.4004 41.8793 22.7982 41.486 21.2344 39.3562C20.9488 38.979 20.6861 38.5849 20.4478 38.1762Z" fill="#FFA4A4"/>
    <path d="M52.4436 48.4897L55.1682 47.4344C54.5063 45.3622 53.8731 43.6545 53.3742 42.3977C51.206 36.9101 50.0356 35.7493 48.846 35.5382C48.6609 35.5215 48.4747 35.5215 48.2896 35.5382C48.4526 37.6968 48.6253 39.8458 48.7884 41.9948L52.4436 48.4897Z" fill="#FFA4A4"/>
    <path d="M60.071 39.8841L61.6731 41.0353C61.1455 41.9084 60.6178 42.8102 60.0997 43.7408C59.1404 45.4484 58.2386 47.1369 57.4135 48.7774C57.1546 49.0253 56.8643 49.2382 56.5501 49.4106C56.248 49.5768 55.9255 49.7025 55.5907 49.7848L53.269 48.0195C53.6693 47.3526 54.1115 46.7117 54.593 46.1008C56.291 43.9422 57.6054 43.2707 59.3418 40.901C59.6776 40.4597 59.9271 40.1047 60.071 39.8841Z" fill="#FFA4A4"/>
    <path d="M40.019 35.7778C40.0735 35.9261 40.1815 36.0487 40.3217 36.1214C40.4619 36.1942 40.6243 36.212 40.777 36.1711C40.8452 36.1331 40.9044 36.0809 40.9508 36.018C40.9971 35.9551 41.0294 35.883 41.0456 35.8066L40.019 35.7778Z" fill="#E57777"/>
    <path d="M35.6934 35.7778C36.1387 36.0903 36.658 36.2813 37.1997 36.3318C37.7415 36.3822 38.2871 36.2905 38.7825 36.0656L35.6934 35.7778Z" fill="#E57777"/>
    <path d="M42.3027 36.104C42.706 36.2753 43.1406 36.3603 43.5787 36.3534C44.2312 36.3365 44.8633 36.1224 45.3919 35.7394L42.3027 36.104Z" fill="#E57777"/>
    <path d="M38.5713 29.7819V31.6047V34.4828H42.8693C42.6102 32.4586 42.3416 30.4247 42.0826 28.4005C41.4129 28.7771 40.7134 29.0979 39.9912 29.3598C39.5253 29.5246 39.0514 29.6655 38.5713 29.7819Z" fill="#FFA4A4"/>
    <path d="M38.5713 29.7818V31.6046C39.3772 31.6046 40.0295 30.5877 40.0295 29.3789C39.5307 29.494 39.0318 29.6379 38.5713 29.7818Z" fill="#E57777"/>
    <path d="M38.9546 30.2038C40.3282 29.9422 41.5784 29.238 42.5138 28.1987C42.9115 27.7916 43.2061 27.2954 43.373 26.7513C43.5399 26.2073 43.5742 25.6312 43.4732 25.0711C43.353 24.5794 43.1232 24.1211 42.8009 23.7307C42.4786 23.3403 42.0721 23.0278 41.612 22.8166C39.9715 22.0491 37.9664 22.8166 37.4676 23.7184C37.3955 23.855 37.3407 24 37.3044 24.1502C37.0646 25.2438 36.9495 25.7331 36.9399 25.7523C36.9321 25.7806 36.9321 25.8104 36.9399 25.8386C36.9332 25.8605 36.9332 25.8839 36.9399 25.9058L37.055 26.3375C37.0446 26.8283 37.0094 27.3182 36.9495 27.8054C36.9167 27.9474 36.9167 28.095 36.9495 28.2371C36.954 28.2477 36.9563 28.2591 36.9563 28.2706C36.9563 28.2822 36.954 28.2936 36.9495 28.3042C36.9495 28.3042 36.8727 28.3042 36.844 28.3714C36.8152 28.4385 36.844 28.5153 36.9207 28.5537C36.9975 28.592 37.1606 28.5537 37.3428 28.5537C37.5251 28.5537 38.1007 28.3138 38.1391 28.3906C38.1775 28.4673 38.0048 28.6496 37.765 28.7551C37.5251 28.8606 37.055 28.8319 37.0454 28.899C37.0556 28.9356 37.0755 28.9687 37.103 28.995C37.103 28.995 37.1701 28.995 37.1893 29.0525C37.2085 29.1101 37.055 29.7241 37.1318 30.0119C37.2085 30.2997 38.1199 30.3477 38.9546 30.2038Z" fill="#FFA4A4"/>
    <path d="M36.3159 27.4985C36.3159 27.652 36.479 27.7672 36.5366 27.8151C36.6552 27.8966 36.7957 27.9401 36.9395 27.9399C37.0095 27.8915 37.0604 27.8203 37.0834 27.7384C37.0834 27.652 37.0834 27.6041 37.0834 27.4985C37.07 27.3989 37.0902 27.2976 37.141 27.2107L37.093 26.2514L36.8436 26.7023C36.7703 26.8609 36.687 27.0147 36.5941 27.1628C36.4023 27.3546 36.3159 27.3834 36.3159 27.4985Z" fill="#FFA4A4"/>
    <path d="M38.6857 26.4722C38.6687 26.4711 38.6521 26.4662 38.6372 26.4579C38.6222 26.4496 38.6093 26.4381 38.5994 26.4242C38.4743 26.2659 38.2938 26.1611 38.0943 26.1308C37.8949 26.1006 37.6914 26.1471 37.5249 26.2611C37.5017 26.2834 37.4708 26.2958 37.4386 26.2958C37.4064 26.2958 37.3754 26.2834 37.3522 26.2611C37.3415 26.2504 37.333 26.2377 37.3272 26.2237C37.3213 26.2097 37.3184 26.1947 37.3184 26.1795C37.3184 26.1644 37.3213 26.1494 37.3272 26.1354C37.333 26.1214 37.3415 26.1087 37.3522 26.098C37.4803 26.0119 37.6259 25.9551 37.7785 25.9319C37.9311 25.9087 38.0869 25.9196 38.2348 25.9637C38.4371 26.0262 38.6149 26.1503 38.7433 26.3187C38.7554 26.3286 38.7651 26.341 38.7717 26.3551C38.7784 26.3692 38.7819 26.3846 38.7819 26.4002C38.7819 26.4158 38.7784 26.4312 38.7717 26.4453C38.7651 26.4594 38.7554 26.4718 38.7433 26.4817C38.7236 26.484 38.7036 26.4807 38.6857 26.4722Z" fill="#342939"/>
    <path d="M37.7556 26.6448C37.8828 26.6448 37.9859 26.4987 37.9859 26.3186C37.9859 26.1385 37.8828 25.9924 37.7556 25.9924C37.6285 25.9924 37.5254 26.1385 37.5254 26.3186C37.5254 26.4987 37.6285 26.6448 37.7556 26.6448Z" fill="#342939"/>
    <path d="M38.9077 25.6949C38.823 25.6485 38.7327 25.613 38.6391 25.5894C38.1836 25.5059 37.719 25.4833 37.2576 25.5222C37.2221 25.4065 37.2221 25.2829 37.2576 25.1672C37.2681 25.1041 37.2875 25.0427 37.3152 24.985L38.3321 25.0425C38.5382 25.056 38.74 25.1081 38.9269 25.196C39.0054 25.2308 39.0769 25.2796 39.138 25.3399C39.1739 25.3831 39.1942 25.4372 39.1955 25.4934C39.1955 25.5606 39.1955 25.6661 39.1955 25.7141C39.1762 25.7333 39.153 25.7483 39.1274 25.7579C39.1018 25.7675 39.0745 25.7715 39.0473 25.7697C39.02 25.7679 38.9935 25.7602 38.9694 25.7473C38.9454 25.7344 38.9243 25.7166 38.9077 25.6949Z" fill="#342939"/>
    <path d="M33.1891 71.1499C33.5345 72.9535 33.8415 74.5653 34.5898 74.6708C36.1728 74.8915 38.4848 67.7058 40.346 60.8559C40.5721 59.8577 40.6911 58.8382 40.701 57.8147C40.7292 55.865 40.3739 53.9287 39.6553 52.116L35.9713 51.7131C35.0119 56.0015 34.1293 60.0692 33.3138 64.0986C32.8018 66.4171 32.7594 68.8147 33.1891 71.1499Z" fill="#FFA4A4"/>
    <path d="M34.6759 54.1402C34.0363 58.9371 33.368 63.7339 32.6708 68.5308C32.5365 69.5765 32.4022 70.6222 32.2775 71.6775C31.5803 77.0436 30.8832 82.4096 30.186 87.7757L33.8796 88.2842L37.6116 77.1939C37.6883 75.3711 37.7746 73.5387 37.8514 71.7063C38.8363 67.6513 39.8277 63.5932 40.8254 59.5319C40.9789 58.4286 41.1229 57.3349 41.2764 56.2317L35.7696 51.2046L34.6759 54.1402Z" fill="#342939"/>
    <path d="M40.269 58.3421C40.7295 68.0765 41.1932 77.8173 41.6601 87.5644H44.9987C45.5935 84.2066 46.1915 80.8489 46.7927 77.4911L46.4186 70.2862C46.8471 65.1696 47.282 60.0849 47.7233 55.0322L45.8046 50.6479L35.7312 51.1756C35.5873 51.9239 35.4434 52.6722 35.3091 53.4205L40.269 58.3421Z" fill="#342939"/>
    <path d="M47.7043 55.2724C46.338 55.5795 44.9538 55.8005 43.5598 55.9344C40.4592 56.2143 37.3343 56.0431 34.2828 55.4259C33.6816 49.0301 33.074 42.6056 32.46 36.1522L38.5807 32.8328C38.7861 33.2544 39.1115 33.6059 39.516 33.8432C39.9206 34.0805 40.3862 34.1929 40.8544 34.1663C41.2346 34.119 41.5987 33.9844 41.9182 33.773C42.2378 33.5617 42.5041 33.2793 42.6964 32.9479L48.9803 35.6629C48.5518 42.1994 48.1265 48.7359 47.7043 55.2724Z" fill="#FF5E33"/>
    <path d="M49.3344 74.431C48.2214 74.9325 47.0033 75.1564 45.7847 75.0833C45.032 75.038 44.2909 74.8762 43.5878 74.6036L42.6284 32.7464L49.1329 35.5285C49.4207 36.1617 49.7182 36.8045 50.0156 37.4473L49.3344 74.431Z" fill="white"/>
    <path d="M36.5848 74.575C34.382 74.9121 32.1287 74.5778 30.1187 73.6156C30.6751 61.0991 31.2347 48.5793 31.7975 36.0563L38.5803 32.6122C37.9343 46.619 37.2691 60.6066 36.5848 74.575Z" fill="white"/>
    <path d="M40.2211 22.0013C40.6327 21.9891 41.0424 22.061 41.4251 22.2128C41.8079 22.3646 42.1556 22.593 42.4469 22.884C43.1814 23.5589 43.6194 24.4969 43.6653 25.4934C43.6742 26.2373 43.5099 26.973 43.1856 27.6424C42.9361 28.2948 42.7059 28.8608 42.2934 28.9184C42.1493 28.914 42.0081 28.8773 41.8802 28.8108C41.7523 28.7444 41.641 28.65 41.5546 28.5346C41.7621 27.9893 41.7989 27.3937 41.6602 26.827C41.4971 26.2322 41.0941 25.5606 40.8159 25.6182C40.5377 25.6757 40.5089 26.7118 40.3267 26.7118C40.1444 26.7118 40.3267 25.7525 39.7127 25.0905C39.0987 24.4285 38.6094 24.8219 37.4294 24.1983C37.1511 24.0544 36.0575 23.4884 36.1342 22.9895C36.211 22.4906 37.5349 22.1165 38.053 22.2987C38.2415 22.3608 38.44 22.3868 38.6382 22.3755C38.772 22.3606 38.9038 22.3317 39.0315 22.2892C39.4223 22.1709 39.8195 22.0748 40.2211 22.0013Z" fill="#342939"/>
    <path d="M48.2882 42.3496L53.2578 50.5906C53.5033 50.7437 53.7775 50.8449 54.0636 50.888C54.3645 50.9477 54.6742 50.9477 54.975 50.888C55.5656 50.732 56.1197 50.4614 56.606 50.0917C57.4694 49.4202 59.2634 46.7627 61.1246 42.8773L58.9948 41.3231L55.4355 44.6905L51.387 36.6701C51.1376 36.4879 50.8689 36.296 50.5715 36.1137C49.8022 35.6524 48.9724 35.3004 48.106 35.068C48.1635 37.4664 48.2307 39.9128 48.2882 42.3496Z" fill="white"/>
    <path d="M70.7764 39.1165L67.2651 39.3947C67.1308 39.3947 66.9773 39.3947 66.9389 39.3947C66.9005 39.3947 67.2555 39.7785 67.2075 39.9991C67.1596 40.2198 67.054 40.2294 66.6223 40.3061L66.3633 38.963L70.6133 38.1955L70.7764 39.1165Z" fill="#4A485D"/>
    <path d="M67.4868 38.9054C67.446 38.5401 67.5171 38.171 67.6908 37.8471C67.8645 37.5232 68.1325 37.2597 68.4594 37.0915C68.7862 36.9234 69.1565 36.8586 69.521 36.9056C69.8855 36.9527 70.2272 37.1095 70.5006 37.3551C70.774 37.6007 70.9663 37.9237 71.052 38.2811C71.1377 38.6385 71.1128 39.0136 70.9805 39.3565C70.8482 39.6994 70.6148 39.9941 70.3113 40.2013C70.0078 40.4086 69.6484 40.5187 69.2808 40.5171C68.8294 40.5407 68.387 40.3842 68.0507 40.0821C67.7144 39.7799 67.5116 39.3568 67.4868 38.9054ZM67.9761 38.9054C67.9123 39.1769 67.9347 39.4616 68.0401 39.7199C68.1456 39.9782 68.3288 40.1973 68.5644 40.3467C68.8 40.4961 69.0762 40.5684 69.3548 40.5536C69.6334 40.5388 69.9005 40.4377 70.1189 40.2642C70.3374 40.0907 70.4964 39.8535 70.5739 39.5855C70.6514 39.3175 70.6435 39.0321 70.5514 38.7687C70.4592 38.5054 70.2874 38.2773 70.0597 38.1161C69.832 37.955 69.5598 37.8687 69.2808 37.8692C68.9715 37.8392 68.6625 37.9304 68.4191 38.1237C68.1757 38.317 68.0169 38.5973 67.9761 38.9054Z" fill="#FF5E33"/>
    <path d="M62.9765 38.9055C62.9377 38.5427 63.0099 38.1767 63.1834 37.8557C63.357 37.5348 63.6238 37.274 63.9487 37.1079C64.2736 36.9417 64.6412 36.878 65.003 36.9252C65.3648 36.9723 65.7039 37.1281 65.9753 37.372C66.2467 37.6159 66.4378 37.9363 66.5233 38.291C66.6088 38.6457 66.5847 39.0181 66.4542 39.3588C66.3237 39.6995 66.0929 39.9927 65.7923 40.1995C65.4917 40.4064 65.1354 40.5172 64.7706 40.5173C64.3191 40.5408 63.8767 40.3844 63.5404 40.0822C63.2041 39.7801 63.0013 39.357 62.9765 38.9055ZM63.4658 38.9055C63.5066 39.2144 63.6651 39.4956 63.9082 39.6904C64.1513 39.8852 64.4602 39.9787 64.7706 39.9513C64.9654 39.9062 65.1436 39.8072 65.2848 39.6656C65.426 39.524 65.5245 39.3455 65.5689 39.1505C65.6134 38.9555 65.6021 38.752 65.5362 38.5632C65.4704 38.3743 65.3527 38.2078 65.1967 38.0828C65.0406 37.9577 64.8525 37.8791 64.6539 37.856C64.4553 37.8329 64.2541 37.8661 64.0735 37.952C63.8929 38.0378 63.7401 38.1728 63.6326 38.3414C63.5252 38.5101 63.4674 38.7056 63.4658 38.9055Z" fill="#FF5E33"/>
    <path d="M67.7356 38.7134H66.3062V39.2795H67.7356V38.7134Z" fill="#FF5E33"/>
    <path d="M63.3233 39.5002L59.812 39.7784C59.6777 39.7784 59.5242 39.7784 59.4858 39.7784C59.4474 39.7784 59.8024 40.1622 59.7544 40.3828C59.7064 40.6035 59.6009 40.6131 59.1692 40.6898L58.9102 39.3467L63.1602 38.5696L63.3233 39.5002Z" fill="#FF5E33"/>
    <path d="M38.5715 32.6503L35.6934 38.56C36.4033 39.433 37.1132 40.2964 37.8136 41.1695L36.0771 45.2084C36.6431 47.0792 37.1996 48.9499 37.7656 50.8111L38.5715 32.6503Z" fill="#65EFEF"/>
    <path d="M42.6675 32.7464L45.6031 38.6561L43.4829 41.2656L45.2194 45.3045C44.4999 47.2232 43.7899 49.0748 43.0704 50.9552L42.6675 32.7464Z" fill="#65EFEF"/>
    <path d="M31.7979 36.0945L26.8572 43.6927L21.4655 38.9918L19.4604 41.8699L25.2742 49.4105C25.9014 49.76 26.6289 49.8852 27.3369 49.7655C27.7788 49.6889 28.1982 49.5153 28.5649 49.257L32.6614 44.3834C33.232 41.6069 32.9304 38.7218 31.7979 36.1233V36.0945Z" fill="white"/>
    <path d="M59.7253 41.3423C59.5759 40.412 59.774 39.4593 60.2818 38.6656C60.9821 37.6391 62.2676 37.0731 62.4691 37.2938C62.6706 37.5144 62.4691 37.6871 61.7688 38.6465C61.5781 39.3079 61.2513 39.9223 60.8094 40.4501C60.4937 40.799 60.1285 41.0997 59.7253 41.3423Z" fill="#FFA4A4"/>
    <path d="M31.3558 46.024C31.3398 46.024 31.324 46.0208 31.3094 46.0144C31.2947 46.008 31.2816 45.9987 31.2708 45.9869C31.2599 45.9752 31.2517 45.9614 31.2465 45.9463C31.2413 45.9312 31.2393 45.9152 31.2406 45.8993L31.4613 40.1431C31.4672 40.1131 31.4824 40.0858 31.5049 40.0652C31.5273 40.0445 31.5557 40.0314 31.586 40.0279C31.602 40.0279 31.6178 40.0311 31.6324 40.0375C31.647 40.0439 31.6602 40.0532 31.671 40.065C31.6818 40.0767 31.6901 40.0905 31.6953 40.1056C31.7005 40.1207 31.7025 40.1367 31.7011 40.1526L31.4805 45.9089C31.4781 45.9402 31.4639 45.9696 31.4407 45.9909C31.4176 46.0123 31.3872 46.0241 31.3558 46.024Z" fill="#342939"/>
    <path d="M49.7859 44.959C49.7519 44.9565 49.7202 44.9413 49.697 44.9164C49.6739 44.8915 49.661 44.8587 49.6611 44.8246L49.8722 41.2366C49.8746 41.2052 49.8888 41.1759 49.912 41.1546C49.9351 41.1332 49.9654 41.1214 49.9969 41.1215C50.0129 41.1214 50.0287 41.1247 50.0433 41.1311C50.0579 41.1374 50.0711 41.1468 50.0819 41.1585C50.0927 41.1703 50.101 41.1841 50.1062 41.1992C50.1114 41.2143 50.1134 41.2303 50.112 41.2462L49.901 44.8438C49.901 44.8744 49.8889 44.9036 49.8673 44.9252C49.8457 44.9468 49.8164 44.959 49.7859 44.959Z" fill="#342939"/>
    <path d="M55.0435 46.0241C54.938 46.0241 54.9092 45.9378 54.9284 45.8706L55.3217 44.6139C55.3326 44.5838 55.3546 44.5592 55.3832 44.5449C55.4117 44.5306 55.4447 44.5278 55.4752 44.5371C55.4909 44.5414 55.5054 44.5489 55.5179 44.5591C55.5305 44.5694 55.5407 44.5822 55.5479 44.5967C55.5552 44.6112 55.5593 44.627 55.56 44.6432C55.5607 44.6594 55.5579 44.6755 55.552 44.6906L55.149 45.9474C55.1426 45.9701 55.1287 45.9901 55.1096 46.004C55.0904 46.0179 55.0672 46.025 55.0435 46.0241Z" fill="#342939"/>
    <path d="M26.7996 44.8151C26.7836 44.8151 26.7678 44.8119 26.7532 44.8055C26.7386 44.7991 26.7254 44.7898 26.7146 44.7781C26.7038 44.7663 26.6955 44.7525 26.6903 44.7374C26.6851 44.7223 26.6832 44.7063 26.6845 44.6904V43.7982C26.6869 43.7668 26.7011 43.7375 26.7242 43.7161C26.7474 43.6948 26.7777 43.683 26.8092 43.683C26.8397 43.683 26.869 43.6952 26.8906 43.7168C26.9122 43.7383 26.9243 43.7676 26.9243 43.7982V44.7C26.9244 44.7159 26.9211 44.7317 26.9147 44.7464C26.9084 44.761 26.899 44.7741 26.8873 44.785C26.8756 44.7958 26.8617 44.8041 26.8466 44.8093C26.8315 44.8144 26.8155 44.8164 26.7996 44.8151Z" fill="#342939"/>
  </g>
  <path d="M79 39.5C79 61.3152 61.3152 79 39.5 79C17.6848 79 0 61.3152 0 39.5C0 17.6848 17.6848 0 39.5 0C61.3152 0 79 17.6848 79 39.5ZM3.28568 39.5C3.28568 59.5006 19.4994 75.7143 39.5 75.7143C59.5006 75.7143 75.7143 59.5006 75.7143 39.5C75.7143 19.4994 59.5006 3.28568 39.5 3.28568C19.4994 3.28568 3.28568 19.4994 3.28568 39.5Z" fill="#9D9D9D"/>
  <path d="M79 39.5C79 47.7543 76.4141 55.8012 71.6057 62.5103C66.7972 69.2194 60.0078 74.2536 52.1912 76.9057C44.3745 79.5577 35.9234 79.6944 28.0251 77.2965C20.1268 74.8986 13.1781 70.0866 8.15521 63.5365C3.13231 56.9864 0.287588 49.0273 0.0206591 40.7774C-0.246269 32.5274 2.07801 24.4011 6.66699 17.54C11.256 10.6789 17.8791 5.42775 25.6059 2.5243C33.3326 -0.379156 41.7749 -0.789059 49.7466 1.35217L48.8943 4.52538C41.5857 2.56226 33.8457 2.93807 26.7616 5.6C19.6775 8.26194 13.6054 13.0763 9.3981 19.3666C5.19084 25.657 3.0599 33.1074 3.30462 40.6711C3.54935 48.2348 6.15744 55.5319 10.7625 61.5371C15.3676 67.5424 21.7383 71.9541 28.9796 74.1525C36.2209 76.351 43.969 76.2257 51.1355 73.7942C58.3019 71.3627 64.5266 66.7473 68.9351 60.5963C73.3436 54.4452 75.7143 47.0677 75.7143 39.5H79Z" fill="#AD9EFD"/>
</svg>