<svg width="53" height="22" viewBox="0 0 53 22" fill="none" xmlns="http://www.w3.org/2000/svg">
<path d="M10 18.5C14.1421 18.5 17.5 15.1421 17.5 11C17.5 6.85786 14.1421 3.5 10 3.5C5.85786 3.5 2.5 6.85786 2.5 11C2.5 15.1421 5.85786 18.5 10 18.5Z" stroke="#FD8E1F" stroke-width="1.3" stroke-miterlimit="10"/>
<path d="M10 6.625V11H14.375" stroke="#FD8E1F" stroke-width="1.3" stroke-linecap="round" stroke-linejoin="round"/>
<path d="M30.2358 16.1392C29.6525 16.1392 29.1271 16.0232 28.6598 15.7912C28.1925 15.5592 27.8179 15.241 27.5362 14.8366C27.2545 14.4323 27.1004 13.9716 27.0739 13.4545H28.267C28.3134 13.9152 28.5223 14.2964 28.8935 14.598C29.268 14.8963 29.7154 15.0455 30.2358 15.0455C30.6534 15.0455 31.0246 14.9477 31.3494 14.7521C31.6776 14.5566 31.9344 14.2881 32.12 13.9467C32.3089 13.602 32.4034 13.2126 32.4034 12.7784C32.4034 12.3343 32.3056 11.9382 32.1101 11.5902C31.9179 11.2389 31.6527 10.9621 31.3146 10.7599C30.9766 10.5578 30.5904 10.455 30.1562 10.4517C29.8447 10.4484 29.5249 10.4964 29.1967 10.5959C28.8686 10.692 28.5985 10.8163 28.3864 10.9688L27.233 10.8295L27.8494 5.81818H33.1392V6.91193H28.8835L28.5256 9.91477H28.5852C28.794 9.74905 29.0559 9.61151 29.3707 9.50213C29.6856 9.39276 30.0137 9.33807 30.3551 9.33807C30.9782 9.33807 31.5334 9.48722 32.0206 9.78551C32.5111 10.0805 32.8956 10.4848 33.174 10.9986C33.4557 11.5123 33.5966 12.099 33.5966 12.7585C33.5966 13.4081 33.4508 13.9882 33.1591 14.4986C32.8707 15.0057 32.473 15.4067 31.9659 15.7017C31.4588 15.9934 30.8821 16.1392 30.2358 16.1392ZM39.0111 5.81818V16H37.7781V7.1108H37.7185L35.2327 8.76136V7.50852L37.7781 5.81818H39.0111ZM41.8193 16V8.36364H42.9528V9.55682H43.0522C43.2113 9.14915 43.4682 8.83262 43.8228 8.60724C44.1774 8.37855 44.6033 8.2642 45.1005 8.2642C45.6043 8.2642 46.0236 8.37855 46.3583 8.60724C46.6964 8.83262 46.9599 9.14915 47.1488 9.55682H47.2283C47.4239 9.16241 47.7172 8.84919 48.1083 8.61719C48.4994 8.38187 48.9684 8.2642 49.5153 8.2642C50.198 8.2642 50.7565 8.47798 51.1907 8.90554C51.6249 9.32978 51.842 9.991 51.842 10.8892V16H50.6687V10.8892C50.6687 10.3258 50.5146 9.92306 50.2063 9.68111C49.8981 9.43916 49.5352 9.31818 49.1176 9.31818C48.5806 9.31818 48.1647 9.48059 47.8697 9.8054C47.5747 10.1269 47.4272 10.5346 47.4272 11.0284V16H46.234V10.7699C46.234 10.3357 46.0932 9.98603 45.8114 9.72088C45.5297 9.45241 45.1668 9.31818 44.7227 9.31818C44.4177 9.31818 44.1327 9.39938 43.8676 9.56179C43.6057 9.72419 43.3936 9.94957 43.2312 10.2379C43.0721 10.523 42.9926 10.8527 42.9926 11.2273V16H41.8193Z" fill="#4E5566"/>
</svg>
