<svg xmlns="http://www.w3.org/2000/svg" width="79" height="79" viewBox="0 0 79 79" fill="none">
  <circle cx="39.5" cy="39.5" r="28" fill="#ABEFEB" stroke="black"/>
  <mask id="mask0_1150_8381" style="mask-type:alpha" maskUnits="userSpaceOnUse" x="11" y="11" width="57" height="57">
    <circle cx="39.5004" cy="39.3715" r="27.7143" fill="#EFABAB" stroke="black"/>
  </mask>
  <g mask="url(#mask0_1150_8381)">
    <path d="M39.9691 27.1776L38.855 28.2994C39.3698 28.9371 39.8923 29.5826 40.3917 30.2587C41.3675 31.5035 42.2665 32.7328 43.1117 33.9315C43.3467 34.1037 43.6055 34.2409 43.88 34.3387C44.2111 34.4921 44.582 34.5378 44.9404 34.4693L45.0863 34.4232L46.285 32.8865C45.8981 32.3963 45.4715 31.9389 45.0095 31.5188C43.3191 29.9821 42.0436 29.7593 40.6606 28.1534C40.4045 27.8471 40.1733 27.5208 39.9691 27.1776Z" fill="#FFA4A4"/>
    <path d="M54.9447 32.5868C54.91 32.7332 54.8584 32.875 54.791 33.0094C54.3454 33.8546 53.1775 34.4847 48.4675 34.8304H47.9142L46.5466 34.9073C45.8397 34.9073 45.0483 34.9611 44.1877 34.9688L44.0264 32.6637L47.2612 31.9798L47.4686 31.9337C48.2831 31.7724 49.0898 31.5957 49.8966 31.4266C50.4013 31.1358 50.964 30.9601 51.5445 30.9123C52.125 30.8645 52.7089 30.9457 53.2543 31.15C53.9516 31.4446 54.5417 31.9461 54.9447 32.5868Z" fill="#FFA4A4"/>
    <path d="M47.914 34.8612L46.5464 34.938C46.4385 33.8992 46.6907 32.8548 47.2609 31.9798L47.4684 31.9337L47.914 34.8612Z" fill="#E57777"/>
    <path d="M52.4935 30.5354C51.9038 30.4611 51.3049 30.5432 50.757 30.7735L47.1765 31.8877C47.0624 32.2668 47.0004 32.6597 46.9921 33.0556C46.9699 33.8375 47.1471 34.6122 47.5069 35.3068L54.5681 33.9084C54.745 33.6696 54.8717 33.3973 54.9403 33.108C55.009 32.8188 55.0183 32.5187 54.9676 32.2257C54.6219 30.835 52.6318 30.5507 52.4935 30.5354Z" fill="white"/>
    <path d="M39.1012 59.5177L45.2481 59.4562C45.3338 59.1371 45.3204 58.7994 45.2097 58.4881C45.1695 58.3892 45.1206 58.294 45.0637 58.2038C44.7973 57.7318 44.6374 57.2073 44.595 56.6671L43.4578 56.5364L41.6983 58.173L40.3613 58.5572C39.593 58.7647 39.155 58.8646 39.0705 59.1565C39.0514 59.2158 39.0443 59.2782 39.0495 59.3402C39.0548 59.4022 39.0724 59.4625 39.1012 59.5177Z" fill="#FFA4A4"/>
    <path d="M49.5049 28.1687C49.6509 28.6297 49.7969 29.0907 49.9505 29.5594L50.6651 31.7799L53.9537 30.7734L51.9175 26.2939C51.4939 26.7434 51.0339 27.1572 50.5422 27.5309C50.181 27.7538 49.8276 27.9766 49.5049 28.1687Z" fill="#FFA4A4"/>
    <path d="M49.5049 28.1687C49.6509 28.6297 49.7969 29.0908 49.9505 29.5595C50.5652 29.352 50.8265 28.4453 50.5498 27.5156C50.1964 27.7154 49.8506 27.9382 49.5049 28.1687Z" fill="#E57777"/>
    <path d="M57.4952 43.4206L56.6807 44.5194C55.9124 45.5336 55.1824 46.5555 54.4295 47.5928C53.9351 47.59 53.4454 47.4963 52.9849 47.3162C52.9465 47.1779 52.9158 47.0472 52.8697 46.9243C52.465 45.5669 52.0604 44.212 51.6557 42.8597L51.5174 42.3987L51.356 41.8608C51.2485 41.5996 51.1486 41.3307 51.041 41.0925C50.6876 40.1705 50.3264 39.2484 49.9653 38.3264L49.7963 37.8884C49.7271 37.7194 49.6656 37.5504 49.5965 37.3736C49.5883 37.215 49.5883 37.056 49.5965 36.8973C49.5663 35.8669 49.6487 34.8363 49.8424 33.8238C49.9269 33.3628 50.0345 32.9249 50.1497 32.5253C50.2265 32.2641 50.3111 32.0105 50.3956 31.757C50.4801 31.5034 50.4955 31.4804 50.5416 31.3497C50.6415 31.0962 50.7413 30.8657 50.8335 30.6505L53.2001 29.4442C53.3538 29.6594 53.5228 29.8975 53.6918 30.1511C54.3138 31.0945 54.8438 32.0954 55.2746 33.14C55.7362 34.2778 56.0812 35.4594 56.3042 36.6668C56.6423 38.5262 56.9727 40.3779 57.3108 42.2373L57.4952 43.4206Z" fill="#FFA4A4"/>
    <path d="M58.3559 44.7652C58.177 45.532 57.7518 46.2191 57.1454 46.7214C56.5391 47.2237 55.7849 47.5136 54.9982 47.5467C54.809 47.5621 54.6188 47.5621 54.4296 47.5467C53.9352 47.5439 53.4455 47.4502 52.9851 47.2701C52.7371 47.1692 52.5003 47.0431 52.2782 46.8936C51.9296 46.6711 51.634 46.3748 51.4123 46.0257C51.1905 45.6765 51.0481 45.283 50.9951 44.8728C50.9586 44.5026 50.9984 44.1289 51.112 43.7747C51.2257 43.4205 51.4108 43.0934 51.6559 42.8136C51.7209 42.7332 51.7902 42.6562 51.8633 42.5831C52.5365 41.9204 53.4194 41.5129 54.3605 41.4306H54.5756C55.5427 41.3522 56.5056 41.6249 57.2879 42.1989C57.5952 42.423 57.8533 42.7077 58.0463 43.0354C58.2392 43.3632 58.3629 43.727 58.4097 44.1044C58.4229 44.3261 58.4048 44.5486 58.3559 44.7652Z" fill="#4A485D"/>
    <path d="M43.1806 43.4207C42.724 43.5492 42.3313 43.8428 42.0789 44.2444C41.8265 44.6461 41.7324 45.1272 41.8147 45.5944C41.897 46.0616 42.15 46.4816 42.5245 46.7728C42.899 47.064 43.3684 47.2056 43.8414 47.1703L54.1528 46.8476C54.3064 44.8575 54.4678 42.8675 54.6215 40.8851C54.0072 40.8544 53.3917 40.8544 52.7774 40.8851C52.7774 40.8851 51.7555 40.9312 50.6952 41.0772C48.1095 41.5708 45.5885 42.357 43.1806 43.4207Z" fill="#4A485D"/>
    <path d="M42.7733 57.7351L44.7557 57.5968C44.6244 56.2288 44.7601 54.8484 45.1553 53.5322C45.624 51.9955 46.0004 51.9033 46.2079 50.5125C46.3731 49.2731 46.3001 48.0135 45.9928 46.8014C45.8852 46.3557 45.8391 46.325 45.6624 45.6719C45.413 44.7619 45.2306 43.8348 45.1168 42.8981C44.118 43.9533 43.1217 45.0086 42.1279 46.0638C42.2586 46.8321 42.3738 47.5467 42.4814 48.3227C42.8857 51.4431 42.9835 54.5956 42.7733 57.7351Z" fill="#FFA4A4"/>
    <path d="M49.958 28.3994C50.936 27.8554 51.7142 27.0126 52.1786 25.9944C52.3868 25.5905 52.4955 25.1426 52.4955 24.6882C52.4955 24.2338 52.3868 23.7859 52.1786 23.382C51.9625 23.0406 51.6719 22.7527 51.3285 22.5397C50.9852 22.3268 50.5981 22.1945 50.1962 22.1526C48.7594 21.9452 47.4071 22.9978 47.2381 23.8123C47.224 23.9348 47.224 24.0585 47.2381 24.1811C47.3149 25.0724 47.3456 25.4796 47.3379 25.495C47.3353 25.5179 47.3353 25.5411 47.3379 25.5641C47.3365 25.582 47.3365 25.6 47.3379 25.6179L47.53 25.9176C47.6401 26.2962 47.7273 26.681 47.7913 27.0701C47.7913 27.2622 47.7913 27.339 47.8681 27.4005C47.8717 27.409 47.8735 27.4181 47.8735 27.4274C47.8735 27.4366 47.8717 27.4458 47.8681 27.4543C47.8681 27.4543 47.8143 27.4543 47.799 27.5311C47.7836 27.6079 47.8835 27.6464 47.8988 27.654C47.9142 27.6617 48.0602 27.7616 48.1601 27.7078C48.1878 27.6961 48.2099 27.6741 48.2216 27.6464C48.2216 27.6464 48.0448 27.777 48.0679 27.8538C48.0736 27.8689 48.0829 27.8823 48.0949 27.893C48.107 27.9037 48.1214 27.9114 48.137 27.9153C48.137 27.9153 48.1985 27.9153 48.2139 27.9153C48.2292 27.9153 48.2677 28.4608 48.3906 28.6299C48.5135 28.7989 49.3203 28.699 49.958 28.3994Z" fill="#FFA4A4"/>
    <path d="M47.2683 26.9394C47.3067 27.0546 47.4527 27.1084 47.5065 27.1315C47.6168 27.1639 47.7342 27.1639 47.8446 27.1315C47.8678 27.1056 47.8853 27.0751 47.8959 27.042C47.9065 27.0089 47.9099 26.9739 47.906 26.9394C47.906 26.8779 47.8522 26.8549 47.8138 26.778C47.7914 26.7002 47.7914 26.6177 47.8138 26.5398L47.5526 25.7715C47.5142 25.9482 47.4911 26.0865 47.4681 26.1787C47.4522 26.3167 47.4239 26.453 47.3835 26.5859C47.299 26.8088 47.2376 26.8549 47.2683 26.9394Z" fill="#FFA4A4"/>
    <path d="M47.8215 25.7408H47.76C47.7514 25.7322 47.7446 25.722 47.74 25.7108C47.7353 25.6996 47.7329 25.6876 47.7329 25.6755C47.7329 25.6633 47.7353 25.6513 47.74 25.6401C47.7446 25.6289 47.7514 25.6187 47.76 25.6102C47.8895 25.4429 48.0789 25.3325 48.2883 25.3024C48.4976 25.2723 48.7105 25.3248 48.8818 25.4488C48.8943 25.4556 48.9051 25.4649 48.9137 25.4762C48.9222 25.4874 48.9283 25.5004 48.9314 25.5142C48.9346 25.5279 48.9348 25.5422 48.932 25.5561C48.9293 25.57 48.9236 25.5831 48.9154 25.5946C48.9071 25.6061 48.8966 25.6157 48.8844 25.6229C48.8721 25.63 48.8585 25.6344 48.8445 25.6359C48.8304 25.6374 48.8162 25.6358 48.8028 25.6314C48.7893 25.627 48.777 25.6197 48.7666 25.6102C48.6618 25.5329 48.5356 25.4899 48.4054 25.4872C48.3096 25.4909 48.2156 25.5147 48.1296 25.557C48.0435 25.5994 47.9674 25.6594 47.906 25.7331C47.8934 25.7405 47.8792 25.745 47.8646 25.7464C47.85 25.7477 47.8353 25.7458 47.8215 25.7408Z" fill="#342939"/>
    <path d="M47.9141 25.7561C47.9141 25.8944 48.0678 25.9789 48.1677 25.9482C48.2676 25.9174 48.3137 25.7868 48.2752 25.6485C48.2368 25.5102 48.1139 25.4257 48.014 25.4564C47.9636 25.4856 47.9256 25.5321 47.9072 25.5873C47.8888 25.6425 47.8913 25.7026 47.9141 25.7561Z" fill="#342939"/>
    <path d="M48.1904 27.7768C48.1684 27.7771 48.147 27.7695 48.1301 27.7555C48.1132 27.7414 48.1019 27.7217 48.0982 27.7C48.0948 27.6879 48.0939 27.6752 48.0955 27.6627C48.0972 27.6502 48.1014 27.6382 48.1079 27.6274C48.1143 27.6166 48.123 27.6072 48.1332 27.5999C48.1434 27.5926 48.1551 27.5874 48.1674 27.5847C48.2534 27.5746 48.3382 27.5566 48.4209 27.5309C48.5207 27.4786 48.6136 27.414 48.6975 27.3389C48.7055 27.3292 48.7154 27.3214 48.7267 27.3161C48.738 27.3108 48.7504 27.308 48.7629 27.308C48.7753 27.308 48.7877 27.3108 48.799 27.3161C48.8103 27.3214 48.8202 27.3292 48.8282 27.3389C48.846 27.3575 48.856 27.3822 48.856 27.408C48.856 27.4338 48.846 27.4586 48.8282 27.4772C48.7315 27.5661 48.6229 27.6411 48.5055 27.7C48.4126 27.7471 48.3147 27.7832 48.2135 27.8076L48.1904 27.7768Z" fill="#342939"/>
    <path d="M48.8283 24.9571C48.7519 24.9455 48.6742 24.9455 48.5978 24.9571C48.2291 24.9997 47.8675 25.0901 47.5221 25.226C47.4571 25.1524 47.4144 25.0618 47.3992 24.9648C47.391 24.9164 47.391 24.8671 47.3992 24.8188C47.6374 24.7496 47.8986 24.6805 48.1675 24.619C48.33 24.5884 48.4968 24.5884 48.6593 24.619C48.7279 24.6204 48.7947 24.6418 48.8514 24.6805C48.8886 24.7049 48.918 24.7396 48.9359 24.7804C48.9359 24.8341 48.9974 24.911 48.9359 24.9571C48.9011 24.9694 48.8631 24.9694 48.8283 24.9571Z" fill="#342939"/>
    <path d="M42.4585 57.3508L41.5442 58.05C41.0647 58.2481 40.5648 58.3924 40.0536 58.4803C39.6694 58.5418 39.362 58.5571 39.1546 58.7953C39.0709 58.9032 39.0101 59.0269 38.9758 59.159C38.9414 59.2911 38.9343 59.4288 38.9548 59.5637H45.3475C45.452 59.231 45.452 58.8744 45.3475 58.5418C45.2565 58.2726 45.1009 58.0299 44.8942 57.8349L42.9119 57.9885C42.9756 57.927 43.0155 57.8451 43.0248 57.757C43.034 57.6689 43.012 57.5804 42.9624 57.507C42.9129 57.4337 42.8391 57.3801 42.7539 57.3557C42.6688 57.3314 42.5778 57.3378 42.4969 57.3739L42.4585 57.3508Z" fill="white"/>
    <path d="M41.7905 45.2571L42.0902 57.351C42.5119 57.5193 42.9535 57.6329 43.4041 57.6891C44.0769 57.7736 44.7596 57.7319 45.4172 57.5661C45.8782 53.5399 46.3443 49.5086 46.8156 45.4722L45.3941 42.7906L45.1175 42.9136C43.8607 43.4605 42.7287 44.2579 41.7905 45.2571Z" fill="#4A485D"/>
    <path d="M50.2573 31.4267C49.5735 33.1888 49.2951 35.0822 49.4428 36.9665C49.4428 37.0434 49.4428 37.174 49.5888 38.0422C49.7732 39.3945 49.9115 40.4933 50.0114 41.2002C51.053 42.1378 52.2287 42.9147 53.4997 43.5052C55.0999 44.2424 56.8209 44.6824 58.5786 44.8038C58.0706 41.0953 57.1054 37.4641 55.7049 33.993C55.1363 32.5869 54.5216 31.2961 53.9069 30.1051L50.2573 31.4267Z" fill="white"/>
    <path d="M46.6382 47.0781H46.5921L45.5702 46.4403C45.5545 46.4222 45.5459 46.399 45.5459 46.375C45.5459 46.351 45.5545 46.3279 45.5702 46.3097C45.5788 46.3011 45.589 46.2943 45.6002 46.2896C45.6114 46.285 45.6234 46.2826 45.6355 46.2826C45.6477 46.2826 45.6597 46.285 45.6709 46.2896C45.6821 46.2943 45.6923 46.3011 45.7008 46.3097L46.7227 46.9474C46.7313 46.956 46.7382 46.9662 46.7428 46.9774C46.7475 46.9886 46.7499 47.0006 46.7499 47.0128C46.7499 47.0249 46.7475 47.0369 46.7428 47.0481C46.7382 47.0593 46.7313 47.0695 46.7227 47.0781C46.7095 47.0842 46.6951 47.0874 46.6805 47.0874C46.6659 47.0874 46.6514 47.0842 46.6382 47.0781Z" fill="#342939"/>
    <path d="M48.9514 21.8529C49.6122 21.6839 49.9349 21.5994 50.1501 21.753C50.25 21.8299 50.3652 21.9605 50.5266 21.9451C50.6879 21.9298 50.6265 21.899 50.6956 21.8837C50.9031 21.8375 51.1336 22.1218 51.2104 22.214C51.7252 22.8134 52.094 22.6443 52.5012 23.2206C52.6952 23.4967 52.8191 23.8157 52.8624 24.1503C52.7344 24.8214 52.5467 25.4797 52.3015 26.1173C52.2498 26.2706 52.143 26.3993 52.0018 26.4784C51.8561 26.5195 51.7024 26.5235 51.5548 26.4899C51.4071 26.4564 51.2703 26.3864 51.1566 26.2863C50.6111 25.8484 50.7187 25.0723 50.4267 25.0416C50.1347 25.0109 50.0118 25.4796 49.8504 25.4181C49.6891 25.3566 49.7813 25.1799 49.7121 24.9648C49.5447 24.6822 49.3079 24.4471 49.0242 24.2817C48.7405 24.1163 48.4192 24.0261 48.0909 24.0197C47.7592 24.0472 47.4253 24.0107 47.1074 23.9121C46.946 23.843 46.7232 23.7661 46.6925 23.6048C46.6617 23.4434 47.092 22.9593 47.4224 23.0054C47.5223 23.0054 47.5454 23.0669 47.6529 23.0592C47.8757 23.0592 48.1063 22.8441 48.0909 22.6904C48.0755 22.5368 48.0064 22.5982 47.991 22.506C47.9756 22.4138 48.1754 22.2064 48.2753 22.1372C48.4798 21.9988 48.7095 21.9022 48.9514 21.8529Z" fill="#342939"/>
    <path d="M47.6528 23.0592L48.2982 21C51.3717 21.1844 53.6306 22.1218 53.8765 23.4357C53.9269 23.692 53.9084 23.9572 53.8227 24.204L52.5165 25.8714C50.6783 25.373 49.0019 24.4037 47.6528 23.0592Z" fill="white"/>
    <path d="M32.1859 35.7063C31.1596 37.5419 30.4676 39.5451 30.1421 41.6227C30.0345 42.5601 29.8347 43.4898 29.6887 44.4195C29.6054 45.1419 29.4029 45.8455 29.0894 46.5017C28.8642 46.9487 28.5713 47.3581 28.2212 47.7157C27.2312 46.1742 25.9209 44.864 24.3794 43.8739C24.4692 43.2978 24.6757 42.7461 24.9864 42.2527C25.202 41.923 25.4604 41.6232 25.7547 41.3614C26.0278 40.2123 26.1237 39.0281 26.039 37.85C25.9007 35.8523 25.2707 34.8534 25.6625 33.2399C25.8953 32.4921 26.2371 31.7827 26.6768 31.1346C27.4273 29.8139 28.2668 28.5458 29.1893 27.3389C29.4326 27.7456 29.7357 28.1134 30.0883 28.43C30.2803 28.5978 30.4859 28.7495 30.703 28.8833L30.6492 28.9294C30.3363 29.175 30.097 29.502 29.9577 29.8745V29.936C29.9278 30.0237 29.9047 30.1136 29.8885 30.2049C29.8667 30.5086 29.908 30.8135 30.0098 31.1005C30.1116 31.3875 30.2717 31.6502 30.4801 31.8722L32.1859 35.7063Z" fill="#FFA4A4"/>
    <path d="M29.1584 35.9139C29.0909 36.2276 29.1179 36.5543 29.2361 36.8526C29.3544 37.1509 29.5585 37.4074 29.8226 37.5896C30.0867 37.7718 30.399 37.8716 30.7198 37.8762C31.0407 37.8809 31.3557 37.7902 31.6249 37.6157C31.8942 37.4412 32.1057 37.1908 32.2325 36.896C32.3594 36.6013 32.3959 36.2755 32.3374 35.96C32.279 35.6445 32.1283 35.3534 31.9043 35.1236C31.6803 34.8938 31.3932 34.7356 31.0793 34.6691C30.8714 34.6241 30.6566 34.6205 30.4474 34.6588C30.2381 34.697 30.0385 34.7763 29.8599 34.892C29.6814 35.0076 29.5275 35.1575 29.4071 35.3329C29.2867 35.5082 29.2022 35.7057 29.1584 35.9139Z" fill="#FFA4A4"/>
    <path d="M26.9916 48.0384C29.143 48.3381 30.9947 46.5017 31.0024 45.3031C31.0024 44.6961 30.5491 44.2965 30.234 42.7214C30.1649 42.3218 30.1265 41.953 30.1034 41.7686L25.5624 41.2999C25.0694 41.6415 24.6595 42.0896 24.3629 42.6109C24.0664 43.1322 23.8907 43.7135 23.849 44.3119C23.8364 45.2073 24.1472 46.0773 24.7246 46.7619C25.3019 47.4464 26.1069 47.8997 26.9916 48.0384Z" fill="#FF5E33"/>
    <path d="M37.5947 47.6082C37.7561 46.5863 37.9097 45.5644 38.0711 44.5348C36.7744 43.9018 35.4341 43.3625 34.0603 42.9212C31.6221 42.1474 29.0933 41.6954 26.5381 41.5766C27.1425 43.4975 27.7444 45.4133 28.3437 47.3239C29.2445 47.6711 30.1877 47.8959 31.1482 47.9924C31.9166 48.0615 32.5082 48.0462 36.1733 47.7234L37.5947 47.6082Z" fill="#FF5E33"/>
    <path d="M33.1465 58.634L34.5065 59.0412C35.1382 56.5388 35.9601 54.0883 36.9652 51.7111C37.7067 49.9561 38.5482 48.245 39.4854 46.5862C39.5208 46.3103 39.4959 46.03 39.4123 45.7646C39.3287 45.4993 39.1885 45.2553 39.0014 45.0495C38.7471 44.7969 38.4235 44.6258 38.0716 44.5577L36.4735 45.8563C35.9459 46.4804 35.4656 47.143 35.0366 47.8386C34.4188 48.7709 33.94 49.7881 33.6152 50.8583C33.0466 52.9098 33.7151 53.7319 33.3539 57.1357C33.2925 57.7658 33.208 58.2652 33.1465 58.634Z" fill="#FFA4A4"/>
    <path d="M33.054 59.5176H39.0164C39.0771 59.4942 39.1316 59.457 39.1756 59.409C39.2196 59.361 39.2519 59.3035 39.27 59.241C39.2899 59.1445 39.2754 59.0441 39.2291 58.9571C39.1828 58.8701 39.1076 58.802 39.0164 58.7646C38.5398 58.7189 38.0688 58.6262 37.6103 58.488C36.9681 58.3371 36.3622 58.0603 35.8277 57.6736C35.4187 57.3499 35.0723 56.9541 34.8058 56.5057L33.5611 56.8668C33.4254 57.4052 33.2159 57.9224 32.9387 58.4035C32.8158 58.6033 32.6237 58.9106 32.7313 59.1719C32.7592 59.2482 32.8021 59.3181 32.8576 59.3775C32.913 59.4369 32.9798 59.4845 33.054 59.5176Z" fill="#FFA4A4"/>
    <path d="M33.3228 57.543C33.2152 57.7197 33.1384 57.8734 33.0846 57.981C33.0441 58.0815 32.9841 58.1729 32.9079 58.2499C32.8233 58.3344 32.7772 58.3267 32.7081 58.3728C32.6265 58.472 32.5711 58.5901 32.5469 58.7163C32.5228 58.8425 32.5306 58.9727 32.5698 59.0951C32.624 59.2717 32.7313 59.4273 32.8771 59.5407H39.1085C39.2108 59.4545 39.2789 59.3346 39.3006 59.2026C39.3087 59.0567 39.2652 58.9125 39.1776 58.7954C38.6113 58.2969 37.9063 57.9833 37.1569 57.8964L36.0658 57.6582C36.1774 57.6106 36.2663 57.5215 36.3135 57.4098C36.3608 57.298 36.3629 57.1722 36.3194 57.0589C36.2804 57.0055 36.2296 56.9617 36.171 56.9311C36.1123 56.9004 36.0474 56.8837 35.9813 56.8822C35.6539 56.9126 35.3484 57.0599 35.1207 57.2971C34.8287 57.6429 34.9209 57.9886 34.6981 58.1269C34.4753 58.2652 34.168 58.2652 33.3228 57.543Z" fill="#342939"/>
    <path d="M30.6182 28.9525C30.3053 29.1981 30.0661 29.525 29.9267 29.8976C29.7038 29.4058 29.7576 28.8987 30.0726 28.7143H30.1264L30.6182 28.9525Z" fill="#E57777"/>
    <path d="M29.2884 28.6375C29.6882 28.9422 30.1065 29.2219 30.5408 29.475C30.8854 29.6719 31.2629 29.8047 31.655 29.8669C31.7312 29.887 31.8108 29.8912 31.8888 29.8793C31.9668 29.8674 32.0415 29.8396 32.1083 29.7977C32.1666 29.7489 32.2134 29.6877 32.2453 29.6186C32.2772 29.5495 32.2934 29.4742 32.2927 29.3982C32.3065 29.3675 32.3311 29.3429 32.3618 29.329C32.4233 29.329 32.4848 29.3751 32.5693 29.329C32.6086 29.314 32.6427 29.2878 32.6672 29.2537C32.6918 29.2196 32.7059 29.179 32.7076 29.1369C32.7004 29.0971 32.6784 29.0614 32.6461 29.037C32.6966 29.0332 32.7456 29.0182 32.7895 28.9929C32.8334 28.9676 32.8711 28.9328 32.8997 28.891C32.9105 28.8655 32.916 28.8381 32.916 28.8104C32.916 28.7827 32.9105 28.7552 32.8997 28.7297C32.8704 28.6593 32.8448 28.5875 32.8229 28.5146C32.705 28.0829 32.7515 27.6229 32.9535 27.2237C33.0074 27.1423 33.0561 27.0576 33.0995 26.9702L33.1686 26.8242C33.2758 26.5426 33.3204 26.2411 33.2992 25.9406C33.2895 25.5593 33.1977 25.1845 33.0303 24.8418C32.8417 24.4018 32.5394 24.0199 32.1544 23.7354C31.6533 23.3694 31.0437 23.1825 30.4235 23.2048C29.8034 23.2271 29.2087 23.4573 28.7352 23.8583C28.377 24.3139 28.1709 24.8705 28.1461 25.4496C28.1213 26.0286 28.279 26.6008 28.5969 27.0854C28.8006 27.3138 28.9666 27.5732 29.0886 27.8538C29.196 28.1029 29.2634 28.3674 29.2884 28.6375Z" fill="#FFA4A4"/>
    <path d="M32.7157 28.4146C32.7701 28.3843 32.8303 28.366 32.8924 28.3608C32.9769 28.3608 33.0076 28.3608 33.0768 28.3608C33.1316 28.3503 33.1808 28.3203 33.2151 28.2763C33.2572 28.2297 33.2816 28.1699 33.2843 28.1072C33.2724 28.0203 33.2285 27.9408 33.1613 27.8844C33.0224 27.7123 32.9346 27.5046 32.9078 27.2851L32.6772 27.8229L32.7157 28.4146Z" fill="#FFA4A4"/>
    <path d="M31.9782 27.1391C31.9585 27.1468 31.9365 27.1468 31.9168 27.1391C31.9005 27.1197 31.8916 27.0952 31.8916 27.0699C31.8916 27.0447 31.9005 27.0202 31.9168 27.0008C32.0512 26.8586 32.2301 26.7664 32.4239 26.7396C32.6018 26.7158 32.7826 26.7508 32.9387 26.8394C32.9544 26.8576 32.963 26.8808 32.963 26.9048C32.963 26.9287 32.9544 26.9519 32.9387 26.9701C32.9205 26.9857 32.8974 26.9944 32.8734 26.9944C32.8494 26.9944 32.8262 26.9857 32.8081 26.9701C32.6856 26.905 32.5464 26.8782 32.4085 26.8932C32.2613 26.9136 32.1256 26.9842 32.0243 27.093C32.0146 27.1131 31.9983 27.1293 31.9782 27.1391Z" fill="#342939"/>
    <path d="M32.4238 27.0238C32.4238 27.1775 32.4238 27.3158 32.5545 27.3389C32.6851 27.3619 32.7696 27.2543 32.8003 27.1084C32.8311 26.9624 32.8003 26.8087 32.6697 26.7856C32.5391 26.7626 32.4546 26.8702 32.4238 27.0238Z" fill="#342939"/>
    <path d="M32.4396 29.0677C32.366 29.0671 32.2941 29.0458 32.2321 29.0062C32.1819 28.9682 32.1422 28.9179 32.1169 28.8602C32.1062 28.8367 32.105 28.81 32.1136 28.7856C32.1222 28.7613 32.1399 28.7412 32.163 28.7296C32.1745 28.7247 32.187 28.7222 32.1996 28.7222C32.2121 28.7223 32.2245 28.7249 32.2361 28.73C32.2476 28.735 32.2579 28.7423 32.2665 28.7515C32.2751 28.7607 32.2817 28.7716 32.2859 28.7834C32.3044 28.8058 32.325 28.8264 32.3474 28.8449C32.369 28.8551 32.3926 28.8604 32.4165 28.8604C32.4405 28.8604 32.4641 28.8551 32.4857 28.8449C32.5111 28.8403 32.5373 28.8457 32.5588 28.86C32.5803 28.8744 32.5954 28.8965 32.6009 28.9217C32.6038 28.9469 32.5976 28.9722 32.5835 28.9933C32.5695 29.0144 32.5484 29.0299 32.5241 29.0369L32.4396 29.0677Z" fill="#342939"/>
    <path d="M32.5544 28.8602C32.4983 28.9008 32.4444 28.9444 32.3931 28.9909C32.4681 29.0397 32.5576 29.0614 32.6466 29.0523C32.6466 29.0523 32.8694 29.0523 32.9232 28.8679C32.977 28.6835 32.9232 28.7219 32.9232 28.6989C32.9232 28.6758 32.7081 28.745 32.5544 28.8602Z" fill="#E57777"/>
    <path d="M32.8389 26.1249C32.8728 26.1384 32.9035 26.1592 32.9287 26.1857C32.9539 26.2123 32.9731 26.2439 32.9849 26.2785C33.008 26.3378 33.008 26.4037 32.9849 26.463L32.8389 26.1249Z" fill="#342939"/>
    <path d="M32.8163 26.1171C32.8305 26.1746 32.8484 26.2311 32.87 26.2862C32.9085 26.3938 32.9238 26.4091 32.9162 26.4245C32.9085 26.4399 32.6011 26.3169 32.2784 26.2631C32.088 26.2268 31.8925 26.2268 31.7021 26.2631C31.7295 26.2222 31.7632 26.1859 31.802 26.1556C32.1478 25.879 32.7241 26.0864 32.8163 26.1171Z" fill="#342939"/>
    <path d="M32.3551 29.4059L32.1399 29.3214C32.1184 29.31 32.1013 29.2917 32.0915 29.2693C32.0818 29.247 32.0799 29.222 32.0862 29.1984C32.0902 29.1856 32.0971 29.1738 32.1062 29.1639C32.1153 29.154 32.1265 29.1462 32.1389 29.1411C32.1514 29.136 32.1648 29.1336 32.1782 29.1343C32.1917 29.1349 32.2049 29.1384 32.2168 29.1447L32.3935 29.2138C32.4166 29.2254 32.4343 29.2455 32.4429 29.2698C32.4515 29.2942 32.4503 29.3209 32.4396 29.3444C32.4334 29.362 32.422 29.3773 32.4069 29.3883C32.3918 29.3993 32.3737 29.4054 32.3551 29.4059Z" fill="#342939"/>
    <path d="M35.0136 46.6939C34.0867 48.3935 33.4652 50.2425 33.1773 52.1569C32.9572 53.7166 32.9572 55.2995 33.1773 56.8592C33.5984 57.1758 34.119 57.3312 34.6448 57.2972C35.0144 57.2664 35.3694 57.1392 35.6744 56.9284C37.0114 53.4708 38.3534 50.0106 39.7006 46.5479C39.7826 46.2669 39.7826 45.9683 39.7006 45.6873C39.6238 45.4722 39.3933 44.9958 37.2572 44.1045C36.8346 43.9278 36.4889 43.7972 36.243 43.7126C35.8127 44.7038 35.4132 45.7027 35.0136 46.6939Z" fill="#FF5E33"/>
    <path d="M25.6544 32.049C25.1812 33.896 24.8675 35.7803 24.717 37.681C24.6115 39.0538 24.5884 40.4316 24.6479 41.8071C25.2441 42.3021 25.9502 42.6472 26.7071 42.8136C27.3876 42.9382 28.0861 42.9256 28.7617 42.7765C29.4372 42.6274 30.0762 42.3448 30.6411 41.9454C30.8946 40.8082 31.1482 39.6403 31.4094 38.5185C31.6747 38.3426 31.902 38.1153 32.0779 37.8501C33.0998 36.3133 31.7552 34.0083 31.6937 33.9391L29.8036 30.4662L27.7905 29.0677L25.6544 32.049Z" fill="#4A485D"/>
    <path d="M33.0922 24.7035C32.7967 25.0951 32.4704 25.4625 32.1164 25.8022C31.4326 26.463 29.6039 28.2225 28.605 27.7077C27.8981 27.3466 27.7598 25.9405 28.0979 24.957C28.2892 24.3582 28.6832 23.8447 29.212 23.5048C29.8006 23.18 30.484 23.0705 31.1446 23.1953C31.8052 23.3201 32.4015 23.6714 32.831 24.1887C32.9452 24.3451 33.0334 24.5189 33.0922 24.7035Z" fill="#342939"/>
    <path d="M30.1652 26.8702C30.1086 27.0357 30.1167 27.2164 30.188 27.3761C30.2593 27.5358 30.3884 27.6625 30.5494 27.7308C30.8567 27.7923 31.1717 27.5156 31.2563 27.1084C31.3129 26.943 31.3047 26.7622 31.2335 26.6026C31.1622 26.4429 31.0331 26.3162 30.8721 26.2479C30.5724 26.1864 30.2574 26.463 30.1652 26.8702Z" fill="#FFA4A4"/>
    <path d="M30.6412 27.8306H30.5336C30.4187 27.8012 30.3147 27.7391 30.2342 27.6518C30.1538 27.5645 30.1003 27.4559 30.0803 27.3389C30.0732 27.3134 30.0765 27.2862 30.0895 27.2631C30.1025 27.2401 30.124 27.2231 30.1495 27.2159C30.1737 27.2127 30.1983 27.2177 30.2192 27.2303C30.2402 27.2429 30.2562 27.2622 30.2647 27.2851C30.2772 27.3671 30.3128 27.4438 30.3672 27.5063C30.4216 27.5689 30.4926 27.6148 30.5721 27.6385C30.6373 27.6577 30.7066 27.6577 30.7718 27.6385C30.7838 27.6323 30.7969 27.6287 30.8104 27.6281C30.8238 27.6275 30.8372 27.6298 30.8497 27.635C30.8621 27.6401 30.8733 27.6479 30.8824 27.6578C30.8915 27.6677 30.8984 27.6795 30.9025 27.6923C30.9087 27.7159 30.9069 27.7409 30.8971 27.7632C30.8873 27.7855 30.8702 27.8039 30.8487 27.8153C30.7814 27.8349 30.7107 27.8401 30.6412 27.8306Z" fill="#342939"/>
    <path d="M30.1496 27.3005C30.1269 27.299 30.1054 27.2898 30.0886 27.2745C30.0718 27.2591 30.0608 27.2385 30.0574 27.216C30.0421 27.1167 30.0421 27.0156 30.0574 26.9163C30.0591 26.9034 30.0636 26.8909 30.0705 26.8798C30.0775 26.8686 30.0867 26.8591 30.0976 26.8519C30.1085 26.8446 30.1209 26.8397 30.1338 26.8376C30.1467 26.8355 30.16 26.8361 30.1726 26.8395C30.1848 26.8414 30.1965 26.8456 30.207 26.8521C30.2175 26.8585 30.2266 26.867 30.2338 26.8771C30.2409 26.8871 30.246 26.8985 30.2487 26.9105C30.2514 26.9225 30.2517 26.935 30.2495 26.9471C30.2341 27.0283 30.2341 27.1117 30.2495 27.193C30.2517 27.2183 30.2442 27.2435 30.2285 27.2635C30.2128 27.2835 30.1901 27.2967 30.1649 27.3005H30.1496Z" fill="#342939"/>
    <path d="M30.1878 26.8856C30.111 26.8856 30.0803 26.8164 30.0956 26.7626C30.1331 26.5879 30.2304 26.4317 30.3706 26.3209C30.5108 26.2101 30.6853 26.1517 30.864 26.1556C30.9421 26.173 31.0155 26.2071 31.0791 26.2555C31.0889 26.2642 31.0968 26.2748 31.1022 26.2867C31.1076 26.2987 31.1104 26.3116 31.1104 26.3247C31.1104 26.3378 31.1076 26.3507 31.1022 26.3626C31.0968 26.3745 31.0889 26.3852 31.0791 26.3938C31.0706 26.4024 31.0604 26.4093 31.0492 26.4139C31.038 26.4186 31.026 26.421 31.0138 26.421C31.0017 26.421 30.9897 26.4186 30.9785 26.4139C30.9673 26.4093 30.9571 26.4024 30.9485 26.3938C30.9072 26.364 30.8601 26.3431 30.8102 26.3324C30.5874 26.2786 30.3338 26.486 30.2416 26.8011C30.2409 26.8186 30.2355 26.8357 30.2261 26.8506C30.2167 26.8654 30.2035 26.8775 30.1878 26.8856Z" fill="#342939"/>
    <path d="M30.7492 27.462C30.7272 27.4623 30.7058 27.4547 30.6889 27.4406C30.672 27.4265 30.6607 27.4068 30.657 27.3851L30.5264 26.6168C30.5323 26.5959 30.5449 26.5775 30.5623 26.5645C30.5796 26.5514 30.6007 26.5443 30.6224 26.5443C30.6441 26.5443 30.6652 26.5514 30.6826 26.5645C30.6999 26.5775 30.7125 26.5959 30.7185 26.6168L30.8414 27.3467C30.846 27.3721 30.8405 27.3983 30.8262 27.4198C30.8119 27.4413 30.7898 27.4564 30.7646 27.462H30.7492Z" fill="#342939"/>
    <path d="M30.695 27.0393C30.6751 27.0464 30.6534 27.0464 30.6336 27.0393C30.625 27.0308 30.6181 27.0206 30.6135 27.0094C30.6088 26.9982 30.6064 26.9862 30.6064 26.974C30.6064 26.9619 30.6088 26.9499 30.6135 26.9387C30.6181 26.9275 30.625 26.9173 30.6336 26.9087L30.8103 26.7166C30.8184 26.7042 30.8292 26.6938 30.8419 26.6861C30.8546 26.6783 30.8688 26.6736 30.8836 26.672C30.8984 26.6705 30.9133 26.6723 30.9273 26.6773C30.9412 26.6822 30.9539 26.6903 30.9644 26.7008C30.9749 26.7113 30.983 26.724 30.9879 26.7379C30.9929 26.7519 30.9947 26.7668 30.9932 26.7816C30.9916 26.7964 30.9869 26.8106 30.9791 26.8233C30.9714 26.836 30.961 26.8468 30.9486 26.8549L30.7719 27.0393C30.7597 27.0444 30.7466 27.047 30.7334 27.047C30.7203 27.047 30.7072 27.0444 30.695 27.0393Z" fill="#342939"/>
    <path d="M29.32 23.8737C29.2134 23.435 28.9752 23.0394 28.6374 22.74C28.2995 22.4406 27.8782 22.2517 27.4299 22.1987C26.3081 22.1987 25.6396 23.4357 25.5243 23.6585C25.2477 24.181 25.3937 24.2732 25.1632 26.5629C25.0019 28.0996 25.1171 28.2687 25.0403 28.8296C24.9026 29.6821 24.697 30.5223 24.4256 31.3421C23.9415 33.3398 24.2412 35.8293 24.8175 35.9522C25.5858 36.1059 27.8909 32.3871 27.499 29.037C27.393 28.2929 27.393 27.5375 27.499 26.7934C27.721 25.6273 28.3704 24.5861 29.32 23.8737Z" fill="#342939"/>
    <path d="M32.4625 49.1373H24.6022C24.2966 49.1373 24.0034 49.0158 23.7873 48.7997C23.5711 48.5836 23.4497 48.2904 23.4497 47.9847C23.4497 47.6791 23.5711 47.3859 23.7873 47.1698C24.0034 46.9536 24.2966 46.8322 24.6022 46.8322H32.4472C32.7528 46.8322 33.046 46.9536 33.2621 47.1698C33.4783 47.3859 33.5997 47.6791 33.5997 47.9847C33.5997 48.2904 33.4783 48.5836 33.2621 48.7997C33.046 49.0158 32.7528 49.1373 32.4472 49.1373H32.4625Z" fill="#342939"/>
    <path d="M29.1272 48.9221H27.9517V58.0579H29.1272V48.9221Z" fill="#342939"/>
    <path d="M24.1569 59.7098H24.1108C24.0162 59.6982 23.93 59.6498 23.871 59.5749C23.812 59.5001 23.785 59.4049 23.7958 59.3102C23.8569 58.8115 24.0304 58.3332 24.3032 57.9112C24.5761 57.4893 24.9412 57.1349 25.3709 56.8746C25.8585 56.6162 26.4019 56.4811 26.9537 56.4811C27.5055 56.4811 28.049 56.6162 28.5366 56.8746C28.6201 56.9224 28.6812 57.0016 28.7064 57.0945C28.7316 57.1874 28.7189 57.2866 28.671 57.3701C28.6231 57.4537 28.544 57.5148 28.4511 57.54C28.3581 57.5652 28.259 57.5525 28.1754 57.5046C27.7978 57.3092 27.3789 57.2073 26.9537 57.2073C26.5286 57.2073 26.1097 57.3092 25.7321 57.5046C25.3973 57.7041 25.1126 57.9773 24.8995 58.3036C24.6865 58.6298 24.5507 59.0004 24.5027 59.3871C24.492 59.4729 24.4516 59.5522 24.3884 59.6112C24.3252 59.6701 24.2432 59.705 24.1569 59.7098Z" fill="#342939"/>
    <path d="M32.5853 59.7097C32.4972 59.7083 32.4126 59.6747 32.3475 59.6153C32.2824 59.5558 32.2413 59.4746 32.2319 59.387C32.1808 58.9993 32.0431 58.628 31.829 58.3008C31.6148 57.9736 31.3297 57.6988 30.9949 57.4968C30.6173 57.3014 30.1983 57.1995 29.7732 57.1995C29.348 57.1995 28.9291 57.3014 28.5515 57.4968C28.5101 57.5205 28.4645 57.5359 28.4172 57.5419C28.3699 57.548 28.3219 57.5447 28.2758 57.5322C28.2298 57.5197 28.1867 57.4983 28.149 57.4692C28.1112 57.44 28.0796 57.4037 28.0559 57.3624C28.0322 57.321 28.0168 57.2754 28.0108 57.2281C28.0047 57.1808 28.008 57.1327 28.0205 57.0867C28.033 57.0407 28.0544 56.9976 28.0835 56.9598C28.1127 56.9221 28.149 56.8905 28.1904 56.8668C28.6781 56.6091 29.2215 56.4744 29.7732 56.4744C30.3248 56.4744 30.8682 56.6091 31.356 56.8668C31.7886 57.1254 32.1567 57.4791 32.4323 57.9011C32.7078 58.3231 32.8837 58.8024 32.9465 59.3025C32.9573 59.3971 32.9303 59.4923 32.8713 59.5671C32.8123 59.642 32.7261 59.6905 32.6314 59.702L32.5853 59.7097Z" fill="#342939"/>
    <path d="M25.2628 58.8569C25.2628 59.0863 25.1948 59.3107 25.0673 59.5015C24.9398 59.6922 24.7586 59.841 24.5466 59.9288C24.3346 60.0166 24.1013 60.0396 23.8763 59.9948C23.6512 59.95 23.4445 59.8395 23.2822 59.6773C23.1199 59.515 23.0094 59.3083 22.9647 59.0832C22.9199 58.8582 22.9429 58.6249 23.0307 58.4129C23.1185 58.2009 23.2672 58.0197 23.458 57.8922C23.6488 57.7647 23.8731 57.6967 24.1026 57.6967C24.4103 57.6967 24.7054 57.8189 24.923 58.0365C25.1406 58.2541 25.2628 58.5492 25.2628 58.8569Z" fill="#342939"/>
    <path d="M33.4767 58.8569C33.4766 59.0851 33.4093 59.3081 33.2831 59.4982C33.1569 59.6883 32.9775 59.8369 32.7673 59.9256C32.557 60.0142 32.3254 60.0389 32.1012 59.9966C31.877 59.9542 31.6703 59.8468 31.5069 59.6876C31.3434 59.5284 31.2306 59.3245 31.1824 59.1015C31.1342 58.8785 31.1529 58.6463 31.236 58.4338C31.3191 58.2213 31.463 58.0381 31.6497 57.907C31.8365 57.7759 32.0577 57.7027 32.2857 57.6967C32.4407 57.6926 32.5948 57.7196 32.7392 57.776C32.8835 57.8325 33.0151 57.9173 33.1261 58.0255C33.2371 58.1336 33.3253 58.2629 33.3855 58.4057C33.4457 58.5485 33.4767 58.7019 33.4767 58.8569Z" fill="#342939"/>
    <path d="M29.6964 58.8877C29.6979 59.1175 29.6312 59.3425 29.5046 59.5343C29.378 59.7261 29.1974 59.876 28.9855 59.965C28.7737 60.054 28.5401 60.0781 28.3146 60.0342C28.089 59.9903 27.8816 59.8804 27.7185 59.7185C27.5555 59.5565 27.4442 59.3498 27.3988 59.1245C27.3534 58.8993 27.376 58.6656 27.4636 58.4532C27.5511 58.2407 27.6998 58.059 27.8908 57.9312C28.0818 57.8034 28.3064 57.7351 28.5362 57.7351C28.6882 57.7341 28.8389 57.7632 28.9796 57.8206C29.1203 57.8781 29.2483 57.9629 29.3561 58.07C29.4639 58.1771 29.5495 58.3045 29.6079 58.4448C29.6663 58.5852 29.6964 58.7357 29.6964 58.8877Z" fill="#342939"/>
    <path d="M57.1651 49.0911H49.3278C49.0222 49.0911 48.729 48.9697 48.5129 48.7536C48.2967 48.5374 48.1753 48.2443 48.1753 47.9386C48.1753 47.6329 48.2967 47.3398 48.5129 47.1236C48.729 46.9075 49.0222 46.7861 49.3278 46.7861H57.1651C57.4707 46.7861 57.7639 46.9075 57.98 47.1236C58.1962 47.3398 58.3176 47.6329 58.3176 47.9386C58.3176 48.2443 58.1962 48.5374 57.98 48.7536C57.7639 48.9697 57.4707 49.0911 57.1651 49.0911Z" fill="#342939"/>
    <path d="M53.8304 48.876H52.6548V58.0117H53.8304V48.876Z" fill="#342939"/>
    <path d="M48.8587 59.6637C48.7621 59.6521 48.6739 59.6028 48.6135 59.5266C48.553 59.4503 48.5252 59.3532 48.536 59.2565C48.5933 58.7293 48.7814 58.2248 49.0833 57.7888C49.3853 57.3529 49.7914 56.9993 50.2648 56.7603C50.7382 56.5214 51.2638 56.4045 51.7939 56.4204C52.3239 56.4364 52.8416 56.5845 53.2998 56.8515C53.3826 56.9011 53.4426 56.9812 53.4671 57.0746C53.4915 57.1679 53.4783 57.2672 53.4304 57.3509C53.3823 57.4332 53.3036 57.4931 53.2114 57.5176C53.1193 57.542 53.0213 57.5291 52.9387 57.4816C52.5611 57.2862 52.1421 57.1842 51.717 57.1842C51.2918 57.1842 50.8729 57.2862 50.4953 57.4816C50.1512 57.6727 49.855 57.9393 49.6287 58.2613C49.4025 58.5834 49.2522 58.9525 49.1891 59.341C49.1804 59.4249 49.1426 59.5031 49.0822 59.5621C49.0219 59.621 48.9428 59.657 48.8587 59.6637Z" fill="#342939"/>
    <path d="M57.2954 59.6636C57.2064 59.6625 57.1208 59.6292 57.0544 59.5699C56.988 59.5105 56.9454 59.4292 56.9342 59.3409C56.8845 58.9548 56.7481 58.5848 56.5352 58.2588C56.3223 57.9328 56.0385 57.6592 55.7049 57.4584C55.3275 57.2625 54.9084 57.1601 54.4832 57.1601C54.0579 57.1601 53.6389 57.2625 53.2615 57.4584C53.1777 57.5064 53.0785 57.5195 52.9851 57.4951C52.8917 57.4707 52.8117 57.4106 52.7621 57.3278C52.7148 57.2431 52.7028 57.1432 52.7287 57.0497C52.7546 56.9563 52.8163 56.8767 52.9004 56.8284C53.3866 56.5701 53.9287 56.435 54.4793 56.435C55.0299 56.435 55.5721 56.5701 56.0583 56.8284C56.4899 57.0874 56.8568 57.4414 57.131 57.8634C57.4053 58.2855 57.5797 58.7645 57.6411 59.2641C57.6498 59.3596 57.621 59.4547 57.5607 59.5293C57.5005 59.6038 57.4136 59.652 57.3184 59.6636H57.2954Z" fill="#342939"/>
    <path d="M49.9576 58.8107C49.9576 59.0402 49.8896 59.2645 49.7621 59.4553C49.6346 59.6461 49.4534 59.7948 49.2414 59.8826C49.0294 59.9704 48.7961 59.9934 48.5711 59.9487C48.346 59.9039 48.1393 59.7934 47.977 59.6311C47.8148 59.4689 47.7043 59.2621 47.6595 59.0371C47.6147 58.812 47.6377 58.5787 47.7255 58.3667C47.8133 58.1547 47.962 57.9735 48.1528 57.846C48.3436 57.7186 48.568 57.6505 48.7974 57.6505C49.1045 57.6525 49.3985 57.7754 49.6156 57.9926C49.8327 58.2097 49.9556 58.5036 49.9576 58.8107Z" fill="#342939"/>
    <path d="M58.1866 58.8107C58.1866 59.0402 58.1186 59.2645 57.9911 59.4553C57.8636 59.6461 57.6824 59.7948 57.4704 59.8826C57.2584 59.9704 57.0251 59.9934 56.8001 59.9487C56.575 59.9039 56.3683 59.7934 56.206 59.6311C56.0438 59.4689 55.9333 59.2621 55.8885 59.0371C55.8437 58.812 55.8667 58.5787 55.9545 58.3667C56.0423 58.1547 56.191 57.9735 56.3818 57.846C56.5726 57.7186 56.797 57.6505 57.0264 57.6505C57.3341 57.6505 57.6292 57.7727 57.8468 57.9903C58.0644 58.2079 58.1866 58.503 58.1866 58.8107Z" fill="#342939"/>
    <path d="M54.4063 58.8415C54.4079 59.0713 54.3411 59.2964 54.2146 59.4882C54.088 59.68 53.9073 59.8299 53.6955 59.9189C53.4836 60.0079 53.2501 60.032 53.0245 59.9881C52.799 59.9442 52.5915 59.8343 52.4285 59.6723C52.2655 59.5104 52.1542 59.3037 52.1088 59.0784C52.0634 58.8531 52.0859 58.6195 52.1735 58.407C52.2611 58.1946 52.4098 58.0129 52.6008 57.8851C52.7917 57.7572 53.0163 57.689 53.2461 57.689C53.3981 57.688 53.5488 57.717 53.6895 57.7745C53.8303 57.832 53.9582 57.9167 54.0661 58.0238C54.1739 58.131 54.2595 58.2583 54.3179 58.3987C54.3763 58.539 54.4063 58.6895 54.4063 58.8415Z" fill="#342939"/>
    <path d="M34.645 47.9847C34.6329 47.9903 34.6198 47.9931 34.6066 47.9931C34.5933 47.9931 34.5802 47.9903 34.5681 47.9847C34.5519 47.9654 34.543 47.9409 34.543 47.9156C34.543 47.8903 34.5519 47.8658 34.5681 47.8464L35.3365 47.2702C35.3451 47.2616 35.3552 47.2547 35.3665 47.2501C35.3777 47.2454 35.3897 47.243 35.4018 47.243C35.4139 47.243 35.426 47.2454 35.4372 47.2501C35.4484 47.2547 35.4585 47.2616 35.4671 47.2702C35.4834 47.2895 35.4923 47.314 35.4923 47.3393C35.4923 47.3646 35.4834 47.3891 35.4671 47.4085L34.6988 47.9847C34.6814 47.9912 34.6623 47.9912 34.645 47.9847Z" fill="#342939"/>
    <path d="M46.9382 39.4482H32.0552V60.87H46.9382V39.4482Z" fill="#28477D"/>
    <path d="M48.7671 38.3342H30.2344V39.4483H48.7671V38.3342Z" fill="#28477D"/>
    <path d="M45.9467 32.9326H33.5762V38.3342H45.9467V32.9326Z" fill="white"/>
    <path d="M41.2904 27.8768H38.9546V32.825H41.2904V27.8768Z" fill="white"/>
    <path d="M40.2151 30.2895H40.2689C40.5577 30.2844 40.8446 30.3368 41.1128 30.4438C41.3811 30.5508 41.6254 30.7102 41.8314 30.9126C42.0374 31.115 42.201 31.3565 42.3127 31.6228C42.4243 31.8892 42.4818 32.1751 42.4818 32.4639V32.9172H38.0791V32.4639C38.079 31.8938 38.3028 31.3465 38.7023 30.9398C39.1019 30.5331 39.6451 30.2995 40.2151 30.2895Z" fill="white"/>
    <path d="M44.449 24.4268H35.7974V28.4837H44.449V24.4268Z" fill="white"/>
    <path d="M45.1788 24.4268H33.4307V25.1568H45.1788V24.4268Z" fill="white"/>
    <path d="M33.6225 24.3501H33.1846V31.0963H33.6225V24.3501Z" fill="white"/>
    <path d="M35.7969 26.2172H34.5444V27.7155H35.7969V26.2172Z" fill="#342939"/>
    <path d="M34.591 28.1072C34.5702 28.1083 34.5494 28.1051 34.5299 28.0978C34.5103 28.0906 34.4925 28.0794 34.4774 28.065C34.4623 28.0507 34.4503 28.0334 34.4421 28.0142C34.4339 27.995 34.4297 27.9744 34.4297 27.9536V26.0557C34.4297 26.015 34.4459 25.9759 34.4747 25.9471C34.5035 25.9182 34.5426 25.902 34.5834 25.902C34.6042 25.901 34.625 25.9042 34.6445 25.9115C34.6641 25.9187 34.6819 25.9299 34.697 25.9442C34.7121 25.9586 34.7241 25.9759 34.7323 25.9951C34.7405 26.0142 34.7447 26.0349 34.7447 26.0557V27.9536C34.7447 27.9943 34.7285 28.0334 34.6997 28.0622C34.6709 28.091 34.6318 28.1072 34.591 28.1072Z" fill="#342939"/>
    <path d="M44.4561 27.2007H45.7085V25.7024H44.4561V27.2007Z" fill="#342939"/>
    <path d="M45.7084 27.5848C45.7292 27.5858 45.75 27.5826 45.7695 27.5754C45.7891 27.5681 45.8069 27.5569 45.822 27.5426C45.8371 27.5282 45.8491 27.5109 45.8573 27.4917C45.8655 27.4726 45.8697 27.4519 45.8697 27.4311V25.5333C45.8697 25.4925 45.8535 25.4534 45.8247 25.4246C45.7959 25.3958 45.7568 25.3796 45.716 25.3796C45.6952 25.3785 45.6744 25.3817 45.6549 25.389C45.6353 25.3963 45.6175 25.4074 45.6024 25.4218C45.5873 25.4362 45.5753 25.4535 45.5671 25.4726C45.5589 25.4918 45.5547 25.5124 45.5547 25.5333V27.4311C45.5547 27.4513 45.5587 27.4713 45.5664 27.4899C45.5741 27.5085 45.5854 27.5255 45.5997 27.5398C45.614 27.554 45.6309 27.5653 45.6495 27.5731C45.6682 27.5808 45.6882 27.5848 45.7084 27.5848Z" fill="#342939"/>
    <path d="M46.7387 25.9328H44.9868V26.9624H46.7387V25.9328Z" fill="#342939"/>
    <path d="M44.4409 34.3079C44.4424 34.5529 44.3711 34.7928 44.2361 34.9973C44.1011 35.2017 43.9085 35.3615 43.6826 35.4563C43.4567 35.5511 43.2077 35.5767 42.9672 35.5298C42.7268 35.483 42.5056 35.3657 42.3318 35.1931C42.1581 35.0204 42.0395 34.8 41.9911 34.5598C41.9428 34.3196 41.9668 34.0705 42.0602 33.844C42.1536 33.6175 42.3122 33.4238 42.5158 33.2876C42.7194 33.1513 42.9588 33.0786 43.2038 33.0786C43.5306 33.0785 43.8441 33.2078 44.0758 33.4382C44.3076 33.6685 44.4389 33.9812 44.4409 34.3079Z" fill="#342939"/>
    <path d="M41.2673 28.5761H38.9622C38.9495 28.5771 38.9366 28.5755 38.9245 28.5714C38.9125 28.5672 38.9014 28.5606 38.892 28.5519C38.8826 28.5433 38.8751 28.5327 38.87 28.521C38.8649 28.5093 38.8623 28.4966 38.8623 28.4839C38.8623 28.4707 38.8649 28.4578 38.8699 28.4456C38.8749 28.4335 38.8823 28.4225 38.8916 28.4132C38.9008 28.404 38.9118 28.3966 38.924 28.3916C38.9361 28.3866 38.9491 28.384 38.9622 28.384H41.2673C41.2924 28.3859 41.3159 28.3973 41.333 28.4158C41.3501 28.4343 41.3595 28.4586 41.3595 28.4839C41.3595 28.5083 41.3498 28.5318 41.3325 28.5491C41.3152 28.5663 41.2917 28.5761 41.2673 28.5761Z" fill="#342939"/>
    <path d="M44.2102 25.2259H35.8582C35.8317 25.2259 35.8063 25.2154 35.7876 25.1967C35.7688 25.1779 35.7583 25.1525 35.7583 25.126C35.7583 25.1132 35.7609 25.1006 35.766 25.0889C35.7711 25.0772 35.7786 25.0666 35.788 25.058C35.7974 25.0493 35.8084 25.0427 35.8205 25.0385C35.8326 25.0344 35.8454 25.0328 35.8582 25.0338H44.2102C44.2347 25.0338 44.2581 25.0435 44.2754 25.0608C44.2927 25.0781 44.3024 25.1016 44.3024 25.126C44.3035 25.1388 44.3019 25.1516 44.2977 25.1637C44.2936 25.1758 44.287 25.1869 44.2783 25.1963C44.2696 25.2056 44.2591 25.2131 44.2474 25.2182C44.2357 25.2233 44.223 25.226 44.2102 25.2259Z" fill="#342939"/>
    <path d="M33.6223 25.2259C33.6095 25.2259 33.5969 25.2233 33.5852 25.2182C33.5734 25.2131 33.5629 25.2056 33.5542 25.1962C33.5456 25.1868 33.5389 25.1757 33.5348 25.1636C33.5306 25.1515 33.529 25.1387 33.5301 25.126V24.4806C33.529 24.4678 33.5306 24.455 33.5348 24.4429C33.5389 24.4308 33.5456 24.4197 33.5542 24.4103C33.5629 24.4009 33.5734 24.3935 33.5852 24.3884C33.5969 24.3832 33.6095 24.3806 33.6223 24.3807C33.6488 24.3807 33.6742 24.3912 33.6929 24.4099C33.7117 24.4287 33.7222 24.4541 33.7222 24.4806V25.126C33.7222 25.1525 33.7117 25.1779 33.6929 25.1966C33.6742 25.2153 33.6488 25.2259 33.6223 25.2259Z" fill="#342939"/>
    <path d="M34.0296 37.5197C34.0031 37.5197 33.9777 37.5091 33.9589 37.4904C33.9402 37.4717 33.9297 37.4463 33.9297 37.4198V32.679C33.9296 32.6662 33.9323 32.6536 33.9374 32.6419C33.9425 32.6301 33.95 32.6196 33.9594 32.6109C33.9687 32.6023 33.9798 32.5956 33.9919 32.5915C34.004 32.5873 34.0168 32.5857 34.0296 32.5868C34.054 32.5868 34.0775 32.5965 34.0948 32.6138C34.1121 32.6311 34.1218 32.6546 34.1218 32.679V37.389C34.1266 37.4038 34.1278 37.4195 34.1255 37.4348C34.1232 37.4501 34.1173 37.4647 34.1084 37.4774C34.0994 37.4901 34.0876 37.5005 34.074 37.5078C34.0603 37.5152 34.0451 37.5192 34.0296 37.5197Z" fill="#342939"/>
    <path d="M37.4646 27.1007C37.3127 27.1007 37.1641 27.0556 37.0378 26.9712C36.9114 26.8868 36.8129 26.7668 36.7548 26.6264C36.6966 26.486 36.6814 26.3315 36.7111 26.1824C36.7407 26.0334 36.8139 25.8965 36.9213 25.789C37.0288 25.6816 37.1657 25.6084 37.3147 25.5787C37.4638 25.5491 37.6183 25.5643 37.7587 25.6225C37.8991 25.6806 38.0191 25.7791 38.1035 25.9054C38.1879 26.0318 38.233 26.1804 38.233 26.3323C38.233 26.5361 38.1521 26.7315 38.008 26.8756C37.8639 27.0197 37.6684 27.1007 37.4646 27.1007ZM37.4646 25.8022C37.3549 25.8006 37.2472 25.8318 37.1552 25.8916C37.0632 25.9515 36.9911 26.0373 36.9481 26.1383C36.905 26.2392 36.893 26.3507 36.9135 26.4585C36.9339 26.5663 36.986 26.6656 37.063 26.7438C37.1401 26.8219 37.2387 26.8754 37.3462 26.8973C37.4537 26.9193 37.5653 26.9088 37.6669 26.8672C37.7684 26.8255 37.8552 26.7546 37.9164 26.6635C37.9775 26.5724 38.0102 26.4651 38.0102 26.3554C38.0102 26.21 37.953 26.0704 37.8509 25.9669C37.7488 25.8634 37.61 25.8042 37.4646 25.8022Z" fill="#342939"/>
    <path d="M40.2454 32.5792C40.0934 32.5792 39.9449 32.5341 39.8185 32.4497C39.6922 32.3653 39.5937 32.2453 39.5355 32.1049C39.4774 31.9645 39.4622 31.81 39.4918 31.6609C39.5215 31.5119 39.5946 31.375 39.7021 31.2675C39.8096 31.1601 39.9465 31.0869 40.0955 31.0572C40.2446 31.0276 40.3991 31.0428 40.5395 31.101C40.6798 31.1591 40.7998 31.2576 40.8843 31.384C40.9687 31.5103 41.0138 31.6589 41.0138 31.8108C41.0138 32.0146 40.9328 32.2101 40.7887 32.3541C40.6446 32.4982 40.4492 32.5792 40.2454 32.5792ZM40.2454 31.2807C40.136 31.2807 40.029 31.3131 39.9381 31.3739C39.8471 31.4347 39.7762 31.5211 39.7343 31.6222C39.6924 31.7233 39.6815 31.8345 39.7028 31.9418C39.7242 32.0491 39.7769 32.1477 39.8542 32.2251C39.9316 32.3024 40.0302 32.3551 40.1375 32.3765C40.2448 32.3978 40.356 32.3869 40.4571 32.345C40.5582 32.3031 40.6446 32.2322 40.7054 32.1412C40.7662 32.0503 40.7986 31.9433 40.7986 31.8339C40.7986 31.6872 40.7403 31.5465 40.6366 31.4427C40.5328 31.339 40.3921 31.2807 40.2454 31.2807Z" fill="#342939"/>
    <path d="M34.053 30.7196H32.7314V38.334H34.053V30.7196Z" fill="#342939"/>
    <path d="M49.2279 36.5362L48.7285 36.7743C48.3596 36.9511 47.9601 37.1508 47.4837 37.3583C46.846 37.6503 46.1161 37.9653 45.3246 38.288L44.3027 36.1827L47.0458 34.3463L47.2225 34.2234C47.914 33.7701 48.5978 33.3091 49.2817 32.848C49.6414 32.4001 50.0945 32.0361 50.6094 31.7813C51.1243 31.5265 51.6886 31.3871 52.2629 31.3728C53.0193 31.3872 53.7535 31.6311 54.3682 32.072C54.3885 32.2199 54.3885 32.3698 54.3682 32.5177C54.3221 33.4397 53.4692 34.4462 49.2279 36.5362Z" fill="#FFA4A4"/>
    <path d="M48.7282 36.7514C48.3594 36.9281 47.9599 37.1279 47.4835 37.3354C47.2297 36.857 47.0656 36.3361 46.9994 35.7986C46.9296 35.2874 46.9451 34.7681 47.0456 34.2619C47.0601 34.1559 47.0807 34.0507 47.107 33.9469L47.2223 34.139L48.7282 36.7514Z" fill="#E57777"/>
    <path d="M51.3564 31.0501L46.8845 33.432C46.8528 34.1195 46.9681 34.8057 47.2226 35.4451C47.5088 36.1723 47.9615 36.8223 48.5442 37.343L54.5297 33.4167C54.6048 33.1287 54.6211 32.8285 54.5775 32.5341C54.5339 32.2397 54.4314 31.9571 54.2761 31.7032C53.9365 31.2783 53.462 30.9819 52.9311 30.8632C52.4002 30.7444 51.8447 30.8104 51.3564 31.0501Z" fill="white"/>
    <path d="M40.2075 31.0732L39.0703 32.1413C39.5825 32.7713 40.0948 33.4244 40.607 34.1006C41.5752 35.3453 42.4818 36.5747 43.3193 37.7733C43.5545 37.9453 43.8133 38.0825 44.0877 38.1805C44.4197 38.3308 44.7904 38.3738 45.148 38.3035L45.3478 38.2881C45.7473 37.7733 46.1161 37.2508 46.5387 36.7514C46.1516 36.259 45.7251 35.7991 45.2633 35.376C43.5729 33.8393 42.3051 33.6242 40.9221 32.0183C40.6628 31.7198 40.424 31.4041 40.2075 31.0732Z" fill="#FFA4A4"/>
    <path d="M41.2062 32.825L41.3598 30.858L40.1305 30.4585L38.4785 30.9502V33.0325L40.676 33.3859L41.2062 32.825Z" fill="#FFA4A4"/>
    <path d="M29.9809 32.3793C29.4175 34.7305 28.8591 37.074 28.3059 39.4098L26.5464 38.5031C26.5824 37.5792 26.6722 36.6582 26.8153 35.7447C26.8845 35.3145 26.9613 34.8688 27.0689 34.4078C27.115 34.185 27.1611 33.9622 27.2225 33.7393C27.3993 33.0248 27.6067 32.3563 27.8219 31.7339C28.2906 30.6352 29.2741 30.2356 29.7197 30.4815C30.1653 30.7274 30.296 31.5111 29.9809 32.3793Z" fill="#FFA4A4"/>
    <path d="M29.105 35.445C28.8433 35.5741 28.5674 35.6721 28.2829 35.737C27.7967 35.8415 27.2938 35.8415 26.8076 35.737C26.8768 35.3067 26.9536 34.8611 27.0612 34.4001L29.105 35.445Z" fill="#E57777"/>
    <path d="M27.7368 31.4496L26.5688 34.7919C27.0686 35.1794 27.6532 35.4428 28.2746 35.5603C28.7143 35.6375 29.1641 35.6375 29.6039 35.5603C29.9176 34.3272 30.1081 33.0661 30.1724 31.7953V31.3497C30.178 31.1932 30.1496 31.0373 30.0892 30.8928C30.0287 30.7483 29.9377 30.6187 29.8223 30.5128C29.7069 30.4069 29.5699 30.3273 29.4208 30.2794C29.2716 30.2316 29.1139 30.2166 28.9584 30.2356C28.6589 30.2975 28.3839 30.4452 28.167 30.6608C27.95 30.8764 27.8005 31.1505 27.7368 31.4496Z" fill="#4A485D"/>
    <path d="M26.5688 34.8842C26.4843 34.8842 26.4612 34.8074 26.4766 34.7613L27.5523 31.6878C27.5557 31.6753 27.5617 31.6637 27.57 31.6536C27.5782 31.6436 27.5884 31.6354 27.6 31.6296C27.6116 31.6238 27.6243 31.6205 27.6373 31.62C27.6503 31.6194 27.6632 31.6216 27.6752 31.6264C27.6871 31.6306 27.6979 31.6372 27.7071 31.6458C27.7163 31.6543 27.7236 31.6647 27.7287 31.6762C27.7337 31.6877 27.7363 31.7002 27.7364 31.7127C27.7365 31.7253 27.734 31.7377 27.729 31.7493L26.661 34.8227C26.6534 34.8409 26.6406 34.8565 26.6242 34.8674C26.6078 34.8784 26.5885 34.8842 26.5688 34.8842Z" fill="#342939"/>
    <path d="M29.6042 35.6449C29.5903 35.644 29.5768 35.6402 29.5645 35.6338C29.5521 35.6274 29.5413 35.6185 29.5326 35.6076C29.524 35.5968 29.5176 35.5842 29.5141 35.5708C29.5105 35.5574 29.5098 35.5434 29.512 35.5296L30.0806 32.3179C30.0861 32.2921 30.1009 32.2693 30.1221 32.2537C30.1434 32.2382 30.1696 32.2309 30.1958 32.2334C30.221 32.2389 30.2431 32.254 30.2574 32.2755C30.2718 32.297 30.2772 32.3232 30.2726 32.3486L29.6964 35.568C29.6927 35.5898 29.6814 35.6094 29.6645 35.6235C29.6476 35.6376 29.6262 35.6452 29.6042 35.6449Z" fill="#342939"/>
    <path d="M32.9771 32.4792C33.1615 32.6482 33.3536 32.8096 33.5457 32.9709C32.6571 35.0053 31.3958 36.8556 29.8268 38.4263C29.3812 38.8642 28.9279 39.2638 28.4899 39.6172C28.2521 39.7792 27.9677 39.8587 27.6804 39.8434C27.3931 39.8282 27.1187 39.719 26.8994 39.5327C26.771 39.3956 26.6726 39.2332 26.6104 39.0559C26.5482 38.8787 26.5237 38.6904 26.5383 38.5031C27.1145 37.8807 27.6217 37.412 27.9597 37.1047C29.8115 35.4604 30.9717 34.9917 32.3394 33.3397C32.5717 33.0681 32.7848 32.7805 32.9771 32.4792Z" fill="#FFA4A4"/>
    <path d="M32.5162 33.9391L32.2856 32.0797L32.6468 31.5572L34.1835 31.1807C34.2747 31.2344 34.3471 31.3149 34.3909 31.4112C34.4413 31.5246 34.4547 31.6509 34.4294 31.7724C34.3448 32.3409 34.268 32.9095 34.1835 33.4781L32.5162 33.9391Z" fill="#FFA4A4"/>
    <path d="M45.9473 39.5097H32.2859C32.2594 39.5097 32.234 39.4992 32.2153 39.4805C32.1966 39.4617 32.186 39.4363 32.186 39.4098C32.186 39.3971 32.1886 39.3844 32.1937 39.3727C32.1988 39.361 32.2063 39.3504 32.2157 39.3418C32.2251 39.3331 32.2362 39.3265 32.2483 39.3223C32.2604 39.3182 32.2732 39.3166 32.2859 39.3176H45.9319C45.9447 39.3166 45.9575 39.3182 45.9696 39.3223C45.9817 39.3265 45.9928 39.3331 46.0021 39.3418C46.0115 39.3504 46.019 39.361 46.0241 39.3727C46.0292 39.3844 46.0319 39.3971 46.0318 39.4098C46.0321 39.4339 46.0237 39.4572 46.0082 39.4756C45.9927 39.4939 45.971 39.506 45.9473 39.5097Z" fill="#342939"/>
    <path d="M49.5047 36.6283C49.4876 36.6302 49.4703 36.6268 49.4552 36.6185C49.4401 36.6103 49.4279 36.5976 49.4202 36.5822C49.4116 36.5737 49.4048 36.5635 49.4001 36.5523C49.3955 36.5411 49.3931 36.5291 49.3931 36.5169C49.3931 36.5048 49.3955 36.4928 49.4001 36.4816C49.4048 36.4704 49.4116 36.4602 49.4202 36.4516L53.4541 34.1466C53.4722 34.1309 53.4954 34.1223 53.5194 34.1223C53.5433 34.1223 53.5665 34.1309 53.5847 34.1466C53.6004 34.1647 53.609 34.1879 53.609 34.2119C53.609 34.2359 53.6004 34.259 53.5847 34.2772L49.5585 36.5822L49.5047 36.6283Z" fill="#342939"/>
    <path d="M47.2148 33.3551C47.1989 33.3554 47.1834 33.3512 47.1698 33.343C47.1562 33.3349 47.1452 33.3231 47.138 33.309C47.1294 33.3004 47.1225 33.2902 47.1179 33.279C47.1132 33.2678 47.1108 33.2558 47.1108 33.2437C47.1108 33.2315 47.1132 33.2195 47.1179 33.2083C47.1225 33.1971 47.1294 33.1869 47.138 33.1783L50.2114 31.342C50.2301 31.3276 50.2531 31.3199 50.2767 31.3199C50.3003 31.3199 50.3232 31.3276 50.342 31.342C50.3598 31.3606 50.3698 31.3854 50.3698 31.4111C50.3698 31.4369 50.3598 31.4617 50.342 31.4803L47.2686 33.309L47.2148 33.3551Z" fill="#342939"/>
  </g>
  <path d="M79 39.5C79 61.3152 61.3152 79 39.5 79C17.6848 79 0 61.3152 0 39.5C0 17.6848 17.6848 0 39.5 0C61.3152 0 79 17.6848 79 39.5ZM3.28568 39.5C3.28568 59.5006 19.4994 75.7143 39.5 75.7143C59.5006 75.7143 75.7143 59.5006 75.7143 39.5C75.7143 19.4994 59.5006 3.28568 39.5 3.28568C19.4994 3.28568 3.28568 19.4994 3.28568 39.5Z" fill="#9D9D9D"/>
  <path d="M79 39.5C79 47.7543 76.4141 55.8012 71.6057 62.5103C66.7972 69.2194 60.0078 74.2536 52.1912 76.9057C44.3745 79.5577 35.9234 79.6944 28.0251 77.2965C20.1268 74.8986 13.1781 70.0866 8.15521 63.5365C3.13231 56.9864 0.287588 49.0273 0.0206591 40.7774C-0.246269 32.5274 2.07801 24.4011 6.66699 17.54C11.256 10.6789 17.8791 5.42775 25.6059 2.5243C33.3326 -0.379156 41.7749 -0.789059 49.7466 1.35217L48.8943 4.52538C41.5857 2.56226 33.8457 2.93807 26.7616 5.6C19.6775 8.26194 13.6054 13.0763 9.3981 19.3666C5.19084 25.657 3.0599 33.1074 3.30462 40.6711C3.54935 48.2348 6.15744 55.5319 10.7625 61.5371C15.3676 67.5424 21.7383 71.9541 28.9796 74.1525C36.2209 76.351 43.969 76.2257 51.1355 73.7942C58.3019 71.3627 64.5266 66.7473 68.9351 60.5963C73.3436 54.4452 75.7143 47.0677 75.7143 39.5H79Z" fill="white"/>
</svg>