<svg xmlns="http://www.w3.org/2000/svg" width="79" height="79" viewBox="0 0 79 79" fill="none">
  <circle cx="39.5" cy="39.5" r="28" fill="#D9CFFB" stroke="black"/>
  <mask id="mask0_1150_8278" style="mask-type:alpha" maskUnits="userSpaceOnUse" x="11" y="10" width="57" height="57">
    <circle cx="39.5004" cy="38.3715" r="27.7143" fill="#EFABAB" stroke="black"/>
  </mask>
  <g mask="url(#mask0_1150_8278)">
    <path d="M33.4801 31.8283C32.9685 33.5803 32.464 35.3322 31.9524 37.0771L29.8501 36.7758C29.9622 35.4163 30.1024 34.253 30.2355 33.328L30.2916 32.9005C30.3336 32.6342 30.3757 32.382 30.4177 32.1437C31.0134 28.5137 31.6161 27.5957 32.3729 27.2383C32.4975 27.182 32.6297 27.1442 32.7653 27.1262C32.9989 28.7052 33.2372 30.2726 33.4801 31.8283Z" fill="#FFA4A4"/>
    <path d="M32.7863 33.5173L30.2285 33.3281L30.2846 32.9006C30.3266 32.6343 30.3687 32.3821 30.4107 32.1438L32.7863 33.5173Z" fill="#E57777"/>
    <path d="M32.7934 26.979C32.534 26.9852 32.2788 27.0448 32.0435 27.1542C31.73 27.3088 31.4691 27.5526 31.2937 27.855C30.8032 29.4107 30.3196 30.9664 29.8291 32.5291L33.1087 33.7625L33.6553 31.3869L32.7934 26.979Z" fill="#42CC7D"/>
    <path d="M42.7158 31.5691C43.225 33.3117 43.7319 35.0613 44.2365 36.8179L46.3388 36.5166C46.2267 35.1501 46.0865 33.9938 45.9604 33.0688L45.8973 32.6343C45.8973 32.368 45.8202 32.1227 45.7782 31.8775C45.1825 28.2475 44.5729 27.3365 43.816 26.972C43.6895 26.921 43.558 26.8835 43.4236 26.8599C43.1923 28.4717 42.9611 30.0134 42.7158 31.5691Z" fill="#FFA4A4"/>
    <path d="M43.4097 33.2509L45.9675 33.0687L45.9044 32.6342C45.9044 32.3679 45.8273 32.1227 45.7853 31.8774L43.4097 33.2509Z" fill="#E57777"/>
    <path d="M43.3957 26.7198C43.7008 26.72 44.0004 26.8012 44.2638 26.9551C44.5273 27.109 44.7452 27.3301 44.8953 27.5958L46.3669 32.2699L43.0733 33.5033C42.8911 32.7184 42.7159 31.9265 42.5337 31.1347C42.828 29.663 43.1153 28.1914 43.3957 26.7198Z" fill="#42CC7D"/>
    <path d="M41.7069 37.841C41.9592 40.588 40.3053 42.7464 38.7286 42.9846C36.9136 43.2439 34.4329 41.1206 34.524 37.841C34.573 36.6216 34.6221 35.3953 34.6641 34.1759C34.573 33.9867 34.4749 33.7975 34.3838 33.6013C34.3838 33.6013 34.2577 33.342 34.1315 33.0687C33.9563 32.6622 33.1855 30.3847 32.2324 27.2312C32.8351 26.965 33.4658 26.6636 34.1245 26.3202C34.9584 25.8788 35.7153 25.4303 36.402 24.9888L37.8666 25.0308C38.4553 25.0308 39.0369 25.0799 39.6046 25.1219C40.4058 25.5751 41.237 25.9731 42.0923 26.3132C42.6868 26.5446 43.2925 26.7457 43.9073 26.9159C42.758 30.2516 42.2955 31.6111 42.1273 32.1156C42.1273 32.1857 42.0292 32.431 41.9101 32.7603C41.791 33.0897 41.6088 33.5522 41.4476 33.9236C41.5317 35.2271 41.6228 36.5375 41.7069 37.841Z" fill="#FFA4A4"/>
    <path d="M39.7309 26.8879H36.2271L36.6335 22.6342H39.4366C39.5137 24.0498 39.6258 25.4723 39.7309 26.8879Z" fill="#FFA4A4"/>
    <path d="M39.1211 23.0407C39.1211 23.9377 38.6306 24.6595 38.0349 24.6595C37.4393 24.6595 36.9487 23.9587 36.9487 23.0407C36.9487 22.1227 37.4323 21.4149 38.0349 21.4149C38.6376 21.4149 39.1211 22.1647 39.1211 23.0407Z" fill="#E57777"/>
    <path d="M37.9373 24.0918C37.3797 24.0918 36.845 23.8703 36.4507 23.4761C36.0565 23.0818 35.835 22.5471 35.835 21.9895V18.9832C36.4692 18.5547 37.2211 18.3342 37.9863 18.3525C38.6985 18.3687 39.3912 18.5875 39.9835 18.9832V22.0175C39.9765 22.5607 39.7595 23.08 39.378 23.4667C38.9966 23.8533 38.4803 24.0774 37.9373 24.0918Z" fill="#FFA4A4"/>
    <path d="M36.2758 21.541C36.292 21.6252 36.2895 21.7119 36.2683 21.7949C36.2471 21.878 36.2078 21.9553 36.1532 22.0214C36.0986 22.0875 36.0301 22.1407 35.9526 22.1773C35.8751 22.2138 35.7904 22.2327 35.7047 22.2327C35.619 22.2327 35.5343 22.2138 35.4568 22.1773C35.3793 22.1407 35.3107 22.0875 35.2562 22.0214C35.2016 21.9553 35.1623 21.878 35.1411 21.7949C35.1199 21.7119 35.1173 21.6252 35.1336 21.541C35.1173 21.4569 35.1199 21.3702 35.1411 21.2871C35.1623 21.2041 35.2016 21.1267 35.2562 21.0606C35.3107 20.9945 35.3793 20.9413 35.4568 20.9048C35.5343 20.8682 35.619 20.8493 35.7047 20.8493C35.7904 20.8493 35.8751 20.8682 35.9526 20.9048C36.0301 20.9413 36.0986 20.9945 36.1532 21.0606C36.2078 21.1267 36.2471 21.2041 36.2683 21.2871C36.2895 21.3702 36.292 21.4569 36.2758 21.541Z" fill="#FFA4A4"/>
    <path d="M40.7119 21.541C40.7281 21.6252 40.7255 21.7119 40.7043 21.7949C40.6831 21.878 40.6438 21.9553 40.5892 22.0214C40.5347 22.0875 40.4662 22.1407 40.3886 22.1773C40.3111 22.2138 40.2264 22.2327 40.1407 22.2327C40.055 22.2327 39.9704 22.2138 39.8928 22.1773C39.8153 22.1407 39.7468 22.0875 39.6922 22.0214C39.6376 21.9553 39.5983 21.878 39.5772 21.7949C39.556 21.7119 39.5534 21.6252 39.5696 21.541C39.5534 21.4569 39.556 21.3702 39.5772 21.2871C39.5983 21.2041 39.6376 21.1267 39.6922 21.0606C39.7468 20.9945 39.8153 20.9413 39.8928 20.9048C39.9704 20.8682 40.055 20.8493 40.1407 20.8493C40.2264 20.8493 40.3111 20.8682 40.3886 20.9048C40.4662 20.9413 40.5347 20.9945 40.5892 21.0606C40.6438 21.1267 40.6831 21.2041 40.7043 21.2871C40.7255 21.3702 40.7281 21.4569 40.7119 21.541Z" fill="#FFA4A4"/>
    <path d="M37.5093 26.979C37.5491 27.0877 37.6276 27.1778 37.7298 27.2321C37.8319 27.2864 37.9506 27.3011 38.0629 27.2733C38.1122 27.2448 38.155 27.2065 38.1888 27.1607C38.2226 27.1148 38.2465 27.0625 38.2591 27.007L37.5093 26.979Z" fill="#E57777"/>
    <path d="M34.356 26.9579C34.6147 27.1442 34.9115 27.271 35.2249 27.3294C35.6976 27.4197 36.1866 27.3635 36.6265 27.1682L34.356 26.9579Z" fill="#E57777"/>
    <path d="M39.1772 27.2032C39.4714 27.3289 39.7895 27.3887 40.1093 27.3784C40.5865 27.3692 41.0491 27.2125 41.4337 26.9299L39.1772 27.2032Z" fill="#E57777"/>
    <path d="M37.3622 21.3168C37.3452 21.3163 37.3287 21.3107 37.3149 21.3007C37.3012 21.2907 37.2908 21.2767 37.2851 21.2607C37.2527 21.1849 37.199 21.1201 37.1307 21.0741C37.0623 21.0281 36.9821 21.0029 36.8997 21.0014C36.8307 21.0044 36.7634 21.0229 36.7027 21.0557C36.642 21.0885 36.5895 21.1346 36.5493 21.1906C36.5433 21.2003 36.5355 21.2087 36.5262 21.2153C36.517 21.2219 36.5066 21.2267 36.4955 21.2293C36.4845 21.2319 36.473 21.2323 36.4618 21.2305C36.4506 21.2286 36.4398 21.2246 36.4301 21.2186C36.4205 21.2127 36.4121 21.2048 36.4055 21.1956C36.3988 21.1864 36.3941 21.1759 36.3915 21.1649C36.3889 21.1538 36.3885 21.1424 36.3903 21.1311C36.3921 21.1199 36.3961 21.1092 36.4021 21.0995C36.4597 21.0077 36.5415 20.9335 36.6385 20.8852C36.7356 20.8369 36.8441 20.8163 36.9521 20.8257C37.06 20.8351 37.1633 20.8742 37.2505 20.9386C37.3377 21.003 37.4055 21.0902 37.4463 21.1906C37.4535 21.2121 37.4524 21.2354 37.4434 21.2561C37.4343 21.2769 37.4178 21.2935 37.3972 21.3027L37.3622 21.3168Z" fill="#342939"/>
    <path d="M36.9419 21.3308C37.0618 21.3308 37.1591 21.2241 37.1591 21.0925C37.1591 20.9609 37.0618 20.8542 36.9419 20.8542C36.8219 20.8542 36.7246 20.9609 36.7246 21.0925C36.7246 21.2241 36.8219 21.3308 36.9419 21.3308Z" fill="#342939"/>
    <path d="M36.318 20.595C36.3844 20.5617 36.4552 20.5381 36.5283 20.5249C36.8631 20.4793 37.2026 20.4793 37.5374 20.5249C37.5754 20.4441 37.59 20.3543 37.5794 20.2656C37.5853 20.2238 37.5853 20.1813 37.5794 20.1395C37.3552 20.1395 37.1029 20.1395 36.8366 20.1395C36.6847 20.1388 36.5344 20.1699 36.3951 20.2306C36.3373 20.2518 36.2847 20.2852 36.241 20.3287C36.2105 20.3582 36.1929 20.3984 36.1919 20.4408C36.1919 20.4899 36.1919 20.5669 36.1919 20.602C36.2117 20.612 36.2338 20.6166 36.2559 20.6154C36.2781 20.6142 36.2995 20.6071 36.318 20.595Z" fill="#342939"/>
    <path d="M38.5605 21.3167H38.5255C38.514 21.3139 38.5033 21.3085 38.4942 21.3008C38.4852 21.2932 38.478 21.2836 38.4733 21.2728C38.4685 21.2619 38.4663 21.2502 38.4669 21.2383C38.4674 21.2265 38.4707 21.215 38.4764 21.2046C38.522 21.0986 38.5971 21.0079 38.6928 20.9433C38.7884 20.8787 38.9006 20.8429 39.016 20.8402C39.1157 20.8426 39.2135 20.8686 39.3012 20.9162C39.3889 20.9637 39.4641 21.0313 39.5206 21.1135C39.5349 21.1301 39.5427 21.1512 39.5427 21.1731C39.5427 21.1949 39.5349 21.2161 39.5206 21.2326C39.5036 21.2489 39.481 21.258 39.4575 21.258C39.434 21.258 39.4114 21.2489 39.3944 21.2326C39.3552 21.1772 39.304 21.1313 39.2445 21.0985C39.185 21.0658 39.1189 21.0469 39.051 21.0434C38.9686 21.0449 38.8884 21.0702 38.82 21.1162C38.7517 21.1622 38.698 21.2269 38.6656 21.3027C38.6518 21.3157 38.6342 21.3241 38.6153 21.3266C38.5965 21.3291 38.5773 21.3257 38.5605 21.3167Z" fill="#342939"/>
    <path d="M38.9741 21.3308C39.0941 21.3308 39.1913 21.2241 39.1913 21.0925C39.1913 20.9609 39.0941 20.8542 38.9741 20.8542C38.8541 20.8542 38.7568 20.9609 38.7568 21.0925C38.7568 21.2241 38.8541 21.3308 38.9741 21.3308Z" fill="#342939"/>
    <path d="M39.6261 20.4338C39.5583 20.4102 39.4875 20.396 39.4158 20.3918C39.0788 20.4049 38.7447 20.4591 38.4207 20.553C38.3672 20.4792 38.3356 20.3917 38.3296 20.3007C38.3218 20.2567 38.3218 20.2116 38.3296 20.1676C38.5469 20.1255 38.7921 20.0905 39.0654 20.0554C39.2136 20.0267 39.3658 20.0267 39.5139 20.0554C39.5737 20.0685 39.6307 20.0923 39.6821 20.1255C39.7128 20.1538 39.7347 20.1903 39.7452 20.2306C39.7452 20.2727 39.7943 20.3498 39.7452 20.3918C39.7304 20.4081 39.7117 20.4205 39.6909 20.4279C39.6701 20.4352 39.6479 20.4373 39.6261 20.4338Z" fill="#342939"/>
    <path d="M37.6709 22.2347C37.7583 22.3035 37.8679 22.3379 37.9789 22.3314C38.0899 22.3249 38.1947 22.2781 38.2736 22.1997L37.6709 22.2347Z" fill="#342939"/>
    <path d="M38.0073 23.2859C37.9405 23.2844 37.8743 23.2726 37.8111 23.2508C37.7994 23.2471 37.7886 23.2409 37.7796 23.2326C37.7706 23.2242 37.7634 23.214 37.7588 23.2027C37.7541 23.1913 37.752 23.1791 37.7525 23.1668C37.7531 23.1546 37.7563 23.1426 37.762 23.1317C37.7713 23.1111 37.7879 23.0946 37.8086 23.0855C37.8293 23.0765 37.8527 23.0754 37.8742 23.0826C37.938 23.103 38.0066 23.103 38.0704 23.0826H38.1475C38.1689 23.0729 38.1933 23.0718 38.2155 23.0797C38.2377 23.0875 38.256 23.1036 38.2666 23.1247C38.2809 23.1412 38.2887 23.1624 38.2887 23.1842C38.2887 23.2061 38.2809 23.2273 38.2666 23.2438L38.1475 23.2859H38.0073Z" fill="#342939"/>
    <path d="M38.7433 52.4521C38.7923 53.6855 39.5632 54.8558 40.1448 54.8558C41.3151 54.8558 42.2471 49.4178 42.8778 44.2671C42.9375 43.522 42.9187 42.7727 42.8218 42.0316C42.6379 40.6185 42.1809 39.2547 41.4763 38.0162L38.2808 41.52C38.3578 44.9678 38.7433 52.361 38.7433 52.4521Z" fill="#FFA4A4"/>
    <path d="M38.9809 65.1572H40.2563C40.3334 64.8489 40.4526 64.3513 40.6137 63.7557C41.6929 59.6071 42.3236 58.64 42.3306 56.9442C42.3164 55.5896 41.9519 54.2618 41.2725 53.0899L38.7427 52.298C38.7427 53.8748 38.7427 55.4655 38.7987 57.0633C38.8454 59.7963 38.9062 62.4943 38.9809 65.1572Z" fill="#FFA4A4"/>
    <path d="M38.6099 66.4536C38.516 66.5409 38.451 66.6547 38.4234 66.7799C38.3959 66.9051 38.4071 67.0357 38.4557 67.1544C38.5113 67.2785 38.6078 67.3799 38.729 67.4417H41.8264C41.9285 67.4629 42.0346 67.4528 42.1308 67.4128C42.2271 67.3728 42.309 67.3047 42.366 67.2174C42.3903 67.1468 42.3946 67.0708 42.3786 66.9979C42.3625 66.925 42.3266 66.8579 42.2749 66.804C42.1348 66.6428 41.9385 66.6778 41.6302 66.6148C41.3655 66.563 41.1118 66.4658 40.8804 66.3274L40.2707 64.6666L39.0654 64.4704C38.9182 65.1291 38.764 65.7878 38.6099 66.4536Z" fill="#FFA4A4"/>
    <path d="M37.2922 52.4521C37.2431 53.6855 36.4723 54.8558 35.8906 54.8558C34.7203 54.8558 33.7883 49.4178 33.1576 44.2671C33.0953 43.5223 33.1117 42.773 33.2067 42.0316C33.3957 40.6187 33.8548 39.2555 34.5592 38.0162L37.7547 41.52C37.6776 44.9678 37.2922 52.361 37.2922 52.4521Z" fill="#FFA4A4"/>
    <path d="M37.0473 65.1572H35.7789C35.7018 64.8489 35.5827 64.3513 35.4215 63.7557C34.3423 59.6071 33.7116 58.64 33.7046 56.9442C33.7153 55.5891 34.08 54.2604 34.7628 53.0899L37.2926 52.298C37.2926 53.8771 37.2739 55.4655 37.2365 57.0633C37.1944 59.7963 37.1314 62.4943 37.0473 65.1572Z" fill="#FFA4A4"/>
    <path d="M37.4251 66.4535C37.5178 66.5417 37.5815 66.6559 37.6078 66.781C37.6341 66.9062 37.6217 67.0364 37.5723 67.1543C37.5187 67.2798 37.4217 67.3818 37.299 67.4416H34.2086C34.1065 67.4628 34.0004 67.4528 33.9042 67.4128C33.8079 67.3728 33.726 67.3047 33.669 67.2174C33.6453 67.1472 33.6406 67.072 33.6554 66.9994C33.6702 66.9267 33.7039 66.8593 33.7531 66.8039C33.9002 66.6428 34.0964 66.6778 34.4048 66.6147C34.6704 66.5587 34.9241 66.4567 35.1546 66.3134L35.7643 64.6806L36.9696 64.4844C37.1168 65.1291 37.271 65.7878 37.4251 66.4535Z" fill="#FFA4A4"/>
    <path d="M33.2629 41.2398C33.0909 42.4723 33.0183 43.7167 33.0457 44.9609C33.0925 47.0978 33.4248 49.2189 34.0337 51.2678C33.3955 53.364 33.2351 55.5766 33.5642 57.743C33.7184 58.6189 34.0127 59.8453 34.3561 61.1698C34.6995 62.4942 35.0569 63.7626 35.2741 64.5685C35.4149 64.766 35.6087 64.9196 35.8332 65.0114C36.0578 65.1032 36.3037 65.1294 36.5425 65.0871C36.7428 65.0432 36.93 64.9532 37.0894 64.8243C37.2488 64.6953 37.3759 64.531 37.4605 64.3443L37.8109 41.499L34.5593 37.5046C34.0866 38.3759 33.7196 39.3004 33.4661 40.2587C33.347 40.6161 33.2629 40.9314 33.2629 41.2398Z" fill="#4A485D"/>
    <path d="M42.7025 41.2398C42.8709 42.4727 42.9436 43.7168 42.9197 44.9609C42.8743 47.0985 42.5396 49.2201 41.9246 51.2679C42.5664 53.3634 42.7269 55.5768 42.3941 57.743C42.247 58.619 41.9456 59.8453 41.6093 61.1698C41.2729 62.4943 40.9085 63.7627 40.6912 64.5686C40.5505 64.7661 40.3566 64.9197 40.1321 65.0115C39.9076 65.1032 39.6617 65.1295 39.4228 65.0871C39.2226 65.0433 39.0353 64.9533 38.8759 64.8243C38.7166 64.6954 38.5895 64.531 38.5048 64.3443L38.1685 41.5271L41.42 37.5327C41.8957 38.4025 42.2629 39.3275 42.5132 40.2868C42.5763 40.6161 42.6464 40.9315 42.7025 41.2398Z" fill="#4A485D"/>
    <path d="M41.4833 38.3174H35.0151V44.0217H41.4833V38.3174Z" fill="#4A485D"/>
    <path d="M35.4141 65.2973L34.8604 66.1733C34.6294 66.1249 34.3908 66.1249 34.1597 66.1733C34.0197 66.1867 33.8844 66.2306 33.7633 66.3021C33.6422 66.3735 33.5383 66.4707 33.4589 66.5867C33.4067 66.7241 33.3897 66.8723 33.4092 67.0179C33.4288 67.1635 33.4844 67.302 33.571 67.4206H37.5444C37.6263 67.2643 37.6741 67.0923 37.6846 66.9161C37.7082 66.6194 37.6317 66.3233 37.4673 66.0752L36.1709 65.886C36.1798 65.7349 36.1396 65.585 36.0562 65.4586C35.9728 65.3323 35.8508 65.2364 35.7084 65.1852C35.6006 65.1892 35.4972 65.2286 35.4141 65.2973Z" fill="#342939"/>
    <path d="M40.6907 65.2973L41.2443 66.1733C41.4755 66.1259 41.7139 66.1259 41.9451 66.1733C42.0853 66.1857 42.221 66.2293 42.3422 66.3008C42.4634 66.3723 42.5672 66.47 42.6459 66.5867C42.698 66.7241 42.7151 66.8723 42.6955 67.0179C42.676 67.1635 42.6203 67.302 42.5338 67.4206H38.5604C38.4785 67.2643 38.4307 67.0923 38.4202 66.9161C38.3966 66.6194 38.4731 66.3233 38.6375 66.0752L39.9339 65.886C39.925 65.7349 39.9652 65.585 40.0486 65.4586C40.1319 65.3323 40.254 65.2364 40.3964 65.1852C40.5042 65.1892 40.6076 65.2286 40.6907 65.2973Z" fill="#342939"/>
    <path d="M40.3966 25.9769H35.9116V29.2145H40.3966V25.9769Z" fill="white"/>
    <path d="M43.5222 41.5342C40.0394 43.0347 36.1102 43.1251 32.5621 41.7865L31.7632 27.4066L36.3953 24.9679L38.0351 27.5888L39.5698 25.031L44.244 26.9721L43.5222 41.5342Z" fill="#42CC7D"/>
    <path d="M37.2925 22.6412C37.3943 22.7478 37.5174 22.8316 37.6539 22.8872C37.7904 22.9427 37.9371 22.9688 38.0844 22.9636C38.2493 22.9443 38.4074 22.8867 38.5461 22.7955C38.6848 22.7042 38.8003 22.5818 38.8832 22.438L37.2925 22.6412Z" fill="white"/>
    <path d="M38.2734 37.3224L38.0422 38.9272C37.2363 38.8781 36.4094 38.8431 35.5684 38.822C34.0127 38.78 32.5061 38.787 31.0555 38.822C30.7862 38.7279 30.5296 38.6008 30.2916 38.4436C30.0731 38.2951 29.8731 38.121 29.696 37.925C29.5643 37.7114 29.4784 37.4728 29.4437 37.2243C29.4207 36.9131 29.4673 36.6008 29.58 36.3099C29.6927 36.019 29.8688 35.7568 30.0954 35.5424C30.7125 35.5625 31.3267 35.6351 31.9314 35.7597C34.1389 36.2152 35.0429 37.1612 37.1312 37.2944C37.5107 37.3317 37.8925 37.3411 38.2734 37.3224Z" fill="#FFA4A4"/>
    <path d="M37.6356 37.1612L35.8276 36.951L33.5571 38.9832L37.8669 38.738C38.6728 38.6959 39.4997 38.6609 40.3406 38.6398C41.8963 38.5978 43.4007 38.5978 44.8536 38.6398C45.1241 38.5486 45.381 38.4213 45.6174 38.2614C45.836 38.1129 46.0359 37.9388 46.2131 37.7429C46.3457 37.5297 46.4316 37.2909 46.4654 37.0421C46.4883 36.731 46.4418 36.4186 46.329 36.1277C46.2163 35.8368 46.0403 35.5746 45.8137 35.3602C45.1965 35.3798 44.5823 35.4525 43.9776 35.5775C41.7702 36.033 40.8592 36.944 38.7779 37.1122C38.3986 37.153 38.017 37.1693 37.6356 37.1612Z" fill="#FFA4A4"/>
    <path d="M38.561 18.5278C38.561 18.8431 38.0354 19.1024 37.3837 19.1024C36.7319 19.1024 36.2134 18.8431 36.2134 18.5278C36.2134 18.2124 36.767 17.9601 37.3837 17.9601C38.0003 17.9601 38.561 18.2124 38.561 18.5278Z" fill="#342939"/>
    <path d="M36.0594 19.3336C36.3961 19.3336 36.6691 19.0983 36.6691 18.8081C36.6691 18.5178 36.3961 18.2825 36.0594 18.2825C35.7227 18.2825 35.4497 18.5178 35.4497 18.8081C35.4497 19.0983 35.7227 19.3336 36.0594 19.3336Z" fill="#342939"/>
    <path d="M35.5059 19.9012C35.5059 19.2635 35.611 18.7379 35.7371 18.7379C35.8633 18.7379 35.9614 19.2635 35.9614 19.9012C35.9614 20.5389 35.8633 21.0715 35.7371 21.0715C35.611 21.0715 35.5059 20.5459 35.5059 19.9012Z" fill="#342939"/>
    <path d="M39.0654 18.6609C39.0654 18.8991 38.666 19.0953 38.1825 19.0953C37.6989 19.0953 37.2925 18.8991 37.2925 18.6609C37.2925 18.4226 37.6919 18.2264 38.1825 18.2264C38.673 18.2264 39.0654 18.3806 39.0654 18.6609Z" fill="#342939"/>
    <path d="M38.3012 18.5908C38.7501 18.5908 39.1141 18.368 39.1141 18.0933C39.1141 17.8185 38.7501 17.5957 38.3012 17.5957C37.8522 17.5957 37.4883 17.8185 37.4883 18.0933C37.4883 18.368 37.8522 18.5908 38.3012 18.5908Z" fill="#342939"/>
    <path d="M38.2736 18.0652C38.2736 18.3245 37.8251 18.5277 37.2715 18.5277C36.7179 18.5277 36.2764 18.3245 36.2764 18.0652C36.2764 17.8059 36.7249 17.5957 37.2715 17.5957C37.8181 17.5957 38.2736 17.8059 38.2736 18.0652Z" fill="#342939"/>
    <path d="M36.3815 18.6888C36.9233 18.6888 37.3626 18.488 37.3626 18.2403C37.3626 17.9926 36.9233 17.7918 36.3815 17.7918C35.8396 17.7918 35.4004 17.9926 35.4004 18.2403C35.4004 18.488 35.8396 18.6888 36.3815 18.6888Z" fill="#342939"/>
    <path d="M38.6867 17.7848C38.6867 17.939 38.3924 18.0651 38.035 18.0651C37.6776 18.0651 37.3833 17.939 37.3833 17.7848C37.3833 17.6306 37.6776 17.4975 38.035 17.4975C38.3924 17.4975 38.6867 17.6236 38.6867 17.7848Z" fill="#342939"/>
    <path d="M37.9092 18.4015C37.96 18.1727 38.0874 17.9681 38.2702 17.8214C38.453 17.6748 38.6804 17.5948 38.9148 17.5948C39.1492 17.5948 39.3766 17.6748 39.5594 17.8214C39.7422 17.9681 39.8696 18.1727 39.9204 18.4015C39.8696 18.6303 39.7422 18.835 39.5594 18.9816C39.3766 19.1283 39.1492 19.2082 38.9148 19.2082C38.6804 19.2082 38.453 19.1283 38.2702 18.9816C38.0874 18.835 37.96 18.6303 37.9092 18.4015Z" fill="#342939"/>
    <path d="M38.9741 18.9551C38.9741 18.7169 39.2334 18.5276 39.5558 18.5276C39.8781 18.5276 40.1444 18.7169 40.1444 18.9551C40.1444 19.1934 39.8781 19.3756 39.5558 19.3756C39.2334 19.3756 38.9741 19.1864 38.9741 18.9551Z" fill="#342939"/>
    <path d="M39.9692 21.0295C40.155 21.0295 40.3056 20.5651 40.3056 19.9923C40.3056 19.4195 40.155 18.9552 39.9692 18.9552C39.7834 18.9552 39.6328 19.4195 39.6328 19.9923C39.6328 20.5651 39.7834 21.0295 39.9692 21.0295Z" fill="#342939"/>
    <path d="M37.4813 18.0652C37.7755 18.0652 38.0139 17.8267 38.0139 17.5326C38.0139 17.2384 37.7755 17 37.4813 17C37.1872 17 36.9487 17.2384 36.9487 17.5326C36.9487 17.8267 37.1872 18.0652 37.4813 18.0652Z" fill="#342939"/>
    <path d="M37.2708 17.806C37.2708 18.0162 37.0185 18.1914 36.7032 18.1914C36.3879 18.1914 36.1426 18.0162 36.1426 17.806C36.1426 17.5957 36.3949 17.4205 36.7032 17.4205C37.0115 17.4205 37.2708 17.5887 37.2708 17.806Z" fill="#342939"/>
    <path d="M37.2788 18.2754C37.7742 18.2754 38.1758 17.9899 38.1758 17.6377C38.1758 17.2855 37.7742 17 37.2788 17C36.7834 17 36.3818 17.2855 36.3818 17.6377C36.3818 17.9899 36.7834 18.2754 37.2788 18.2754Z" fill="#342939"/>
    <path d="M38.6587 18.1843C39.0225 18.1843 39.3175 17.949 39.3175 17.6587C39.3175 17.3684 39.0225 17.1331 38.6587 17.1331C38.2949 17.1331 38 17.3684 38 17.6587C38 17.949 38.2949 18.1843 38.6587 18.1843Z" fill="#342939"/>
    <path d="M39.85 18.892C40.0783 18.892 40.2634 18.6912 40.2634 18.4436C40.2634 18.1959 40.0783 17.9951 39.85 17.9951C39.6216 17.9951 39.4365 18.1959 39.4365 18.4436C39.4365 18.6912 39.6216 18.892 39.85 18.892Z" fill="#342939"/>
    <path d="M39.8014 17.7079C39.8014 17.9532 39.4931 18.1564 39.1007 18.1564C38.7082 18.1564 38.3999 17.9532 38.3999 17.7079C38.3999 17.4626 38.7012 17.2524 39.1007 17.2524C39.5001 17.2524 39.8014 17.4556 39.8014 17.7079Z" fill="#342939"/>
    <path d="M33.788 38.8852C33.7678 38.8933 33.7452 38.8933 33.7249 38.8852C33.7171 38.8773 33.7109 38.8681 33.7066 38.8578C33.7024 38.8476 33.7002 38.8367 33.7002 38.8256C33.7002 38.8145 33.7024 38.8036 33.7066 38.7933C33.7109 38.7831 33.7171 38.7738 33.7249 38.766L35.61 37.1192C35.6277 37.1044 35.65 37.0963 35.6731 37.0963C35.6962 37.0963 35.7185 37.1044 35.7361 37.1192C35.751 37.1369 35.7591 37.1592 35.7591 37.1823C35.7591 37.2053 35.751 37.2277 35.7361 37.2453L33.8441 38.8922C33.8252 38.897 33.8051 38.8945 33.788 38.8852Z" fill="#342939"/>
    <path d="M38.3852 38.731L38.0768 38.6889C38.0651 38.6881 38.0537 38.6848 38.0433 38.6793C38.0329 38.6738 38.0238 38.6662 38.0165 38.657C38.0092 38.6477 38.004 38.6371 38.0011 38.6257C37.9982 38.6143 37.9978 38.6024 37.9997 38.5908C38.0032 38.5679 38.0153 38.5472 38.0335 38.5328C38.0518 38.5185 38.0748 38.5117 38.0979 38.5137L38.3992 38.5558C38.4103 38.5575 38.421 38.5614 38.4305 38.5672C38.4401 38.5731 38.4484 38.5809 38.4549 38.59C38.4615 38.5992 38.4661 38.6095 38.4686 38.6205C38.471 38.6315 38.4713 38.6428 38.4693 38.6539C38.4675 38.6749 38.4579 38.6946 38.4423 38.7089C38.4267 38.7231 38.4063 38.731 38.3852 38.731Z" fill="#342939"/>
    <path d="M45.0078 35.7738L43.9706 35.7037C43.959 35.7038 43.9474 35.7014 43.9367 35.6967C43.926 35.6921 43.9164 35.6853 43.9085 35.6767C43.9006 35.6681 43.8946 35.658 43.8908 35.647C43.887 35.636 43.8856 35.6243 43.8865 35.6126C43.8874 35.6007 43.8907 35.589 43.8961 35.5783C43.9015 35.5675 43.909 35.558 43.9181 35.5502C43.9272 35.5424 43.9378 35.5364 43.9492 35.5327C43.9606 35.529 43.9727 35.5276 43.9846 35.5285L45.0148 35.5986C45.0262 35.5984 45.0375 35.6008 45.0479 35.6055C45.0583 35.6102 45.0675 35.6172 45.0749 35.6259C45.0823 35.6346 45.0876 35.6449 45.0905 35.6559C45.0935 35.6669 45.0939 35.6785 45.0919 35.6897C45.0919 35.712 45.083 35.7334 45.0672 35.7492C45.0514 35.765 45.0301 35.7738 45.0078 35.7738Z" fill="#342939"/>
    <path d="M31.5041 35.9769C31.4853 35.9763 31.4671 35.97 31.452 35.9587C31.437 35.9474 31.4258 35.9317 31.42 35.9138C31.4156 35.9028 31.4138 35.8909 31.4148 35.8791C31.4158 35.8673 31.4194 35.8558 31.4255 35.8456C31.4316 35.8355 31.44 35.8268 31.45 35.8204C31.46 35.814 31.4713 35.81 31.4831 35.8087L32.1839 35.5985C32.1949 35.5953 32.2065 35.5945 32.2179 35.596C32.2293 35.5975 32.2402 35.6014 32.2501 35.6073C32.2599 35.6132 32.2684 35.621 32.2751 35.6304C32.2818 35.6397 32.2865 35.6503 32.289 35.6615C32.2933 35.6721 32.2953 35.6834 32.2948 35.6948C32.2942 35.7062 32.2911 35.7173 32.2858 35.7273C32.2804 35.7374 32.2729 35.7461 32.2638 35.7529C32.2546 35.7597 32.2441 35.7644 32.2329 35.7666L31.5321 35.9769H31.5041Z" fill="#342939"/>
    <path d="M32.0016 33.3771C31.9793 33.3771 31.9579 33.3682 31.9421 33.3525C31.9263 33.3367 31.9175 33.3153 31.9175 33.293L31.6512 29.656C31.6502 29.6444 31.6517 29.6327 31.6554 29.6216C31.6592 29.6106 31.6653 29.6005 31.6732 29.5919C31.6811 29.5834 31.6907 29.5765 31.7014 29.5719C31.7121 29.5672 31.7236 29.5648 31.7353 29.5649C31.7465 29.5628 31.758 29.5633 31.7691 29.5662C31.7801 29.5691 31.7904 29.5745 31.7991 29.5818C31.8078 29.5892 31.8148 29.5984 31.8195 29.6088C31.8242 29.6192 31.8266 29.6306 31.8264 29.642L32.0857 33.286C32.0866 33.297 32.0854 33.3082 32.082 33.3187C32.0787 33.3293 32.0732 33.3391 32.0661 33.3476C32.0589 33.3561 32.0501 33.363 32.0403 33.3681C32.0304 33.3731 32.0196 33.3762 32.0086 33.3771H32.0016Z" fill="#342939"/>
    <path d="M43.9008 33.307C43.8888 33.3062 43.8771 33.3029 43.8664 33.2975C43.8557 33.2921 43.8462 33.2846 43.8383 33.2755C43.8305 33.2664 43.8246 33.2558 43.8209 33.2444C43.8172 33.2329 43.8157 33.2209 43.8167 33.2089L44.048 29.5579C44.048 29.5088 44.097 29.4598 44.1391 29.4738C44.1507 29.4738 44.1623 29.4761 44.1729 29.4808C44.1836 29.4855 44.1932 29.4923 44.2011 29.5009C44.209 29.5094 44.2151 29.5195 44.2189 29.5306C44.2227 29.5416 44.2241 29.5533 44.2231 29.5649L43.9919 33.2229C43.9901 33.2459 43.9797 33.2673 43.9628 33.2829C43.9459 33.2985 43.9238 33.3071 43.9008 33.307Z" fill="#342939"/>
    <path d="M59.4369 36.2642H42.2119C42.0992 36.2675 41.9871 36.2453 41.8841 36.1992C41.7812 36.1532 41.6899 36.0845 41.6172 35.9983C41.5444 35.9121 41.4921 35.8105 41.464 35.7013C41.4359 35.592 41.4329 35.4778 41.4551 35.3672L43.0108 25.4443C43.0542 25.1983 43.181 24.9748 43.3699 24.8115C43.5588 24.6481 43.7983 24.5548 44.0479 24.5473H61.294C61.4067 24.5441 61.5188 24.5663 61.6217 24.6123C61.7247 24.6584 61.816 24.7271 61.8887 24.8133C61.9615 24.8995 62.0138 25.001 62.0419 25.1103C62.0699 25.2195 62.073 25.3337 62.0508 25.4443L60.4951 35.3672C60.4485 35.6155 60.3179 35.8402 60.1252 36.0035C59.9325 36.1669 59.6895 36.2589 59.4369 36.2642Z" fill="#342939"/>
    <path d="M53.8375 32.1298H51.3428V38.4507H53.8375V32.1298Z" fill="#342939"/>
    <path d="M54.7692 38.4507H47.5302C47.4837 38.4507 47.4392 38.4323 47.4063 38.3994C47.3734 38.3666 47.355 38.322 47.355 38.2755C47.355 38.2291 47.3734 38.1845 47.4063 38.1517C47.4392 38.1188 47.4837 38.1003 47.5302 38.1003H54.7692C54.8144 38.1003 54.858 38.1178 54.8906 38.1492C54.9233 38.1805 54.9425 38.2233 54.9444 38.2685C54.9444 38.3157 54.9262 38.361 54.8935 38.3949C54.8608 38.4289 54.8163 38.4489 54.7692 38.4507Z" fill="#342939"/>
    <path d="M51.3497 36.3413C51.339 36.3422 51.3282 36.341 51.3181 36.3375C51.3079 36.3341 51.2985 36.3286 51.2906 36.3213C51.2827 36.3141 51.2764 36.3052 51.2721 36.2954C51.2678 36.2855 51.2656 36.2749 51.2656 36.2642V31.8913C51.2656 31.869 51.2745 31.8477 51.2903 31.8319C51.306 31.8161 51.3274 31.8073 51.3497 31.8073C51.3605 31.8072 51.3711 31.8094 51.3809 31.8137C51.3908 31.818 51.3996 31.8243 51.4069 31.8322C51.4141 31.8402 51.4196 31.8495 51.4231 31.8597C51.4265 31.8699 51.4278 31.8807 51.4268 31.8913V36.2642C51.4268 36.2846 51.4187 36.3042 51.4042 36.3187C51.3898 36.3331 51.3702 36.3413 51.3497 36.3413Z" fill="#D2DBE8"/>
    <path d="M53.837 36.3413C53.8159 36.3414 53.7955 36.3335 53.7799 36.3192C53.7643 36.3049 53.7547 36.2853 53.7529 36.2642V32.1297C53.7529 32.1074 53.7618 32.086 53.7776 32.0702C53.7933 32.0545 53.8147 32.0456 53.837 32.0456C53.8593 32.0456 53.8807 32.0545 53.8965 32.0702C53.9123 32.086 53.9211 32.1074 53.9211 32.1297V36.2642C53.9212 36.275 53.919 36.2856 53.9146 36.2955C53.9103 36.3053 53.904 36.3141 53.8961 36.3214C53.8882 36.3286 53.8788 36.3342 53.8687 36.3376C53.8585 36.341 53.8477 36.3423 53.837 36.3413Z" fill="#D2DBE8"/>
    <path d="M48.1685 34.3512H43.2631C43.2427 34.3512 43.2231 34.3431 43.2086 34.3286C43.1942 34.3142 43.186 34.2946 43.186 34.2741C43.186 34.2537 43.1942 34.2341 43.2086 34.2196C43.2231 34.2051 43.2427 34.197 43.2631 34.197H48.1685C48.189 34.197 48.2086 34.2051 48.223 34.2196C48.2375 34.2341 48.2456 34.2537 48.2456 34.2741C48.2456 34.2946 48.2375 34.3142 48.223 34.3286C48.2086 34.3431 48.189 34.3512 48.1685 34.3512Z" fill="#42CC7D"/>
    <path d="M48.1684 34.8136H43.263C43.2437 34.8137 43.2251 34.8065 43.2108 34.7935C43.1965 34.7806 43.1876 34.7627 43.1859 34.7435C43.1849 34.7328 43.1862 34.722 43.1896 34.7119C43.193 34.7017 43.1986 34.6923 43.2058 34.6844C43.2131 34.6765 43.2219 34.6702 43.2317 34.6659C43.2416 34.6616 43.2522 34.6594 43.263 34.6594H48.1684C48.1888 34.6594 48.2084 34.6675 48.2229 34.682C48.2373 34.6965 48.2455 34.7161 48.2455 34.7365C48.2455 34.757 48.2373 34.7766 48.2229 34.791C48.2084 34.8055 48.1888 34.8136 48.1684 34.8136Z" fill="#42CC7D"/>
    <path d="M48.1685 35.2901H43.2631C43.2427 35.2901 43.2231 35.282 43.2086 35.2675C43.1942 35.2531 43.186 35.2335 43.186 35.213C43.186 35.1926 43.1942 35.173 43.2086 35.1585C43.2231 35.144 43.2427 35.1359 43.2631 35.1359H48.1685C48.189 35.1359 48.2086 35.144 48.223 35.1585C48.2375 35.173 48.2456 35.1926 48.2456 35.213C48.2456 35.2335 48.2375 35.2531 48.223 35.2675C48.2086 35.282 48.189 35.2901 48.1685 35.2901Z" fill="#42CC7D"/>
    <path d="M21.4827 28.829H19.4995V37.932H21.4827V28.829Z" fill="#FF5E33"/>
    <path d="M20.4595 30.5811C20.8 30.5811 21.0761 30.305 21.0761 29.9644C21.0761 29.6238 20.8 29.3477 20.4595 29.3477C20.1189 29.3477 19.8428 29.6238 19.8428 29.9644C19.8428 30.305 20.1189 30.5811 20.4595 30.5811Z" fill="#342939"/>
    <path d="M24.1531 28.829H22.1699V37.932H24.1531V28.829Z" fill="#FF5E33"/>
    <path d="M23.1225 30.5811C23.4631 30.5811 23.7392 30.305 23.7392 29.9644C23.7392 29.6238 23.4631 29.3477 23.1225 29.3477C22.782 29.3477 22.5059 29.6238 22.5059 29.9644C22.5059 30.305 22.782 30.5811 23.1225 30.5811Z" fill="#342939"/>
    <path d="M26.7034 28.829H24.7202V37.932H26.7034V28.829Z" fill="#FF5E33"/>
    <path d="M25.6806 30.5811C26.0212 30.5811 26.2973 30.305 26.2973 29.9644C26.2973 29.6238 26.0212 29.3477 25.6806 29.3477C25.3401 29.3477 25.064 29.6238 25.064 29.9644C25.064 30.305 25.3401 30.5811 25.6806 30.5811Z" fill="#342939"/>
    <path d="M21.8128 32.9216H19.2129V38.4507H21.8128V32.9216Z" fill="white"/>
    <path d="M24.4124 34.4983H21.8125V38.4507H24.4124V34.4983Z" fill="white"/>
    <path d="M27.012 36.1662H24.4121V38.4507H27.012V36.1662Z" fill="white"/>
    <path d="M61.5459 39.0323H19.4995V67.9602H61.5459V39.0323Z" fill="white"/>
    <path d="M63.0527 38.4507H18V39.614H63.0527V38.4507Z" fill="#FF5E33"/>
    <path d="M40.2705 62.1928H40.0673C37.5044 62.143 35.008 61.3682 32.8674 59.958C30.7267 58.5479 29.0294 56.5601 27.9719 54.225C27.9442 54.1552 27.9442 54.0775 27.9719 54.0078C29.0384 51.6808 30.737 49.7001 32.8742 48.2914C35.0114 46.8827 37.5013 46.1026 40.0603 46.04H40.2705C42.8516 46.0451 45.3778 46.7846 47.5543 48.1719C49.7308 49.5592 51.4677 51.5371 52.5621 53.8746C52.5898 53.9444 52.5898 54.0221 52.5621 54.0919C51.5174 56.4871 49.7999 58.5276 47.618 59.9656C45.4361 61.4036 42.8836 62.1773 40.2705 62.1928ZM28.4975 54.1129C29.5254 56.3304 31.1558 58.2144 33.2027 59.5501C35.2496 60.8858 37.6306 61.6194 40.0743 61.6672H40.2705C42.7749 61.6607 45.2238 60.9294 47.3217 59.5615C49.4195 58.1936 51.0765 56.2477 52.0926 53.9587C51.0215 51.7345 49.3431 49.8587 47.2512 48.548C45.1592 47.2372 42.7392 46.5451 40.2705 46.5515H40.0182C37.5815 46.6173 35.211 47.3592 33.1716 48.6945C31.1322 50.0298 29.5042 51.9058 28.4695 54.1129H28.4975Z" fill="#1C0D44"/>
    <path d="M40.2634 60.8335C43.975 60.8335 46.9838 57.8246 46.9838 54.1131C46.9838 50.4015 43.975 47.3926 40.2634 47.3926C36.5518 47.3926 33.543 50.4015 33.543 54.1131C33.543 57.8246 36.5518 60.8335 40.2634 60.8335Z" fill="#1C0D44"/>
    <path d="M43.3964 54.1129C43.395 54.7308 43.2105 55.3344 42.8663 55.8474C42.522 56.3605 42.0334 56.76 41.4622 56.9955C40.8909 57.2309 40.2627 57.2918 39.6569 57.1705C39.0511 57.0491 38.4949 56.7508 38.0585 56.3135C37.6221 55.8761 37.3251 55.3192 37.2051 54.7131C37.085 54.107 37.1473 53.4789 37.3841 52.9082C37.6208 52.3376 38.0214 51.8498 38.5353 51.5067C39.0491 51.1636 39.6531 50.9805 40.2709 50.9805C40.682 50.9805 41.089 51.0615 41.4686 51.219C41.8483 51.3766 42.1931 51.6074 42.4835 51.8984C42.7738 52.1893 43.0038 52.5347 43.1605 52.9147C43.3172 53.2947 43.3973 53.7019 43.3964 54.1129Z" fill="white"/>
  </g>
  <path d="M79 39.5C79 61.3152 61.3152 79 39.5 79C17.6848 79 0 61.3152 0 39.5C0 17.6848 17.6848 0 39.5 0C61.3152 0 79 17.6848 79 39.5ZM3.28568 39.5C3.28568 59.5006 19.4994 75.7143 39.5 75.7143C59.5006 75.7143 75.7143 59.5006 75.7143 39.5C75.7143 19.4994 59.5006 3.28568 39.5 3.28568C19.4994 3.28568 3.28568 19.4994 3.28568 39.5Z" fill="#9D9D9D"/>
  <path d="M79 39.5C79 47.7543 76.4141 55.8012 71.6057 62.5103C66.7972 69.2194 60.0078 74.2536 52.1912 76.9057C44.3745 79.5577 35.9234 79.6944 28.0251 77.2965C20.1268 74.8986 13.1781 70.0866 8.15521 63.5365C3.13231 56.9864 0.287588 49.0273 0.0206591 40.7774C-0.246269 32.5274 2.07801 24.4011 6.66699 17.54C11.256 10.6789 17.8791 5.42775 25.6059 2.5243C33.3326 -0.379156 41.7749 -0.789059 49.7466 1.35217L48.8943 4.52538C41.5857 2.56226 33.8457 2.93807 26.7616 5.6C19.6775 8.26194 13.6054 13.0763 9.3981 19.3666C5.19084 25.657 3.0599 33.1074 3.30462 40.6711C3.54935 48.2348 6.15744 55.5319 10.7625 61.5371C15.3676 67.5424 21.7383 71.9541 28.9796 74.1525C36.2209 76.351 43.969 76.2257 51.1355 73.7942C58.3019 71.3627 64.5266 66.7473 68.9351 60.5963C73.3436 54.4452 75.7143 47.0677 75.7143 39.5H79Z" fill="#D9CFFB"/>
</svg>