<svg xmlns="http://www.w3.org/2000/svg" width="181" height="181" viewBox="0 0 181 181" fill="none">
<path fill-rule="evenodd" clip-rule="evenodd" d="M0.725342 90.3069C0.725342 66.5131 10.1774 43.6938 27.0021 26.8691C43.8269 10.0443 66.6461 0.592285 90.4399 0.592285C114.234 0.592285 137.053 10.0443 153.878 26.8691C170.702 43.6938 180.155 66.5131 180.155 90.3069C180.155 114.101 170.702 136.92 153.878 153.745C137.053 170.569 114.234 180.021 90.4399 180.021C66.6461 180.021 43.8269 170.569 27.0021 153.745C10.1774 136.92 0.725342 114.101 0.725342 90.3069ZM85.3202 128.705L136.972 64.1341L127.642 56.6699L83.5977 111.707L52.4009 85.7135L44.7453 94.9003L85.3202 128.717V128.705Z" fill="#00CB5D"/>
</svg>