<svg width="88" height="161" viewBox="0 0 88 161" fill="none" xmlns="http://www.w3.org/2000/svg">
<path d="M64.7081 22.0112C64.138 22.6051 63.4328 23.0406 62.6546 23.3244C61.725 23.6628 60.6864 23.7859 59.6027 23.7125C57.4356 23.5634 55.0792 22.6311 53.0043 20.9585C51.4475 19.7046 50.2648 18.2071 49.5145 16.6572C48.7646 15.1054 48.4449 13.5012 48.6438 12.0297C48.7765 11.05 49.1428 10.1323 49.7676 9.35865C50.3898 8.58505 51.2108 8.02904 52.1405 7.6929C53.0678 7.35448 54.1064 7.22905 55.1924 7.30247C57.3595 7.45161 59.7159 8.3862 61.7908 10.0562C63.3452 11.3104 64.528 12.8102 65.2783 14.3597C66.0282 15.9092 66.3502 17.5157 66.1513 18.9849C66.04 19.8082 65.7632 20.5868 65.3066 21.2728C65.219 21.4055 65.1246 21.5332 65.0251 21.656C64.9257 21.7818 64.8194 21.8999 64.7081 22.0112ZM62.3303 22.4345C63.1158 22.1485 63.7808 21.6942 64.2894 21.0625C64.7957 20.433 65.1009 19.6877 65.2121 18.8575C65.3257 18.0296 65.2454 17.1187 64.9731 16.1842C64.4336 14.3127 63.1322 12.3536 61.1973 10.7946C59.7445 9.62327 58.1499 8.85005 56.6241 8.48104C55.0957 8.11202 53.6406 8.15217 52.4624 8.58275C51.677 8.86917 51.012 9.32309 50.5034 9.95252C49.9971 10.582 49.6942 11.3296 49.5806 12.1575C49.4671 12.9857 49.5501 13.8962 49.8196 14.8308C50.3592 16.7023 51.6605 18.6637 53.5982 20.2227C55.0486 21.3913 56.6433 22.1676 58.1713 22.534C59.6971 22.903 61.1522 22.8628 62.3303 22.4345Z" fill="#878CF0"/>
<path d="M65.3234 21.2701L77.0865 30.7552C76.9423 30.8237 76.8123 30.9231 76.7056 31.0554C76.5993 31.1881 76.5282 31.3395 76.4976 31.4956L64.7249 22.0082L64.7227 22.0059C64.8339 21.8946 64.9402 21.7764 65.0397 21.651C65.1391 21.5282 65.2339 21.4001 65.3211 21.2678L65.3234 21.2701Z" fill="#878CF0"/>
<path d="M82.9609 37.4584C83.6424 37.7754 83.9498 35.8615 84.4844 35.9537L85.2603 36.5785L87.6144 38.476C88.071 38.8427 88.1421 39.5146 87.7727 39.9712C87.4037 40.4301 86.7341 40.5008 86.2775 40.1322L84.276 38.5184L83.3579 37.7781L82.9609 37.4584Z" fill="#56548C"/>
<path d="M78.2001 30.9033L80.0146 32.3653C79.6858 32.6849 79.8395 33.4796 79.8395 33.4796H79.8372C79.7875 33.5033 79.1133 33.7993 78.7726 34.057L78.7466 34.0807L76.8633 32.5618C76.539 32.2991 76.409 31.885 76.4942 31.5045C76.5248 31.3481 76.596 31.197 76.7023 31.0643C76.809 30.932 76.939 30.8326 77.0832 30.7641C77.4407 30.6005 77.8736 30.6406 78.2001 30.9033Z" fill="#56548C"/>
<path d="M35.9453 143.199C38.6592 141.806 38.4034 135.477 38.0011 130.274C38.2355 130.523 38.3938 130.719 38.408 130.809C38.4768 131.209 38.808 134.54 38.6091 138.07C38.4084 141.602 36.9438 143.334 35.9453 143.199Z" fill="#D3DCE0"/>
<path d="M63.3931 159.621C64.4837 158.748 66.4852 153.545 66.9089 151.92C67.1196 152.147 67.2542 152.315 67.2542 152.372C67.2542 152.639 65.4562 157.302 64.7889 158.367C64.1239 159.432 63.457 160.698 61.5924 160.767C59.7259 160.833 57.5657 160.369 57.5821 159.948C59.2265 160.565 62.2478 160.539 63.3931 159.621Z" fill="#D3DCE0"/>
<path d="M64.3226 149.445C64.3226 149.445 66.1326 151.09 66.9085 151.925C66.4851 153.55 64.4833 158.753 63.3926 159.626C62.2473 160.544 59.2264 160.57 57.582 159.952C57.6222 158.835 59.3874 158.537 59.8604 157.839C60.2768 157.222 60.925 152.443 60.925 152.443C64.2565 152.776 64.6209 150.165 64.3226 149.445Z" fill="#56548C"/>
<path d="M37.9977 130.273C38.4 135.476 38.6554 141.805 35.9419 143.198C34.9412 143.066 33.5312 132.873 33.5312 132.873C35.9419 132.142 36.3656 129.104 35.7362 128.172C36.2471 128.617 37.3851 129.625 37.9977 130.273Z" fill="#56548C"/>
<path d="M35.7485 128.167C36.3775 129.099 35.9542 132.137 33.5435 132.868C33.5435 132.868 30.6029 129.688 26.9023 125.604C29.5899 126.74 33.1978 123.428 32.4717 121.838C34.0877 125.296 35.4881 127.939 35.4881 127.939C35.4881 127.939 35.5875 128.025 35.7485 128.167Z" fill="#D3DCE0"/>
<path d="M64.3303 149.446C64.6285 150.165 64.2641 152.777 60.933 152.444C60.933 152.444 59.1774 150.007 56.7266 146.626C56.7266 146.626 60.7437 146.985 61.8037 143.552C63.2917 146.898 64.3303 149.446 64.3303 149.446Z" fill="#D3DCE0"/>
<path d="M35.4648 117.615C36.456 117.496 38.3749 117.158 41.202 116.2C43.0425 115.578 44.2823 114.894 45.0964 114.314C45.0964 114.314 45.2027 114.736 45.371 115.384C44.3653 116.054 40.542 118.334 35.6587 117.968H35.6564C35.5406 117.783 35.4744 117.681 35.4744 117.681L35.4648 117.615Z" fill="#EFAC92"/>
<path d="M27.4087 104.874L27.3613 104.894L25.4944 104.979C26.6607 104.127 24.9028 98.4324 21.9102 95.7327C24.2738 96.6791 25.795 100.585 26.4929 102.161C26.8267 102.913 27.1793 103.942 27.4087 104.874Z" fill="#EFAC92"/>
<path d="M27.3912 104.866C27.6845 106.052 27.7817 107.071 27.3981 107.154C27.3178 107.152 27.275 107.15 27.275 107.15C26.4754 106.972 25.2594 105.344 25.0039 104.992L25.4769 104.97L27.3438 104.885L27.3912 104.866Z" fill="#E5B848"/>
<path d="M54.3268 129.401C56.6005 132.342 59.6594 138.77 61.7913 143.559C60.7313 146.992 56.7141 146.632 56.7141 146.632C51.4664 139.395 43.0298 127.83 41.8019 126.605C40.2192 125.019 36.5236 119.325 35.6602 117.978C40.5434 118.345 44.3667 116.064 45.3724 115.395C45.8646 117.28 46.8864 121.08 47.3315 121.875C47.9315 122.94 50.4633 124.405 54.3268 129.401Z" fill="#FFC8AF"/>
<path d="M25.4726 104.97L24.9995 104.992L22.0753 105.127C25.4064 106.793 28.0045 111.347 30.2683 116.876C30.9662 118.582 31.7306 120.288 32.4499 121.83V121.832C33.1761 123.422 29.5681 126.734 26.8806 125.599C23.2914 121.636 18.9901 116.822 15.9691 113.235C9.84148 105.95 8.41932 100.268 10.996 98.2232C11.9283 97.4852 16.0116 96.4868 20.8405 95.5166C21.2073 95.5166 21.5552 95.5923 21.8887 95.7246C24.881 98.4236 26.6389 104.118 25.4726 104.97Z" fill="#FFC8AF"/>
<path d="M47.7925 95.2356C47.7496 94.779 47.6881 94.3129 47.6055 93.8372C49.2334 94.3813 50.5863 94.9209 50.797 95.5144C50.8043 95.6019 50.8112 95.68 50.8184 95.7511V95.7557C50.641 96.4987 47.8445 95.9235 47.8445 95.9235H47.8422C47.8303 95.6968 47.8139 95.4673 47.7925 95.2356Z" fill="#6272CC"/>
<path d="M43.845 105.387L43.8473 105.389C41.8905 107.197 36.5697 109.239 30.6762 109.544L29.5312 107.201V107.196C32.1339 107.22 36.5128 107.175 40.1207 106.718C41.5238 106.542 42.7777 106.088 43.845 105.387Z" fill="#E5B848"/>
<path d="M40.1406 92.1772C40.1406 92.1772 43.8717 92.622 46.2258 93.3765C46.6965 93.5279 47.165 93.677 47.6147 93.8262C47.6973 94.3015 47.7588 94.7676 47.8017 95.2246C46.1784 93.9329 42.6251 93.23 39.5586 92.2671C39.9349 92.2082 40.1406 92.1772 40.1406 92.1772Z" fill="#E5B848"/>
<path d="M44.2338 105.125L46.5313 112.944C46.5313 112.944 46.2024 113.538 45.0977 114.321C44.2839 114.901 43.0442 115.584 41.2033 116.207C38.3762 117.164 36.4573 117.503 35.4661 117.621C34.9407 117.687 34.6757 117.687 34.6757 117.687L30.6914 109.539C36.585 109.234 41.9058 107.192 43.8625 105.385L43.8602 105.382C43.9879 105.302 44.1134 105.214 44.2342 105.122V105.125H44.2338Z" fill="#FBD15B"/>
<path d="M47.8367 95.9406C48.0685 100.098 46.6987 103.325 44.2238 105.146C44.1029 105.239 43.9779 105.326 43.8498 105.407C42.7829 106.107 41.529 106.561 40.1259 106.739C36.518 107.195 32.1387 107.24 29.5364 107.217C28.455 107.207 27.6791 107.186 27.3931 107.176C27.7762 107.094 27.6795 106.074 27.3862 104.888C27.1568 103.957 26.8042 102.927 26.4707 102.175C25.7728 100.599 24.2516 96.6932 21.888 95.7467C21.5546 95.614 21.2066 95.5387 20.8398 95.5387C21.945 95.3162 23.0899 95.094 24.2444 94.8787C30.7364 93.6649 37.5478 92.6003 39.5447 92.2952C42.6108 93.2581 46.1645 93.9609 47.7878 95.2527C47.8084 95.484 47.8249 95.7135 47.8367 95.9406Z" fill="#FBD15B"/>
<path d="M47.6011 93.8325C47.1514 93.6833 46.683 93.5346 46.2122 93.3828C43.7044 79.5708 46.8795 64.9163 47.7097 56.3494H47.7308C47.8279 58.1382 48.2348 60.1493 48.9326 61.765C49.6351 63.3928 50.6313 64.6181 51.897 64.8028C51.897 64.8028 49.9357 72.9323 49.8034 78.596C49.6898 83.4652 50.5487 92.9526 50.7923 95.5097C50.5819 94.9158 49.229 94.3763 47.6011 93.8325Z" fill="#7782E5"/>
<path d="M60.2642 63.8287C60.4462 63.8547 60.6286 63.8784 60.8129 63.9044C60.7915 63.9683 60.0959 66.1946 59.6156 65.9319C59.3862 65.8065 59.3223 65.1866 59.3437 64.3778C59.3483 64.1648 59.3579 63.94 59.3743 63.7056L59.4833 63.7128C59.7391 63.753 60.0015 63.7908 60.2642 63.8287Z" fill="#7782E5"/>
<path d="M16.3 67.1786C16.0469 67.4294 14.6675 65.8822 14.2109 65.3545C14.3291 65.2696 14.4499 65.1844 14.5681 65.0991L14.5704 65.0968C14.9444 64.8295 15.3157 64.5645 15.6824 64.3044C15.8124 64.5882 15.9237 64.8532 16.0159 65.0995C16.4514 66.2513 16.4962 66.9874 16.3 67.1786Z" fill="#7782E5"/>
<path d="M59.6291 65.9343L51.9019 64.7985C50.6361 64.6138 49.64 63.3886 48.9375 61.7607C52.9218 63.1802 59.3568 64.3798 59.3568 64.3798C59.3358 65.1894 59.3997 65.8089 59.6291 65.9343Z" fill="#878CF0"/>
<path d="M21.8823 63.2564L16.2916 67.1719C16.4877 66.9803 16.443 66.2445 16.0078 65.0924C16.0078 65.0924 20.8601 61.6217 21.5416 60.0225C21.6265 61.0469 21.74 62.128 21.8823 63.2564Z" fill="#878CF0"/>
<path d="M15.6666 64.3048C15.4655 63.8623 15.2146 63.3748 14.9117 62.8497C14.098 61.4349 13.0758 60.1764 12.1886 59.542C12.106 59.4712 12.0277 59.4192 11.9569 59.3882C11.4196 59.064 10.9466 59.0005 10.625 59.3125C10.9137 59.0215 20.1832 49.7234 22.7407 49.4611C22.9204 49.4423 23.1831 49.4351 23.512 49.4351C21.5411 49.8373 21.0302 53.9608 21.5338 60.0295C20.8524 61.6287 16.0001 65.0994 16.0001 65.0994C15.9079 64.8535 15.7966 64.5885 15.6666 64.3048Z" fill="#9DA6F4"/>
<path d="M61.239 55.4951L61.2367 55.4978C60.3044 56.5861 59.81 59.8059 59.6257 61.3248C59.5335 62.0701 59.4364 62.9359 59.3844 63.7167C59.3679 63.9512 59.3584 64.176 59.3538 64.389C59.3538 64.389 52.9187 63.1894 48.9345 61.7699C48.2366 60.1539 47.8297 58.1428 47.7326 56.3543C47.6025 53.9104 48.0568 51.8875 49.152 51.8806C53.3516 52.8125 61.8474 55.1287 61.8474 55.1287C61.6272 55.1471 61.4237 55.2798 61.239 55.4951Z" fill="#9DA6F4"/>
<path d="M48.4713 51.7249C48.6866 51.7696 48.9183 51.8193 49.1669 51.874C48.0717 51.8809 47.6174 53.9042 47.7474 56.3478H47.7264C46.8958 64.9147 43.7207 79.5692 46.2289 93.3812C43.8748 92.6267 40.1437 92.1819 40.1437 92.1819C40.1437 92.1819 39.938 92.2125 39.5617 92.2718C37.5648 92.577 30.7534 93.6416 24.2614 94.8553C24.2614 94.8553 25.2289 83.0896 24.7795 79.5692C24.2281 75.2656 21.8932 63.2635 21.8932 63.2635C21.7513 62.135 21.6377 61.054 21.5524 60.0295C21.0484 53.9608 21.5597 49.8373 23.5306 49.4351H23.5352C25.222 49.4351 28.7164 49.6576 32.5943 49.9769V51.2262V51.8155C32.5943 51.8155 33.1718 53.0147 35.6157 53.2797C38.0573 53.547 39.1694 52.3027 39.1694 52.3027L39.3774 50.5945C43.4412 50.9983 47.0277 51.4293 48.4713 51.7249Z" fill="#878CF0"/>
<path d="M43.2717 38.8692C45.5359 39.4015 45.4483 43.3548 44.1612 45.3517C43.17 46.8893 40.8916 48.9004 39.8932 49.7474C39.8056 49.0564 40.1012 48.4748 40.4561 47.9207L40.4583 47.9184C40.7471 47.4713 41.0759 47.0453 41.2725 46.596C41.7623 45.4863 41.3623 44.5521 40.6951 44.4194C40.0304 44.2871 38.7857 46.6836 38.5635 46.5509C38.3433 46.4186 38.876 44.8641 38.9207 44.5092C38.9632 44.1544 38.1658 43.31 38.0312 42.9054C37.8989 42.5032 38.3861 40.6887 37.8989 39.7564C37.4091 38.8244 32.881 37.5797 32.881 37.5797C30.7044 36.1155 31.904 32.9614 31.904 32.9614L33.5128 34.0283L34.2129 32.4739C35.2776 33.761 37.1444 34.3832 37.1444 34.3832L37.3666 33.5836C42.7841 35.1832 43.2717 38.8692 43.2717 38.8692Z" fill="#56548C"/>
<path d="M32.5682 49.9649V49.8039C32.5682 49.8039 29.9938 48.8716 29.8164 48.6494C32.1399 49.366 35.3123 49.5412 36.0435 49.1745L32.5705 51.2138H32.5682V49.9649Z" fill="#EFAC92"/>
<path d="M38.6002 47.3768C39.4449 47.6418 40.5095 47.888 41.2854 46.5771C41.0889 47.0269 40.76 47.4525 40.4713 47.8995L40.469 47.9018C40.4097 47.9374 39.2954 48.6115 38.8224 48.3966C38.3329 48.1764 38.6002 47.3768 38.6002 47.3768Z" fill="#EFAC92"/>
<path d="M32.5904 51.2385L36.0634 49.1991C35.3323 49.5659 32.1598 49.3907 29.8364 48.6741C29.6589 48.4516 28.9469 46.0975 30.1465 42.8968C31.3461 39.698 32.9006 37.571 32.9006 37.571C32.9006 37.571 37.429 38.8158 37.9184 39.7477C38.4056 40.68 37.9184 42.4945 38.0508 42.8968C38.1854 43.3014 38.9831 44.1457 38.9402 44.5006C38.8955 44.8554 38.3628 46.4099 38.5831 46.5422C38.8056 46.6749 40.05 44.2784 40.7146 44.4107C41.3819 44.5434 41.7815 45.4776 41.292 46.5873C40.5161 47.8982 39.4511 47.6519 38.6068 47.3869C38.6068 47.3869 38.3395 48.1865 38.8289 48.4068C39.302 48.6221 40.4163 47.9475 40.4756 47.912C40.1207 48.4657 39.8251 49.0477 39.9127 49.7387C39.6121 49.9915 39.4274 50.141 39.4274 50.141L39.3708 50.6072L39.1628 52.3153C39.1628 52.3153 38.0508 53.5597 35.6091 53.2924C33.1652 53.0274 32.5877 51.8282 32.5877 51.8282V51.2389L32.5904 51.2385Z" fill="#FFC8AF"/>
<path d="M9.12174 41.0281C8.79288 41.7994 8.54202 42.4074 8.54202 42.4074C7.02771 43.0059 5.97266 44.2907 5.97266 44.2907C5.97266 44.2907 6.08623 43.2923 6.63039 42.6938C7.17225 42.0927 9.12174 41.0281 9.12174 41.0281Z" fill="#EFAC92"/>
<path d="M9.68727 60.2385L7.55078 64.9256C7.55078 64.9256 7.75193 63.726 7.75193 62.1291L9.68727 60.2385Z" fill="#EFAC92"/>
<path d="M14.9223 62.849C15.2252 63.3741 15.476 63.8616 15.6772 64.3041C15.3104 64.5641 14.9391 64.8291 14.5651 65.0964C15.2324 64.3844 13.2711 60.4426 12.1992 59.5413C13.0864 60.1753 14.1086 61.4338 14.9223 62.849Z" fill="#EFAC92"/>
<path d="M84.4698 35.9586C83.9352 35.8664 83.6277 37.7804 82.9463 37.4634L82.4044 37.0282C84.0442 36.5834 82.8966 35.2064 80.6251 33.9877C80.2748 33.7108 79.9746 33.5124 79.8328 33.4745C79.8328 33.4745 79.679 32.6799 80.0079 32.3602C80.0741 32.2917 80.1616 32.2466 80.2752 32.2302C80.9425 32.1426 82.2744 31.7426 83.074 32.2302C83.8736 32.72 85.7829 34.4516 85.7382 35.2512C85.7241 35.5093 85.5252 35.9942 85.2461 36.5834L84.4698 35.9586Z" fill="#FFC8AF"/>
<path d="M61.2434 55.4949C60.1738 57.2975 59.8545 62.2875 60.2805 63.8347V63.837C60.0178 63.7991 59.7551 63.7613 59.4996 63.7211L59.3906 63.7139C59.4426 62.933 59.5398 62.0672 59.6319 61.3219C59.8166 59.8034 60.3115 56.5832 61.2434 55.4949Z" fill="#EFAC92"/>
<path d="M80.6328 33.9961C82.9043 35.2148 84.0515 36.5918 82.4121 37.0366L81.6313 36.4071C81.9483 36.4354 82.2557 36.4071 82.4359 36.258C82.7884 35.9647 81.5437 34.7177 80.6328 33.9961Z" fill="#EFAC92"/>
<path d="M82.9603 37.4581L83.3577 37.7774L81.3325 39.0645C81.8954 37.0726 80.6036 36.1992 80.5352 36.1567C80.5799 36.1709 81.1195 36.3533 81.6376 36.3934L82.4185 37.0229L82.9603 37.4581Z" fill="#EFAC92"/>
<path d="M14.5614 65.0934C14.4432 65.1787 14.3224 65.2639 14.2042 65.3488C10.7714 67.8096 7.17262 70.4118 4.62926 71.1051C1.69776 71.9048 1.03314 70.7717 0.167002 67.2417C-0.67046 63.8253 1.88705 47.9858 2.41706 45.6199L2.46448 45.6295C2.80749 44.3729 3.32106 41.4345 3.89122 40.8055C4.46368 40.1787 5.66098 38.1225 6.46058 37.5241C7.26057 36.9256 9.80125 36.3245 10.2295 36.2675C10.6578 36.2105 10.9699 37.0954 10.3714 38.2667C10.0426 38.908 9.52669 40.0885 9.12479 41.0254C9.12479 41.0254 7.1753 42.09 6.63343 42.6911C6.08927 43.2896 5.9757 44.288 5.9757 44.288C5.9757 44.288 7.03075 43.0031 8.54506 42.4047C8.88808 42.2911 9.31637 41.8915 9.80126 41.2621C10.2865 40.6349 10.9133 40.6919 11.1144 40.8055C11.3133 40.9213 11.3133 41.5485 10.9699 41.9768C10.6292 42.4051 9.71368 43.6047 9.20012 44.688C8.68655 45.7717 6.48888 46.8574 6.48888 46.8574C5.95658 49.1216 6.76077 52.72 7.16077 55.3842C7.56076 58.0484 7.76152 62.1129 7.76152 62.1129C7.76152 63.7099 7.56038 64.9095 7.56038 64.9095L9.69686 60.2223L9.69916 60.2178L10.6265 59.3138L10.6334 59.3065C10.955 58.9945 11.4284 59.0579 11.9653 59.3822C12.041 59.4296 12.119 59.4793 12.197 59.5359C13.2689 60.4376 15.2302 64.3791 14.5629 65.0911L14.5614 65.0934Z" fill="#FFC8AF"/>
<path d="M60.8172 63.911C60.6325 63.885 60.4505 63.8613 60.2684 63.8353V63.833C59.8424 62.2858 60.1617 57.2958 61.2313 55.4932L61.2336 55.4905C61.4183 55.2752 61.6218 55.1429 61.8416 55.1238C65.1276 56.0794 69.391 57.1895 69.391 57.1895C69.391 57.1895 71.0778 51.7265 73.6093 48.5751C76.1408 45.4215 79.0272 39.1589 79.1599 38.8487C79.2949 38.539 78.0953 37.1172 78.0502 36.7172C78.005 36.3268 78.3859 34.4174 78.7339 34.0767L78.7599 34.053C79.1006 33.7953 79.7748 33.4993 79.8245 33.4756H79.8268C79.9687 33.5134 80.2693 33.7123 80.6192 33.9888C81.53 34.7104 82.7748 35.9574 82.4222 36.2507C82.2425 36.3998 81.9346 36.4281 81.6176 36.3998C81.0994 36.3597 80.5599 36.1773 80.5151 36.1631C80.5836 36.2056 81.8753 37.0786 81.3124 39.0709L83.3376 37.7837L84.2558 38.5241C83.8795 39.2575 83.5269 39.9581 83.3357 40.4475C82.8011 41.8246 80.2692 51.2837 78.0054 56.7888C75.7412 62.2965 73.9646 64.516 73.4323 64.7385C72.9397 64.9446 66.3674 64.6559 60.8172 63.911Z" fill="#FFC8AF"/>
<path d="M62.346 22.4165C63.1315 22.1305 63.7965 21.6762 64.3051 21.0445C64.8114 20.415 65.1165 19.6697 65.2278 18.8395C65.3414 18.0116 65.2611 17.1007 64.9888 16.1661C64.4492 14.2947 63.1479 12.3356 61.213 10.7766C59.7602 9.60526 58.1656 8.83204 56.6398 8.46302C55.1114 8.094 53.6563 8.13415 52.4781 8.56474C51.6927 8.85116 51.0277 9.30507 50.5191 9.93451C50.0128 10.5639 49.7099 11.3115 49.5963 12.1394C49.4828 12.9677 49.5657 13.8782 49.8353 14.8128C50.3749 16.6843 51.6762 18.6456 53.6139 20.2047C55.0643 21.3733 56.6589 22.1496 58.187 22.5159C59.7128 22.885 61.1678 22.8448 62.346 22.4165Z" fill="#BEE1F4"/>
<path d="M16.4723 7.20619C16.065 6.09798 15.4249 5.05632 14.5354 4.16685C13.646 3.27738 12.6039 2.63724 11.4961 2.22998C11.9034 3.33818 12.5435 4.37985 13.433 5.26932C14.3224 6.15879 15.3641 6.79893 16.4723 7.20619Z" fill="#D3DCE0"/>
<path d="M17.1166 6.55515C17.1881 5.37658 17.0199 4.1659 16.5617 2.99383C16.1036 1.82215 15.4065 0.81796 14.5549 0C14.4834 1.17857 14.6516 2.38925 15.1098 3.56132C15.5679 4.733 16.2654 5.73719 17.1166 6.55515Z" fill="#D3DCE0"/>
<path d="M15.8208 7.85147C14.6422 7.92298 13.4315 7.75473 12.2595 7.29661C11.0878 6.83849 10.0836 6.14137 9.26562 5.28976C10.4442 5.21825 11.6549 5.38651 12.8269 5.84462C13.9986 6.30236 15.0028 6.99986 15.8208 7.85147Z" fill="#D3DCE0"/>
<path d="M18.1767 8.87837C18.7216 8.33344 18.7216 7.44971 18.1767 6.90479L16.2031 8.87837C16.748 9.42329 17.6318 9.42329 18.1767 8.87837Z" fill="#878CF0"/>
<path d="M17.6648 6.41458L15.6914 8.38794L16.0448 8.74135L18.0182 6.76799L17.6648 6.41458Z" fill="#FBD15B"/>
<path d="M65.1729 17.8046L63.7897 16.6574L64.7239 15.3924C64.6972 15.3251 64.6643 15.2574 64.636 15.1898L63.6425 16.535L62.2593 15.3878L63.4016 13.8406L64.4035 14.6716C64.3297 14.5225 64.2482 14.3741 64.1652 14.2257L63.5151 13.6865L63.6899 13.4498C63.652 13.3936 63.6153 13.3378 63.5759 13.2819L63.3675 13.5642L61.9848 12.4173L62.397 11.859C62.3526 11.8128 62.3056 11.768 62.2601 11.7225L61.8372 12.295L60.454 11.1478L60.9068 10.5348C60.8559 10.4961 60.8058 10.4564 60.7546 10.4189L60.3068 11.0254L58.9236 9.87818L59.2326 9.45983C59.1756 9.42962 59.119 9.39788 59.0624 9.36882L58.7764 9.7562L57.521 8.71491C57.36 8.66023 57.1994 8.60937 57.0391 8.56348L57.1321 8.64072L55.9898 10.1875L54.6067 9.04034L55.2055 8.22926C55.1306 8.22352 55.0549 8.21511 54.9811 8.21167L54.4595 8.91797L53.6767 8.26865C53.591 8.28012 53.5038 8.2893 53.4201 8.30421L54.3455 9.07169L53.2033 10.6189L51.8201 9.47169L52.5031 8.54665C52.4947 8.54971 52.4855 8.55201 52.4767 8.55507C52.3654 8.5956 52.2626 8.64723 52.1563 8.69464L51.6729 9.3497L51.3895 9.1149C51.336 9.152 51.2893 9.1975 51.2373 9.23727L51.5589 9.50381L50.4167 11.0506L50.0232 10.7244C49.9945 10.7833 49.9616 10.8399 49.9356 10.9L50.3031 11.2047L49.5926 12.1672C49.5773 12.2846 49.5727 12.4059 49.5651 12.5263L50.4507 11.3271L51.8339 12.4743L50.6916 14.0215L49.5586 13.0816C49.5617 13.1668 49.5613 13.2514 49.5682 13.3378L50.5781 14.1752L49.9223 15.0636C49.946 15.1374 49.9704 15.2108 49.9968 15.2846L50.7257 14.2976L52.1088 15.4448L50.9666 16.992L50.6572 16.7354C50.7601 16.9197 50.8714 17.1025 50.988 17.2849L51.0002 17.2685L52.3834 18.4157L52.1199 18.7729C52.1639 18.8218 52.2033 18.8723 52.2484 18.9209L52.531 18.5381L53.9142 19.6853L53.5669 20.1556C53.583 20.1686 53.5975 20.1828 53.6136 20.1962C53.6476 20.2237 53.6824 20.2478 53.7168 20.2749L54.0618 19.8076L55.4445 20.9545L55.1994 21.2864C55.2549 21.3189 55.3103 21.351 55.3661 21.3824L55.5918 21.0765L56.7638 22.0485C56.9435 22.12 57.1229 22.1862 57.3026 22.247L57.2361 22.1919L58.3783 20.6447L59.7615 21.7919L59.1076 22.6776C59.1791 22.6875 59.2517 22.7005 59.3225 22.7082L59.9087 21.9139L60.888 22.7261C60.976 22.7177 61.0609 22.704 61.1469 22.6925L60.0223 21.7598L61.1645 20.2126L62.5477 21.3598L61.6257 22.6088C61.7217 22.5881 61.8184 22.569 61.9113 22.5437L62.6949 21.4822L63.2608 21.9518C63.3178 21.9158 63.379 21.8852 63.4341 21.847L62.8088 21.3285L63.9511 19.7816L64.7121 20.4126C64.7434 20.3552 64.7713 20.296 64.8 20.2371L64.065 19.6275L65.2073 18.0807L65.2742 18.1362C65.2757 17.9893 65.2677 17.8398 65.2581 17.6895L65.1729 17.8046ZM63.5285 16.6892L62.3863 18.236L61.0031 17.0888L62.1454 15.5416L63.5285 16.6892ZM57.7948 14.4284L56.4116 13.2812L57.5539 11.734L58.937 12.8812L57.7948 14.4284ZM59.0846 13.0036L60.4678 14.1508L59.3255 15.698L57.9424 14.5508L59.0846 13.0036ZM57.6812 14.5821L56.539 16.1293L55.1558 14.9821L56.2981 13.4353L57.6812 14.5821ZM55.0082 14.8597L53.6251 13.7125L54.7673 12.1657L56.1504 13.3129L55.0082 14.8597ZM54.8946 15.0139L53.7524 16.5607L52.3692 15.4135L53.5115 13.8663L54.8946 15.0139ZM55.0419 15.1362L56.425 16.2834L55.2828 17.8306L53.8996 16.6834L55.0419 15.1362ZM56.5726 16.4054L57.9558 17.5526L56.8135 19.0994L55.4308 17.9526L56.5726 16.4054ZM56.6862 16.2513L57.8284 14.7045L59.2116 15.8517L58.0693 17.3985L56.6862 16.2513ZM59.3588 15.9741L60.742 17.1209L59.5997 18.6677L58.2166 17.5205L59.3588 15.9741ZM59.4728 15.82L60.615 14.2728L61.9978 15.42L60.8555 16.9672L59.4728 15.82ZM61.8712 12.5718L63.254 13.7187L62.1117 15.2659L60.729 14.1186L61.8712 12.5718ZM60.3404 11.3022L61.7236 12.4495L60.5813 13.9963L59.1982 12.8491L60.3404 11.3022ZM58.8101 10.0327L60.1932 11.1799L59.051 12.7271L57.6678 11.5799L58.8101 10.0327ZM57.2797 8.76348L58.6628 9.91069L57.5206 11.4579L56.1374 10.3107L57.2797 8.76348ZM56.0235 10.4644L57.4066 11.6116L56.2644 13.1588L54.8812 12.0116L56.0235 10.4644ZM54.4931 9.19521L55.8763 10.3424L54.734 11.8896L53.3509 10.7424L54.4931 9.19521ZM53.2369 10.8961L54.6201 12.0433L53.4778 13.5902L52.0947 12.443L53.2369 10.8961ZM50.5643 11.1738L51.7066 9.62694L53.0897 10.7741L51.9475 12.321L50.5643 11.1738ZM50.8389 14.1443L51.9811 12.5971L53.3643 13.7443L52.222 15.2915L50.8389 14.1443ZM52.4966 18.262L51.1134 17.1148L52.2557 15.568L53.6388 16.7152L52.4966 18.262ZM54.027 19.5316L52.6438 18.3843L53.7861 16.8371L55.1692 17.9844L54.027 19.5316ZM55.5573 20.8007L54.1746 19.6539L55.3168 18.1067L56.6996 19.2535L55.5573 20.8007ZM57.0877 22.0699L55.7046 20.9227L56.8468 19.3755L58.23 20.5227L57.0877 22.0699ZM58.3435 20.369L56.9604 19.2218L58.1026 17.6746L59.4858 18.8218L58.3435 20.369ZM59.8743 21.6382L58.4911 20.491L59.6334 18.9438L61.0165 20.091L59.8743 21.6382ZM61.1301 19.9373L59.7469 18.7901L60.8892 17.2433L62.2723 18.3905L61.1301 19.9373ZM62.6609 21.2069L61.2777 20.0597L62.4199 18.5128L63.8031 19.66L62.6609 21.2069ZM63.9167 19.5059L62.5335 18.3587L63.6758 16.8115L65.0589 17.9587L63.9167 19.5059Z" fill="#F9FBFC"/>
</svg>
