<svg width="513" height="108" viewBox="0 0 513 141" fill="none" xmlns="http://www.w3.org/2000/svg">
<path d="M80.3505 24.62C81.3371 24.62 82.1971 24.5 82.9305 24.26C83.6638 24.0067 84.2705 23.6533 84.7505 23.2C85.2438 22.7333 85.6105 22.1733 85.8505 21.52C86.0905 20.8533 86.2105 20.1133 86.2105 19.3C86.2105 18.5267 86.0905 17.8267 85.8505 17.2C85.6105 16.5733 85.2505 16.04 84.7705 15.6C84.2905 15.16 83.6838 14.8267 82.9505 14.6C82.2171 14.36 81.3505 14.24 80.3505 14.24H76.3305V24.62H80.3505ZM80.3505 10.08C82.2838 10.08 83.9571 10.3067 85.3705 10.76C86.7838 11.2133 87.9505 11.8467 88.8705 12.66C89.7905 13.4733 90.4705 14.4467 90.9105 15.58C91.3638 16.7133 91.5905 17.9533 91.5905 19.3C91.5905 20.7 91.3571 21.9867 90.8905 23.16C90.4238 24.32 89.7238 25.32 88.7905 26.16C87.8571 27 86.6838 27.6533 85.2705 28.12C83.8705 28.5867 82.2305 28.82 80.3505 28.82H76.3305V39H70.9505V10.08H80.3505ZM103.079 18.16C104.599 18.16 105.979 18.4067 107.219 18.9C108.472 19.3933 109.539 20.0933 110.419 21C111.312 21.9067 111.999 23.0133 112.479 24.32C112.959 25.6267 113.199 27.0867 113.199 28.7C113.199 30.3267 112.959 31.7933 112.479 33.1C111.999 34.4067 111.312 35.52 110.419 36.44C109.539 37.36 108.472 38.0667 107.219 38.56C105.979 39.0533 104.599 39.3 103.079 39.3C101.545 39.3 100.152 39.0533 98.8986 38.56C97.6453 38.0667 96.5719 37.36 95.6786 36.44C94.7986 35.52 94.1119 34.4067 93.6186 33.1C93.1386 31.7933 92.8986 30.3267 92.8986 28.7C92.8986 27.0867 93.1386 25.6267 93.6186 24.32C94.1119 23.0133 94.7986 21.9067 95.6786 21C96.5719 20.0933 97.6453 19.3933 98.8986 18.9C100.152 18.4067 101.545 18.16 103.079 18.16ZM103.079 35.5C104.785 35.5 106.045 34.9267 106.859 33.78C107.685 32.6333 108.099 30.9533 108.099 28.74C108.099 26.5267 107.685 24.84 106.859 23.68C106.045 22.52 104.785 21.94 103.079 21.94C101.345 21.94 100.059 22.5267 99.2186 23.7C98.3919 24.86 97.9786 26.54 97.9786 28.74C97.9786 30.94 98.3919 32.62 99.2186 33.78C100.059 34.9267 101.345 35.5 103.079 35.5ZM145.916 18.48L139.396 39H135.436C134.982 39 134.669 38.7067 134.496 38.12L130.816 26.26C130.696 25.86 130.582 25.4667 130.476 25.08C130.382 24.68 130.302 24.28 130.236 23.88C130.156 24.28 130.062 24.6867 129.956 25.1C129.862 25.5 129.756 25.9 129.636 26.3L125.896 38.12C125.736 38.7067 125.382 39 124.836 39H121.036L114.536 18.48H118.476C118.836 18.48 119.142 18.5667 119.396 18.74C119.649 18.9133 119.816 19.1333 119.896 19.4L122.836 30.36C122.982 30.96 123.109 31.5467 123.216 32.12C123.336 32.6933 123.436 33.2667 123.516 33.84C123.662 33.2667 123.816 32.6933 123.976 32.12C124.149 31.5467 124.329 30.96 124.516 30.36L127.916 19.36C127.996 19.0933 128.149 18.8733 128.376 18.7C128.616 18.5267 128.902 18.44 129.236 18.44H131.416C131.762 18.44 132.056 18.5267 132.296 18.7C132.549 18.8733 132.716 19.0933 132.796 19.36L136.096 30.36C136.269 30.96 136.429 31.5533 136.576 32.14C136.736 32.7133 136.889 33.2867 137.036 33.86C137.209 32.7267 137.456 31.56 137.776 30.36L140.796 19.4C140.889 19.1333 141.056 18.9133 141.296 18.74C141.536 18.5667 141.822 18.48 142.156 18.48H145.916ZM161.594 26.38C161.594 25.74 161.5 25.14 161.314 24.58C161.14 24.0067 160.874 23.5067 160.514 23.08C160.154 22.6533 159.694 22.32 159.134 22.08C158.587 21.8267 157.947 21.7 157.214 21.7C155.787 21.7 154.66 22.1067 153.834 22.92C153.02 23.7333 152.5 24.8867 152.274 26.38H161.594ZM152.174 29.36C152.254 30.4133 152.44 31.3267 152.734 32.1C153.027 32.86 153.414 33.4933 153.894 34C154.374 34.4933 154.94 34.8667 155.594 35.12C156.26 35.36 156.994 35.48 157.794 35.48C158.594 35.48 159.28 35.3867 159.854 35.2C160.44 35.0133 160.947 34.8067 161.374 34.58C161.814 34.3533 162.194 34.1467 162.514 33.96C162.847 33.7733 163.167 33.68 163.474 33.68C163.887 33.68 164.194 33.8333 164.394 34.14L165.814 35.94C165.267 36.58 164.654 37.12 163.974 37.56C163.294 37.9867 162.58 38.3333 161.834 38.6C161.1 38.8533 160.347 39.0333 159.574 39.14C158.814 39.2467 158.074 39.3 157.354 39.3C155.927 39.3 154.6 39.0667 153.374 38.6C152.147 38.12 151.08 37.42 150.174 36.5C149.267 35.5667 148.554 34.42 148.034 33.06C147.514 31.6867 147.254 30.1 147.254 28.3C147.254 26.9 147.48 25.5867 147.934 24.36C148.387 23.12 149.034 22.0467 149.874 21.14C150.727 20.22 151.76 19.4933 152.974 18.96C154.2 18.4267 155.58 18.16 157.114 18.16C158.407 18.16 159.6 18.3667 160.694 18.78C161.787 19.1933 162.727 19.8 163.514 20.6C164.3 21.3867 164.914 22.36 165.354 23.52C165.807 24.6667 166.034 25.98 166.034 27.46C166.034 28.2067 165.954 28.7133 165.794 28.98C165.634 29.2333 165.327 29.36 164.874 29.36H152.174ZM174.401 22.04C175.041 20.8133 175.801 19.8533 176.681 19.16C177.561 18.4533 178.601 18.1 179.801 18.1C180.747 18.1 181.507 18.3067 182.081 18.72L181.761 22.42C181.694 22.66 181.594 22.8333 181.461 22.94C181.341 23.0333 181.174 23.08 180.961 23.08C180.761 23.08 180.461 23.0467 180.061 22.98C179.674 22.9133 179.294 22.88 178.921 22.88C178.374 22.88 177.887 22.96 177.461 23.12C177.034 23.28 176.647 23.5133 176.301 23.82C175.967 24.1133 175.667 24.4733 175.401 24.9C175.147 25.3267 174.907 25.8133 174.681 26.36V39H169.741V18.48H172.641C173.147 18.48 173.501 18.5733 173.701 18.76C173.901 18.9333 174.034 19.2533 174.101 19.72L174.401 22.04ZM186.103 39V22.2L184.323 21.92C183.936 21.84 183.623 21.7067 183.383 21.52C183.156 21.32 183.043 21.04 183.043 20.68V18.66H186.103V17.14C186.103 15.9667 186.276 14.9133 186.623 13.98C186.983 13.0467 187.489 12.2533 188.143 11.6C188.809 10.9467 189.616 10.4467 190.563 10.1C191.509 9.75333 192.576 9.58 193.763 9.58C194.709 9.58 195.589 9.70667 196.403 9.96L196.303 12.44C196.289 12.6267 196.236 12.78 196.143 12.9C196.049 13.0067 195.923 13.0933 195.763 13.16C195.616 13.2133 195.443 13.2533 195.243 13.28C195.043 13.2933 194.829 13.3 194.603 13.3C194.016 13.3 193.489 13.3667 193.023 13.5C192.569 13.62 192.183 13.84 191.863 14.16C191.543 14.4667 191.296 14.88 191.123 15.4C190.963 15.9067 190.883 16.54 190.883 17.3V18.66H196.223V22.18H191.043V39H186.103ZM216.679 18.48V39H213.659C213.005 39 212.592 38.7 212.419 38.1L212.079 36.46C211.239 37.3133 210.312 38.0067 209.299 38.54C208.285 39.06 207.092 39.32 205.719 39.32C204.599 39.32 203.605 39.1333 202.739 38.76C201.885 38.3733 201.165 37.8333 200.579 37.14C199.992 36.4467 199.545 35.6267 199.239 34.68C198.945 33.72 198.799 32.6667 198.799 31.52V18.48H203.739V31.52C203.739 32.7733 204.025 33.7467 204.599 34.44C205.185 35.12 206.059 35.46 207.219 35.46C208.072 35.46 208.872 35.2733 209.619 34.9C210.365 34.5133 211.072 33.9867 211.739 33.32V18.48H216.679ZM226.577 9.28V39H221.637V9.28H226.577ZM242.665 39V22.2L240.885 21.92C240.498 21.84 240.185 21.7067 239.945 21.52C239.718 21.32 239.605 21.04 239.605 20.68V18.66H242.665V17.14C242.665 15.9667 242.838 14.9133 243.185 13.98C243.545 13.0467 244.052 12.2533 244.705 11.6C245.372 10.9467 246.178 10.4467 247.125 10.1C248.072 9.75333 249.138 9.58 250.325 9.58C251.272 9.58 252.152 9.70667 252.965 9.96L252.865 12.44C252.852 12.6267 252.798 12.78 252.705 12.9C252.612 13.0067 252.485 13.0933 252.325 13.16C252.178 13.2133 252.005 13.2533 251.805 13.28C251.605 13.2933 251.392 13.3 251.165 13.3C250.578 13.3 250.052 13.3667 249.585 13.5C249.132 13.62 248.745 13.84 248.425 14.16C248.105 14.4667 247.858 14.88 247.685 15.4C247.525 15.9067 247.445 16.54 247.445 17.3V18.66H252.785V22.18H247.605V39H242.665ZM268.234 26.38C268.234 25.74 268.141 25.14 267.954 24.58C267.781 24.0067 267.514 23.5067 267.154 23.08C266.794 22.6533 266.334 22.32 265.774 22.08C265.228 21.8267 264.588 21.7 263.854 21.7C262.428 21.7 261.301 22.1067 260.474 22.92C259.661 23.7333 259.141 24.8867 258.914 26.38H268.234ZM258.814 29.36C258.894 30.4133 259.081 31.3267 259.374 32.1C259.668 32.86 260.054 33.4933 260.534 34C261.014 34.4933 261.581 34.8667 262.234 35.12C262.901 35.36 263.634 35.48 264.434 35.48C265.234 35.48 265.921 35.3867 266.494 35.2C267.081 35.0133 267.588 34.8067 268.014 34.58C268.454 34.3533 268.834 34.1467 269.154 33.96C269.488 33.7733 269.808 33.68 270.114 33.68C270.528 33.68 270.834 33.8333 271.034 34.14L272.454 35.94C271.908 36.58 271.294 37.12 270.614 37.56C269.934 37.9867 269.221 38.3333 268.474 38.6C267.741 38.8533 266.988 39.0333 266.214 39.14C265.454 39.2467 264.714 39.3 263.994 39.3C262.568 39.3 261.241 39.0667 260.014 38.6C258.788 38.12 257.721 37.42 256.814 36.5C255.908 35.5667 255.194 34.42 254.674 33.06C254.154 31.6867 253.894 30.1 253.894 28.3C253.894 26.9 254.121 25.5867 254.574 24.36C255.028 23.12 255.674 22.0467 256.514 21.14C257.368 20.22 258.401 19.4933 259.614 18.96C260.841 18.4267 262.221 18.16 263.754 18.16C265.048 18.16 266.241 18.3667 267.334 18.78C268.428 19.1933 269.368 19.8 270.154 20.6C270.941 21.3867 271.554 22.36 271.994 23.52C272.448 24.6667 272.674 25.98 272.674 27.46C272.674 28.2067 272.594 28.7133 272.434 28.98C272.274 29.2333 271.968 29.36 271.514 29.36H258.814ZM287.221 30.24C285.795 30.3067 284.595 30.4333 283.621 30.62C282.648 30.7933 281.868 31.02 281.281 31.3C280.695 31.58 280.275 31.9067 280.021 32.28C279.768 32.6533 279.641 33.06 279.641 33.5C279.641 34.3667 279.895 34.9867 280.401 35.36C280.921 35.7333 281.595 35.92 282.421 35.92C283.435 35.92 284.308 35.74 285.041 35.38C285.788 35.0067 286.515 34.4467 287.221 33.7V30.24ZM275.901 21.34C278.261 19.18 281.101 18.1 284.421 18.1C285.621 18.1 286.695 18.3 287.641 18.7C288.588 19.0867 289.388 19.6333 290.041 20.34C290.695 21.0333 291.188 21.8667 291.521 22.84C291.868 23.8133 292.041 24.88 292.041 26.04V39H289.801C289.335 39 288.975 38.9333 288.721 38.8C288.468 38.6533 288.268 38.3667 288.121 37.94L287.681 36.46C287.161 36.9267 286.655 37.34 286.161 37.7C285.668 38.0467 285.155 38.34 284.621 38.58C284.088 38.82 283.515 39 282.901 39.12C282.301 39.2533 281.635 39.32 280.901 39.32C280.035 39.32 279.235 39.2067 278.501 38.98C277.768 38.74 277.135 38.3867 276.601 37.92C276.068 37.4533 275.655 36.8733 275.361 36.18C275.068 35.4867 274.921 34.68 274.921 33.76C274.921 33.24 275.008 32.7267 275.181 32.22C275.355 31.7 275.635 31.2067 276.021 30.74C276.421 30.2733 276.935 29.8333 277.561 29.42C278.188 29.0067 278.955 28.6467 279.861 28.34C280.781 28.0333 281.848 27.7867 283.061 27.6C284.275 27.4 285.661 27.28 287.221 27.24V26.04C287.221 24.6667 286.928 23.6533 286.341 23C285.755 22.3333 284.908 22 283.801 22C283.001 22 282.335 22.0933 281.801 22.28C281.281 22.4667 280.821 22.68 280.421 22.92C280.021 23.1467 279.655 23.3533 279.321 23.54C279.001 23.7267 278.641 23.82 278.241 23.82C277.895 23.82 277.601 23.7333 277.361 23.56C277.121 23.3733 276.928 23.16 276.781 22.92L275.901 21.34ZM303.26 39.32C301.474 39.32 300.1 38.82 299.14 37.82C298.194 36.8067 297.72 35.4133 297.72 33.64V22.18H295.62C295.354 22.18 295.127 22.0933 294.94 21.92C294.754 21.7467 294.66 21.4867 294.66 21.14V19.18L297.96 18.64L299 13.04C299.067 12.7733 299.194 12.5667 299.38 12.42C299.567 12.2733 299.807 12.2 300.1 12.2H302.66V18.66H308.14V22.18H302.66V33.3C302.66 33.94 302.814 34.44 303.12 34.8C303.44 35.16 303.874 35.34 304.42 35.34C304.727 35.34 304.98 35.3067 305.18 35.24C305.394 35.16 305.574 35.08 305.72 35C305.88 34.92 306.02 34.8467 306.14 34.78C306.26 34.7 306.38 34.66 306.5 34.66C306.647 34.66 306.767 34.7 306.86 34.78C306.954 34.8467 307.054 34.9533 307.16 35.1L308.64 37.5C307.92 38.1 307.094 38.5533 306.16 38.86C305.227 39.1667 304.26 39.32 303.26 39.32ZM328.983 18.48V39H325.963C325.31 39 324.897 38.7 324.723 38.1L324.383 36.46C323.543 37.3133 322.617 38.0067 321.603 38.54C320.59 39.06 319.397 39.32 318.023 39.32C316.903 39.32 315.91 39.1333 315.043 38.76C314.19 38.3733 313.47 37.8333 312.883 37.14C312.297 36.4467 311.85 35.6267 311.543 34.68C311.25 33.72 311.103 32.6667 311.103 31.52V18.48H316.043V31.52C316.043 32.7733 316.33 33.7467 316.903 34.44C317.49 35.12 318.363 35.46 319.523 35.46C320.377 35.46 321.177 35.2733 321.923 34.9C322.67 34.5133 323.377 33.9867 324.043 33.32V18.48H328.983ZM338.541 22.04C339.181 20.8133 339.941 19.8533 340.821 19.16C341.701 18.4533 342.741 18.1 343.941 18.1C344.888 18.1 345.648 18.3067 346.221 18.72L345.901 22.42C345.835 22.66 345.735 22.8333 345.601 22.94C345.481 23.0333 345.315 23.08 345.101 23.08C344.901 23.08 344.601 23.0467 344.201 22.98C343.815 22.9133 343.435 22.88 343.061 22.88C342.515 22.88 342.028 22.96 341.601 23.12C341.175 23.28 340.788 23.5133 340.441 23.82C340.108 24.1133 339.808 24.4733 339.541 24.9C339.288 25.3267 339.048 25.8133 338.821 26.36V39H333.881V18.48H336.781C337.288 18.48 337.641 18.5733 337.841 18.76C338.041 18.9333 338.175 19.2533 338.241 19.72L338.541 22.04ZM361.437 26.38C361.437 25.74 361.344 25.14 361.157 24.58C360.984 24.0067 360.717 23.5067 360.357 23.08C359.997 22.6533 359.537 22.32 358.977 22.08C358.431 21.8267 357.791 21.7 357.057 21.7C355.631 21.7 354.504 22.1067 353.677 22.92C352.864 23.7333 352.344 24.8867 352.117 26.38H361.437ZM352.017 29.36C352.097 30.4133 352.284 31.3267 352.577 32.1C352.871 32.86 353.257 33.4933 353.737 34C354.217 34.4933 354.784 34.8667 355.437 35.12C356.104 35.36 356.837 35.48 357.637 35.48C358.437 35.48 359.124 35.3867 359.697 35.2C360.284 35.0133 360.791 34.8067 361.217 34.58C361.657 34.3533 362.037 34.1467 362.357 33.96C362.691 33.7733 363.011 33.68 363.317 33.68C363.731 33.68 364.037 33.8333 364.237 34.14L365.657 35.94C365.111 36.58 364.497 37.12 363.817 37.56C363.137 37.9867 362.424 38.3333 361.677 38.6C360.944 38.8533 360.191 39.0333 359.417 39.14C358.657 39.2467 357.917 39.3 357.197 39.3C355.771 39.3 354.444 39.0667 353.217 38.6C351.991 38.12 350.924 37.42 350.017 36.5C349.111 35.5667 348.397 34.42 347.877 33.06C347.357 31.6867 347.097 30.1 347.097 28.3C347.097 26.9 347.324 25.5867 347.777 24.36C348.231 23.12 348.877 22.0467 349.717 21.14C350.571 20.22 351.604 19.4933 352.817 18.96C354.044 18.4267 355.424 18.16 356.957 18.16C358.251 18.16 359.444 18.3667 360.537 18.78C361.631 19.1933 362.571 19.8 363.357 20.6C364.144 21.3867 364.757 22.36 365.197 23.52C365.651 24.6667 365.877 25.98 365.877 27.46C365.877 28.2067 365.797 28.7133 365.637 28.98C365.477 29.2333 365.171 29.36 364.717 29.36H352.017ZM382.105 22.48C381.971 22.6933 381.831 22.8467 381.685 22.94C381.538 23.02 381.351 23.06 381.125 23.06C380.885 23.06 380.625 22.9933 380.345 22.86C380.078 22.7267 379.765 22.58 379.405 22.42C379.045 22.2467 378.631 22.0933 378.165 21.96C377.711 21.8267 377.171 21.76 376.545 21.76C375.571 21.76 374.805 21.9667 374.245 22.38C373.698 22.7933 373.425 23.3333 373.425 24C373.425 24.44 373.565 24.8133 373.845 25.12C374.138 25.4133 374.518 25.6733 374.985 25.9C375.465 26.1267 376.005 26.3333 376.605 26.52C377.205 26.6933 377.811 26.8867 378.425 27.1C379.051 27.3133 379.665 27.56 380.265 27.84C380.865 28.1067 381.398 28.4533 381.865 28.88C382.345 29.2933 382.725 29.7933 383.005 30.38C383.298 30.9667 383.445 31.6733 383.445 32.5C383.445 33.4867 383.265 34.4 382.905 35.24C382.558 36.0667 382.038 36.7867 381.345 37.4C380.651 38 379.791 38.4733 378.765 38.82C377.751 39.1533 376.578 39.32 375.245 39.32C374.538 39.32 373.845 39.2533 373.165 39.12C372.498 39 371.851 38.8267 371.225 38.6C370.611 38.3733 370.038 38.1067 369.505 37.8C368.985 37.4933 368.525 37.16 368.125 36.8L369.265 34.92C369.411 34.6933 369.585 34.52 369.785 34.4C369.985 34.28 370.238 34.22 370.545 34.22C370.851 34.22 371.138 34.3067 371.405 34.48C371.685 34.6533 372.005 34.84 372.365 35.04C372.725 35.24 373.145 35.4267 373.625 35.6C374.118 35.7733 374.738 35.86 375.485 35.86C376.071 35.86 376.571 35.7933 376.985 35.66C377.411 35.5133 377.758 35.3267 378.025 35.1C378.305 34.8733 378.505 34.6133 378.625 34.32C378.758 34.0133 378.825 33.7 378.825 33.38C378.825 32.9 378.678 32.5067 378.385 32.2C378.105 31.8933 377.725 31.6267 377.245 31.4C376.778 31.1733 376.238 30.9733 375.625 30.8C375.025 30.6133 374.405 30.4133 373.765 30.2C373.138 29.9867 372.518 29.74 371.905 29.46C371.305 29.1667 370.765 28.8 370.285 28.36C369.818 27.92 369.438 27.38 369.145 26.74C368.865 26.1 368.725 25.3267 368.725 24.42C368.725 23.58 368.891 22.78 369.225 22.02C369.558 21.26 370.045 20.6 370.685 20.04C371.338 19.4667 372.145 19.0133 373.105 18.68C374.078 18.3333 375.198 18.16 376.465 18.16C377.878 18.16 379.165 18.3933 380.325 18.86C381.485 19.3267 382.451 19.94 383.225 20.7L382.105 22.48ZM398.329 39V22.2L396.549 21.92C396.163 21.84 395.849 21.7067 395.609 21.52C395.383 21.32 395.269 21.04 395.269 20.68V18.66H398.329V17.14C398.329 15.9667 398.503 14.9133 398.849 13.98C399.209 13.0467 399.716 12.2533 400.369 11.6C401.036 10.9467 401.843 10.4467 402.789 10.1C403.736 9.75333 404.803 9.58 405.989 9.58C406.936 9.58 407.816 9.70667 408.629 9.96L408.529 12.44C408.516 12.6267 408.463 12.78 408.369 12.9C408.276 13.0067 408.149 13.0933 407.989 13.16C407.843 13.2133 407.669 13.2533 407.469 13.28C407.269 13.2933 407.056 13.3 406.829 13.3C406.243 13.3 405.716 13.3667 405.249 13.5C404.796 13.62 404.409 13.84 404.089 14.16C403.769 14.4667 403.523 14.88 403.349 15.4C403.189 15.9067 403.109 16.54 403.109 17.3V18.66H408.449V22.18H403.269V39H398.329ZM419.758 18.16C421.278 18.16 422.658 18.4067 423.898 18.9C425.152 19.3933 426.218 20.0933 427.098 21C427.992 21.9067 428.678 23.0133 429.158 24.32C429.638 25.6267 429.878 27.0867 429.878 28.7C429.878 30.3267 429.638 31.7933 429.158 33.1C428.678 34.4067 427.992 35.52 427.098 36.44C426.218 37.36 425.152 38.0667 423.898 38.56C422.658 39.0533 421.278 39.3 419.758 39.3C418.225 39.3 416.832 39.0533 415.578 38.56C414.325 38.0667 413.252 37.36 412.358 36.44C411.478 35.52 410.792 34.4067 410.298 33.1C409.818 31.7933 409.578 30.3267 409.578 28.7C409.578 27.0867 409.818 25.6267 410.298 24.32C410.792 23.0133 411.478 21.9067 412.358 21C413.252 20.0933 414.325 19.3933 415.578 18.9C416.832 18.4067 418.225 18.16 419.758 18.16ZM419.758 35.5C421.465 35.5 422.725 34.9267 423.538 33.78C424.365 32.6333 424.778 30.9533 424.778 28.74C424.778 26.5267 424.365 24.84 423.538 23.68C422.725 22.52 421.465 21.94 419.758 21.94C418.025 21.94 416.738 22.5267 415.898 23.7C415.072 24.86 414.658 26.54 414.658 28.74C414.658 30.94 415.072 32.62 415.898 33.78C416.738 34.9267 418.025 35.5 419.758 35.5ZM438.307 22.04C438.947 20.8133 439.707 19.8533 440.587 19.16C441.467 18.4533 442.507 18.1 443.707 18.1C444.654 18.1 445.414 18.3067 445.987 18.72L445.667 22.42C445.6 22.66 445.5 22.8333 445.367 22.94C445.247 23.0333 445.08 23.08 444.867 23.08C444.667 23.08 444.367 23.0467 443.967 22.98C443.58 22.9133 443.2 22.88 442.827 22.88C442.28 22.88 441.794 22.96 441.367 23.12C440.94 23.28 440.554 23.5133 440.207 23.82C439.874 24.1133 439.574 24.4733 439.307 24.9C439.054 25.3267 438.814 25.8133 438.587 26.36V39H433.647V18.48H436.547C437.054 18.48 437.407 18.5733 437.607 18.76C437.807 18.9333 437.94 19.2533 438.007 19.72L438.307 22.04Z" fill="#191D23"/>
<path d="M105.189 81.68C105.749 82.36 106.355 82.84 107.009 83.12C107.675 83.4 108.395 83.54 109.169 83.54C109.915 83.54 110.589 83.4 111.189 83.12C111.789 82.84 112.295 82.4133 112.709 81.84C113.135 81.2667 113.462 80.5467 113.689 79.68C113.915 78.8 114.029 77.7667 114.029 76.58C114.029 75.38 113.929 74.3667 113.729 73.54C113.542 72.7 113.269 72.02 112.909 71.5C112.549 70.98 112.109 70.6 111.589 70.36C111.082 70.12 110.502 70 109.849 70C108.822 70 107.949 70.22 107.229 70.66C106.509 71.0867 105.829 71.6933 105.189 72.48V81.68ZM104.929 69.28C105.769 68.3333 106.722 67.5667 107.789 66.98C108.855 66.3933 110.109 66.1 111.549 66.1C112.669 66.1 113.689 66.3333 114.609 66.8C115.542 67.2667 116.342 67.9467 117.009 68.84C117.689 69.72 118.209 70.8133 118.569 72.12C118.942 73.4133 119.129 74.9 119.129 76.58C119.129 78.1133 118.922 79.5333 118.509 80.84C118.095 82.1467 117.502 83.28 116.729 84.24C115.969 85.2 115.042 85.9533 113.949 86.5C112.869 87.0333 111.655 87.3 110.309 87.3C109.162 87.3 108.182 87.1267 107.369 86.78C106.555 86.42 105.829 85.9267 105.189 85.3V93.7H100.249V66.48H103.269C103.909 66.48 104.329 66.78 104.529 67.38L104.929 69.28ZM132.063 66.16C133.583 66.16 134.963 66.4067 136.203 66.9C137.456 67.3933 138.523 68.0933 139.403 69C140.296 69.9067 140.983 71.0133 141.463 72.32C141.943 73.6267 142.183 75.0867 142.183 76.7C142.183 78.3267 141.943 79.7933 141.463 81.1C140.983 82.4067 140.296 83.52 139.403 84.44C138.523 85.36 137.456 86.0667 136.203 86.56C134.963 87.0533 133.583 87.3 132.063 87.3C130.53 87.3 129.136 87.0533 127.883 86.56C126.63 86.0667 125.556 85.36 124.663 84.44C123.783 83.52 123.096 82.4067 122.603 81.1C122.123 79.7933 121.883 78.3267 121.883 76.7C121.883 75.0867 122.123 73.6267 122.603 72.32C123.096 71.0133 123.783 69.9067 124.663 69C125.556 68.0933 126.63 67.3933 127.883 66.9C129.136 66.4067 130.53 66.16 132.063 66.16ZM132.063 83.5C133.77 83.5 135.03 82.9267 135.843 81.78C136.67 80.6333 137.083 78.9533 137.083 76.74C137.083 74.5267 136.67 72.84 135.843 71.68C135.03 70.52 133.77 69.94 132.063 69.94C130.33 69.94 129.043 70.5267 128.203 71.7C127.376 72.86 126.963 74.54 126.963 76.74C126.963 78.94 127.376 80.62 128.203 81.78C129.043 82.9267 130.33 83.5 132.063 83.5ZM174.9 66.48L168.38 87H164.42C163.967 87 163.653 86.7067 163.48 86.12L159.8 74.26C159.68 73.86 159.567 73.4667 159.46 73.08C159.367 72.68 159.287 72.28 159.22 71.88C159.14 72.28 159.047 72.6867 158.94 73.1C158.847 73.5 158.74 73.9 158.62 74.3L154.88 86.12C154.72 86.7067 154.367 87 153.82 87H150.02L143.52 66.48H147.46C147.82 66.48 148.127 66.5667 148.38 66.74C148.633 66.9133 148.8 67.1333 148.88 67.4L151.82 78.36C151.967 78.96 152.093 79.5467 152.2 80.12C152.32 80.6933 152.42 81.2667 152.5 81.84C152.647 81.2667 152.8 80.6933 152.96 80.12C153.133 79.5467 153.313 78.96 153.5 78.36L156.9 67.36C156.98 67.0933 157.133 66.8733 157.36 66.7C157.6 66.5267 157.887 66.44 158.22 66.44H160.4C160.747 66.44 161.04 66.5267 161.28 66.7C161.533 66.8733 161.7 67.0933 161.78 67.36L165.08 78.36C165.253 78.96 165.413 79.5533 165.56 80.14C165.72 80.7133 165.873 81.2867 166.02 81.86C166.193 80.7267 166.44 79.56 166.76 78.36L169.78 67.4C169.873 67.1333 170.04 66.9133 170.28 66.74C170.52 66.5667 170.807 66.48 171.14 66.48H174.9ZM190.578 74.38C190.578 73.74 190.485 73.14 190.298 72.58C190.125 72.0067 189.858 71.5067 189.498 71.08C189.138 70.6533 188.678 70.32 188.118 70.08C187.571 69.8267 186.931 69.7 186.198 69.7C184.771 69.7 183.645 70.1067 182.818 70.92C182.005 71.7333 181.485 72.8867 181.258 74.38H190.578ZM181.158 77.36C181.238 78.4133 181.425 79.3267 181.718 80.1C182.011 80.86 182.398 81.4933 182.878 82C183.358 82.4933 183.925 82.8667 184.578 83.12C185.245 83.36 185.978 83.48 186.778 83.48C187.578 83.48 188.265 83.3867 188.838 83.2C189.425 83.0133 189.931 82.8067 190.358 82.58C190.798 82.3533 191.178 82.1467 191.498 81.96C191.831 81.7733 192.151 81.68 192.458 81.68C192.871 81.68 193.178 81.8333 193.378 82.14L194.798 83.94C194.251 84.58 193.638 85.12 192.958 85.56C192.278 85.9867 191.565 86.3333 190.818 86.6C190.085 86.8533 189.331 87.0333 188.558 87.14C187.798 87.2467 187.058 87.3 186.338 87.3C184.911 87.3 183.585 87.0667 182.358 86.6C181.131 86.12 180.065 85.42 179.158 84.5C178.251 83.5667 177.538 82.42 177.018 81.06C176.498 79.6867 176.238 78.1 176.238 76.3C176.238 74.9 176.465 73.5867 176.918 72.36C177.371 71.12 178.018 70.0467 178.858 69.14C179.711 68.22 180.745 67.4933 181.958 66.96C183.185 66.4267 184.565 66.16 186.098 66.16C187.391 66.16 188.585 66.3667 189.678 66.78C190.771 67.1933 191.711 67.8 192.498 68.6C193.285 69.3867 193.898 70.36 194.338 71.52C194.791 72.6667 195.018 73.98 195.018 75.46C195.018 76.2067 194.938 76.7133 194.778 76.98C194.618 77.2333 194.311 77.36 193.858 77.36H181.158ZM203.385 70.04C204.025 68.8133 204.785 67.8533 205.665 67.16C206.545 66.4533 207.585 66.1 208.785 66.1C209.732 66.1 210.492 66.3067 211.065 66.72L210.745 70.42C210.678 70.66 210.578 70.8333 210.445 70.94C210.325 71.0333 210.158 71.08 209.945 71.08C209.745 71.08 209.445 71.0467 209.045 70.98C208.658 70.9133 208.278 70.88 207.905 70.88C207.358 70.88 206.872 70.96 206.445 71.12C206.018 71.28 205.632 71.5133 205.285 71.82C204.952 72.1133 204.652 72.4733 204.385 72.9C204.132 73.3267 203.892 73.8133 203.665 74.36V87H198.725V66.48H201.625C202.132 66.48 202.485 66.5733 202.685 66.76C202.885 66.9333 203.018 67.2533 203.085 67.72L203.385 70.04ZM215.087 87V70.2L213.307 69.92C212.92 69.84 212.607 69.7067 212.367 69.52C212.14 69.32 212.027 69.04 212.027 68.68V66.66H215.087V65.14C215.087 63.9667 215.26 62.9133 215.607 61.98C215.967 61.0467 216.474 60.2533 217.127 59.6C217.794 58.9467 218.6 58.4467 219.547 58.1C220.494 57.7533 221.56 57.58 222.747 57.58C223.694 57.58 224.574 57.7067 225.387 57.96L225.287 60.44C225.274 60.6267 225.22 60.78 225.127 60.9C225.034 61.0067 224.907 61.0933 224.747 61.16C224.6 61.2133 224.427 61.2533 224.227 61.28C224.027 61.2933 223.814 61.3 223.587 61.3C223 61.3 222.474 61.3667 222.007 61.5C221.554 61.62 221.167 61.84 220.847 62.16C220.527 62.4667 220.28 62.88 220.107 63.4C219.947 63.9067 219.867 64.54 219.867 65.3V66.66H225.207V70.18H220.027V87H215.087ZM245.663 66.48V87H242.643C241.99 87 241.576 86.7 241.403 86.1L241.063 84.46C240.223 85.3133 239.296 86.0067 238.283 86.54C237.27 87.06 236.076 87.32 234.703 87.32C233.583 87.32 232.59 87.1333 231.723 86.76C230.87 86.3733 230.15 85.8333 229.563 85.14C228.976 84.4467 228.53 83.6267 228.223 82.68C227.93 81.72 227.783 80.6667 227.783 79.52V66.48H232.723V79.52C232.723 80.7733 233.01 81.7467 233.583 82.44C234.17 83.12 235.043 83.46 236.203 83.46C237.056 83.46 237.856 83.2733 238.603 82.9C239.35 82.5133 240.056 81.9867 240.723 81.32V66.48H245.663ZM255.561 57.28V87H250.621V57.28H255.561ZM284.941 76.08L281.421 66.46C281.248 66.0333 281.068 65.5267 280.881 64.94C280.695 64.3533 280.508 63.72 280.321 63.04C280.148 63.72 279.968 64.36 279.781 64.96C279.595 65.5467 279.415 66.06 279.241 66.5L275.741 76.08H284.941ZM294.441 87H290.281C289.815 87 289.435 86.8867 289.141 86.66C288.848 86.42 288.628 86.1267 288.481 85.78L286.321 79.88H274.341L272.181 85.78C272.075 86.0867 271.868 86.3667 271.561 86.62C271.255 86.8733 270.875 87 270.421 87H266.221L277.601 58.08H283.081L294.441 87ZM302.245 87.32C300.458 87.32 299.085 86.82 298.125 85.82C297.178 84.8067 296.705 83.4133 296.705 81.64V70.18H294.605C294.338 70.18 294.112 70.0933 293.925 69.92C293.738 69.7467 293.645 69.4867 293.645 69.14V67.18L296.945 66.64L297.985 61.04C298.052 60.7733 298.178 60.5667 298.365 60.42C298.552 60.2733 298.792 60.2 299.085 60.2H301.645V66.66H307.125V70.18H301.645V81.3C301.645 81.94 301.798 82.44 302.105 82.8C302.425 83.16 302.858 83.34 303.405 83.34C303.712 83.34 303.965 83.3067 304.165 83.24C304.378 83.16 304.558 83.08 304.705 83C304.865 82.92 305.005 82.8467 305.125 82.78C305.245 82.7 305.365 82.66 305.485 82.66C305.632 82.66 305.752 82.7 305.845 82.78C305.938 82.8467 306.038 82.9533 306.145 83.1L307.625 85.5C306.905 86.1 306.078 86.5533 305.145 86.86C304.212 87.1667 303.245 87.32 302.245 87.32ZM315.228 68.68C316.028 67.9333 316.908 67.3267 317.868 66.86C318.828 66.3933 319.954 66.16 321.248 66.16C322.368 66.16 323.361 66.3533 324.228 66.74C325.094 67.1133 325.814 67.6467 326.388 68.34C326.974 69.02 327.414 69.84 327.708 70.8C328.014 71.7467 328.168 72.7933 328.168 73.94V87H323.228V73.94C323.228 72.6867 322.941 71.72 322.368 71.04C321.794 70.3467 320.921 70 319.748 70C318.894 70 318.094 70.1933 317.348 70.58C316.601 70.9667 315.894 71.4933 315.228 72.16V87H310.288V57.28H315.228V68.68ZM337.866 57.28V87H332.926V57.28H337.866ZM356.008 74.38C356.008 73.74 355.914 73.14 355.728 72.58C355.554 72.0067 355.288 71.5067 354.928 71.08C354.568 70.6533 354.108 70.32 353.548 70.08C353.001 69.8267 352.361 69.7 351.628 69.7C350.201 69.7 349.074 70.1067 348.248 70.92C347.434 71.7333 346.914 72.8867 346.688 74.38H356.008ZM346.588 77.36C346.668 78.4133 346.854 79.3267 347.148 80.1C347.441 80.86 347.828 81.4933 348.308 82C348.788 82.4933 349.354 82.8667 350.008 83.12C350.674 83.36 351.408 83.48 352.208 83.48C353.008 83.48 353.694 83.3867 354.268 83.2C354.854 83.0133 355.361 82.8067 355.788 82.58C356.228 82.3533 356.608 82.1467 356.928 81.96C357.261 81.7733 357.581 81.68 357.888 81.68C358.301 81.68 358.608 81.8333 358.808 82.14L360.228 83.94C359.681 84.58 359.068 85.12 358.388 85.56C357.708 85.9867 356.994 86.3333 356.248 86.6C355.514 86.8533 354.761 87.0333 353.988 87.14C353.228 87.2467 352.488 87.3 351.768 87.3C350.341 87.3 349.014 87.0667 347.788 86.6C346.561 86.12 345.494 85.42 344.588 84.5C343.681 83.5667 342.968 82.42 342.448 81.06C341.928 79.6867 341.668 78.1 341.668 76.3C341.668 74.9 341.894 73.5867 342.348 72.36C342.801 71.12 343.448 70.0467 344.288 69.14C345.141 68.22 346.174 67.4933 347.388 66.96C348.614 66.4267 349.994 66.16 351.528 66.16C352.821 66.16 354.014 66.3667 355.108 66.78C356.201 67.1933 357.141 67.8 357.928 68.6C358.714 69.3867 359.328 70.36 359.768 71.52C360.221 72.6667 360.448 73.98 360.448 75.46C360.448 76.2067 360.368 76.7133 360.208 76.98C360.048 77.2333 359.741 77.36 359.288 77.36H346.588ZM370.8 87.32C369.013 87.32 367.64 86.82 366.68 85.82C365.733 84.8067 365.26 83.4133 365.26 81.64V70.18H363.16C362.893 70.18 362.666 70.0933 362.48 69.92C362.293 69.7467 362.2 69.4867 362.2 69.14V67.18L365.5 66.64L366.54 61.04C366.606 60.7733 366.733 60.5667 366.92 60.42C367.106 60.2733 367.346 60.2 367.64 60.2H370.2V66.66H375.68V70.18H370.2V81.3C370.2 81.94 370.353 82.44 370.66 82.8C370.98 83.16 371.413 83.34 371.96 83.34C372.266 83.34 372.52 83.3067 372.72 83.24C372.933 83.16 373.113 83.08 373.26 83C373.42 82.92 373.56 82.8467 373.68 82.78C373.8 82.7 373.92 82.66 374.04 82.66C374.186 82.66 374.306 82.7 374.4 82.78C374.493 82.8467 374.593 82.9533 374.7 83.1L376.18 85.5C375.46 86.1 374.633 86.5533 373.7 86.86C372.766 87.1667 371.8 87.32 370.8 87.32ZM391.906 74.38C391.906 73.74 391.813 73.14 391.626 72.58C391.453 72.0067 391.186 71.5067 390.826 71.08C390.466 70.6533 390.006 70.32 389.446 70.08C388.899 69.8267 388.259 69.7 387.526 69.7C386.099 69.7 384.973 70.1067 384.146 70.92C383.333 71.7333 382.813 72.8867 382.586 74.38H391.906ZM382.486 77.36C382.566 78.4133 382.753 79.3267 383.046 80.1C383.339 80.86 383.726 81.4933 384.206 82C384.686 82.4933 385.253 82.8667 385.906 83.12C386.573 83.36 387.306 83.48 388.106 83.48C388.906 83.48 389.593 83.3867 390.166 83.2C390.753 83.0133 391.259 82.8067 391.686 82.58C392.126 82.3533 392.506 82.1467 392.826 81.96C393.159 81.7733 393.479 81.68 393.786 81.68C394.199 81.68 394.506 81.8333 394.706 82.14L396.126 83.94C395.579 84.58 394.966 85.12 394.286 85.56C393.606 85.9867 392.893 86.3333 392.146 86.6C391.413 86.8533 390.659 87.0333 389.886 87.14C389.126 87.2467 388.386 87.3 387.666 87.3C386.239 87.3 384.913 87.0667 383.686 86.6C382.459 86.12 381.393 85.42 380.486 84.5C379.579 83.5667 378.866 82.42 378.346 81.06C377.826 79.6867 377.566 78.1 377.566 76.3C377.566 74.9 377.793 73.5867 378.246 72.36C378.699 71.12 379.346 70.0467 380.186 69.14C381.039 68.22 382.073 67.4933 383.286 66.96C384.513 66.4267 385.893 66.16 387.426 66.16C388.719 66.16 389.913 66.3667 391.006 66.78C392.099 67.1933 393.039 67.8 393.826 68.6C394.613 69.3867 395.226 70.36 395.666 71.52C396.119 72.6667 396.346 73.98 396.346 75.46C396.346 76.2067 396.266 76.7133 396.106 76.98C395.946 77.2333 395.639 77.36 395.186 77.36H382.486ZM412.573 70.48C412.44 70.6933 412.3 70.8467 412.153 70.94C412.007 71.02 411.82 71.06 411.593 71.06C411.353 71.06 411.093 70.9933 410.813 70.86C410.547 70.7267 410.233 70.58 409.873 70.42C409.513 70.2467 409.1 70.0933 408.633 69.96C408.18 69.8267 407.64 69.76 407.013 69.76C406.04 69.76 405.273 69.9667 404.713 70.38C404.167 70.7933 403.893 71.3333 403.893 72C403.893 72.44 404.033 72.8133 404.313 73.12C404.607 73.4133 404.987 73.6733 405.453 73.9C405.933 74.1267 406.473 74.3333 407.073 74.52C407.673 74.6933 408.28 74.8867 408.893 75.1C409.52 75.3133 410.133 75.56 410.733 75.84C411.333 76.1067 411.867 76.4533 412.333 76.88C412.813 77.2933 413.193 77.7933 413.473 78.38C413.767 78.9667 413.913 79.6733 413.913 80.5C413.913 81.4867 413.733 82.4 413.373 83.24C413.027 84.0667 412.507 84.7867 411.813 85.4C411.12 86 410.26 86.4733 409.233 86.82C408.22 87.1533 407.047 87.32 405.713 87.32C405.007 87.32 404.313 87.2533 403.633 87.12C402.967 87 402.32 86.8267 401.693 86.6C401.08 86.3733 400.507 86.1067 399.973 85.8C399.453 85.4933 398.993 85.16 398.593 84.8L399.733 82.92C399.88 82.6933 400.053 82.52 400.253 82.4C400.453 82.28 400.707 82.22 401.013 82.22C401.32 82.22 401.607 82.3067 401.873 82.48C402.153 82.6533 402.473 82.84 402.833 83.04C403.193 83.24 403.613 83.4267 404.093 83.6C404.587 83.7733 405.207 83.86 405.953 83.86C406.54 83.86 407.04 83.7933 407.453 83.66C407.88 83.5133 408.227 83.3267 408.493 83.1C408.773 82.8733 408.973 82.6133 409.093 82.32C409.227 82.0133 409.293 81.7 409.293 81.38C409.293 80.9 409.147 80.5067 408.853 80.2C408.573 79.8933 408.193 79.6267 407.713 79.4C407.247 79.1733 406.707 78.9733 406.093 78.8C405.493 78.6133 404.873 78.4133 404.233 78.2C403.607 77.9867 402.987 77.74 402.373 77.46C401.773 77.1667 401.233 76.8 400.753 76.36C400.287 75.92 399.907 75.38 399.613 74.74C399.333 74.1 399.193 73.3267 399.193 72.42C399.193 71.58 399.36 70.78 399.693 70.02C400.027 69.26 400.513 68.6 401.153 68.04C401.807 67.4667 402.613 67.0133 403.573 66.68C404.547 66.3333 405.667 66.16 406.933 66.16C408.347 66.16 409.633 66.3933 410.793 66.86C411.953 67.3267 412.92 67.94 413.693 68.7L412.573 70.48Z" fill="url(#paint0_linear_645_39545)"/>
<path d="M86.2797 132.448C86.4077 132.448 86.5197 132.5 86.6157 132.604L87.5397 133.6C86.8357 134.416 85.9797 135.052 84.9717 135.508C83.9717 135.964 82.7597 136.192 81.3357 136.192C80.1037 136.192 78.9837 135.98 77.9757 135.556C76.9677 135.124 76.1077 134.524 75.3957 133.756C74.6837 132.98 74.1317 132.052 73.7397 130.972C73.3477 129.892 73.1517 128.704 73.1517 127.408C73.1517 126.112 73.3557 124.924 73.7637 123.844C74.1717 122.764 74.7437 121.836 75.4797 121.06C76.2237 120.284 77.1117 119.684 78.1437 119.26C79.1757 118.828 80.3157 118.612 81.5637 118.612C82.7877 118.612 83.8677 118.808 84.8037 119.2C85.7397 119.592 86.5637 120.124 87.2757 120.796L86.5077 121.864C86.4597 121.944 86.3957 122.012 86.3157 122.068C86.2437 122.116 86.1437 122.14 86.0157 122.14C85.8717 122.14 85.6957 122.064 85.4877 121.912C85.2797 121.752 85.0077 121.576 84.6717 121.384C84.3357 121.192 83.9157 121.02 83.4117 120.868C82.9077 120.708 82.2877 120.628 81.5517 120.628C80.6637 120.628 79.8517 120.784 79.1157 121.096C78.3797 121.4 77.7437 121.844 77.2077 122.428C76.6797 123.012 76.2677 123.724 75.9717 124.564C75.6757 125.404 75.5277 126.352 75.5277 127.408C75.5277 128.48 75.6797 129.436 75.9837 130.276C76.2957 131.116 76.7157 131.828 77.2437 132.412C77.7797 132.988 78.4077 133.428 79.1277 133.732C79.8557 134.036 80.6397 134.188 81.4797 134.188C81.9917 134.188 82.4517 134.16 82.8597 134.104C83.2757 134.04 83.6557 133.944 83.9997 133.816C84.3517 133.688 84.6757 133.528 84.9717 133.336C85.2757 133.136 85.5757 132.9 85.8717 132.628C86.0077 132.508 86.1437 132.448 86.2797 132.448ZM91.883 125.464C92.403 124.912 92.979 124.472 93.611 124.144C94.243 123.816 94.971 123.652 95.795 123.652C96.459 123.652 97.043 123.764 97.547 123.988C98.059 124.204 98.483 124.516 98.819 124.924C99.163 125.324 99.423 125.808 99.599 126.376C99.775 126.944 99.863 127.572 99.863 128.26V136H97.715V128.26C97.715 127.34 97.503 126.628 97.079 126.124C96.663 125.612 96.027 125.356 95.171 125.356C94.539 125.356 93.947 125.508 93.395 125.812C92.851 126.116 92.347 126.528 91.883 127.048V136H89.735V118.324H91.883V125.464ZM108.242 123.652C109.13 123.652 109.93 123.8 110.642 124.096C111.354 124.392 111.962 124.812 112.466 125.356C112.97 125.9 113.354 126.56 113.618 127.336C113.89 128.104 114.026 128.964 114.026 129.916C114.026 130.876 113.89 131.74 113.618 132.508C113.354 133.276 112.97 133.932 112.466 134.476C111.962 135.02 111.354 135.44 110.642 135.736C109.93 136.024 109.13 136.168 108.242 136.168C107.346 136.168 106.538 136.024 105.818 135.736C105.106 135.44 104.498 135.02 103.994 134.476C103.49 133.932 103.102 133.276 102.83 132.508C102.566 131.74 102.434 130.876 102.434 129.916C102.434 128.964 102.566 128.104 102.83 127.336C103.102 126.56 103.49 125.9 103.994 125.356C104.498 124.812 105.106 124.392 105.818 124.096C106.538 123.8 107.346 123.652 108.242 123.652ZM108.242 134.5C109.442 134.5 110.338 134.1 110.93 133.3C111.522 132.492 111.818 131.368 111.818 129.928C111.818 128.48 111.522 127.352 110.93 126.544C110.338 125.736 109.442 125.332 108.242 125.332C107.634 125.332 107.102 125.436 106.646 125.644C106.198 125.852 105.822 126.152 105.518 126.544C105.222 126.936 104.998 127.42 104.846 127.996C104.702 128.564 104.63 129.208 104.63 129.928C104.63 131.368 104.926 132.492 105.518 133.3C106.118 134.1 107.026 134.5 108.242 134.5ZM121.859 123.652C122.747 123.652 123.547 123.8 124.259 124.096C124.971 124.392 125.579 124.812 126.083 125.356C126.587 125.9 126.971 126.56 127.235 127.336C127.507 128.104 127.643 128.964 127.643 129.916C127.643 130.876 127.507 131.74 127.235 132.508C126.971 133.276 126.587 133.932 126.083 134.476C125.579 135.02 124.971 135.44 124.259 135.736C123.547 136.024 122.747 136.168 121.859 136.168C120.963 136.168 120.155 136.024 119.435 135.736C118.723 135.44 118.115 135.02 117.611 134.476C117.107 133.932 116.719 133.276 116.447 132.508C116.183 131.74 116.051 130.876 116.051 129.916C116.051 128.964 116.183 128.104 116.447 127.336C116.719 126.56 117.107 125.9 117.611 125.356C118.115 124.812 118.723 124.392 119.435 124.096C120.155 123.8 120.963 123.652 121.859 123.652ZM121.859 134.5C123.059 134.5 123.955 134.1 124.547 133.3C125.139 132.492 125.435 131.368 125.435 129.928C125.435 128.48 125.139 127.352 124.547 126.544C123.955 125.736 123.059 125.332 121.859 125.332C121.251 125.332 120.719 125.436 120.263 125.644C119.815 125.852 119.439 126.152 119.135 126.544C118.839 126.936 118.615 127.42 118.463 127.996C118.319 128.564 118.247 129.208 118.247 129.928C118.247 131.368 118.543 132.492 119.135 133.3C119.735 134.1 120.643 134.5 121.859 134.5ZM137.432 125.848C137.336 126.024 137.188 126.112 136.988 126.112C136.868 126.112 136.732 126.068 136.58 125.98C136.428 125.892 136.24 125.796 136.016 125.692C135.8 125.58 135.54 125.48 135.236 125.392C134.932 125.296 134.572 125.248 134.156 125.248C133.796 125.248 133.472 125.296 133.184 125.392C132.896 125.48 132.648 125.604 132.44 125.764C132.24 125.924 132.084 126.112 131.972 126.328C131.868 126.536 131.816 126.764 131.816 127.012C131.816 127.324 131.904 127.584 132.08 127.792C132.264 128 132.504 128.18 132.8 128.332C133.096 128.484 133.432 128.62 133.808 128.74C134.184 128.852 134.568 128.976 134.96 129.112C135.36 129.24 135.748 129.384 136.124 129.544C136.5 129.704 136.836 129.904 137.132 130.144C137.428 130.384 137.664 130.68 137.84 131.032C138.024 131.376 138.116 131.792 138.116 132.28C138.116 132.84 138.016 133.36 137.816 133.84C137.616 134.312 137.32 134.724 136.928 135.076C136.536 135.42 136.056 135.692 135.488 135.892C134.92 136.092 134.264 136.192 133.52 136.192C132.672 136.192 131.904 136.056 131.216 135.784C130.528 135.504 129.944 135.148 129.464 134.716L129.968 133.9C130.032 133.796 130.108 133.716 130.196 133.66C130.284 133.604 130.396 133.576 130.532 133.576C130.676 133.576 130.828 133.632 130.988 133.744C131.148 133.856 131.34 133.98 131.564 134.116C131.796 134.252 132.076 134.376 132.404 134.488C132.732 134.6 133.14 134.656 133.628 134.656C134.044 134.656 134.408 134.604 134.72 134.5C135.032 134.388 135.292 134.24 135.5 134.056C135.708 133.872 135.86 133.66 135.956 133.42C136.06 133.18 136.112 132.924 136.112 132.652C136.112 132.316 136.02 132.04 135.836 131.824C135.66 131.6 135.424 131.412 135.128 131.26C134.832 131.1 134.492 130.964 134.108 130.852C133.732 130.732 133.344 130.608 132.944 130.48C132.552 130.352 132.164 130.208 131.78 130.048C131.404 129.88 131.068 129.672 130.772 129.424C130.476 129.176 130.236 128.872 130.052 128.512C129.876 128.144 129.788 127.7 129.788 127.18C129.788 126.716 129.884 126.272 130.076 125.848C130.268 125.416 130.548 125.04 130.916 124.72C131.284 124.392 131.736 124.132 132.272 123.94C132.808 123.748 133.42 123.652 134.108 123.652C134.908 123.652 135.624 123.78 136.256 124.036C136.896 124.284 137.448 124.628 137.912 125.068L137.432 125.848ZM148.871 128.596C148.871 128.1 148.799 127.648 148.655 127.24C148.519 126.824 148.315 126.468 148.043 126.172C147.779 125.868 147.455 125.636 147.071 125.476C146.687 125.308 146.251 125.224 145.763 125.224C144.739 125.224 143.927 125.524 143.327 126.124C142.735 126.716 142.367 127.54 142.223 128.596H148.871ZM150.599 134.296C150.335 134.616 150.019 134.896 149.651 135.136C149.283 135.368 148.887 135.56 148.463 135.712C148.047 135.864 147.615 135.976 147.167 136.048C146.719 136.128 146.275 136.168 145.835 136.168C144.995 136.168 144.219 136.028 143.507 135.748C142.803 135.46 142.191 135.044 141.671 134.5C141.159 133.948 140.759 133.268 140.471 132.46C140.183 131.652 140.039 130.724 140.039 129.676C140.039 128.828 140.167 128.036 140.423 127.3C140.687 126.564 141.063 125.928 141.551 125.392C142.039 124.848 142.635 124.424 143.339 124.12C144.043 123.808 144.835 123.652 145.715 123.652C146.443 123.652 147.115 123.776 147.731 124.024C148.355 124.264 148.891 124.616 149.339 125.08C149.795 125.536 150.151 126.104 150.407 126.784C150.663 127.456 150.791 128.224 150.791 129.088C150.791 129.424 150.755 129.648 150.683 129.76C150.611 129.872 150.475 129.928 150.275 129.928H142.151C142.175 130.696 142.279 131.364 142.463 131.932C142.655 132.5 142.919 132.976 143.255 133.36C143.591 133.736 143.991 134.02 144.455 134.212C144.919 134.396 145.439 134.488 146.015 134.488C146.551 134.488 147.011 134.428 147.395 134.308C147.787 134.18 148.123 134.044 148.403 133.9C148.683 133.756 148.915 133.624 149.099 133.504C149.291 133.376 149.455 133.312 149.591 133.312C149.767 133.312 149.903 133.38 149.999 133.516L150.599 134.296ZM166.143 130.528C165.159 130.56 164.319 130.64 163.623 130.768C162.935 130.888 162.371 131.048 161.931 131.248C161.499 131.448 161.183 131.684 160.983 131.956C160.791 132.228 160.695 132.532 160.695 132.868C160.695 133.188 160.747 133.464 160.851 133.696C160.955 133.928 161.095 134.12 161.271 134.272C161.455 134.416 161.667 134.524 161.907 134.596C162.155 134.66 162.419 134.692 162.699 134.692C163.075 134.692 163.419 134.656 163.731 134.584C164.043 134.504 164.335 134.392 164.607 134.248C164.887 134.104 165.151 133.932 165.399 133.732C165.655 133.532 165.903 133.304 166.143 133.048V130.528ZM159.243 125.56C159.915 124.912 160.639 124.428 161.415 124.108C162.191 123.788 163.051 123.628 163.995 123.628C164.675 123.628 165.279 123.74 165.807 123.964C166.335 124.188 166.779 124.5 167.139 124.9C167.499 125.3 167.771 125.784 167.955 126.352C168.139 126.92 168.231 127.544 168.231 128.224V136H167.283C167.075 136 166.915 135.968 166.803 135.904C166.691 135.832 166.603 135.696 166.539 135.496L166.299 134.344C165.979 134.64 165.667 134.904 165.363 135.136C165.059 135.36 164.739 135.552 164.403 135.712C164.067 135.864 163.707 135.98 163.323 136.06C162.947 136.148 162.527 136.192 162.063 136.192C161.591 136.192 161.147 136.128 160.731 136C160.315 135.864 159.951 135.664 159.639 135.4C159.335 135.136 159.091 134.804 158.907 134.404C158.731 133.996 158.643 133.516 158.643 132.964C158.643 132.484 158.775 132.024 159.039 131.584C159.303 131.136 159.731 130.74 160.323 130.396C160.915 130.052 161.687 129.772 162.639 129.556C163.591 129.332 164.759 129.204 166.143 129.172V128.224C166.143 127.28 165.939 126.568 165.531 126.088C165.123 125.6 164.527 125.356 163.743 125.356C163.215 125.356 162.771 125.424 162.411 125.56C162.059 125.688 161.751 125.836 161.487 126.004C161.231 126.164 161.007 126.312 160.815 126.448C160.631 126.576 160.447 126.64 160.263 126.64C160.119 126.64 159.995 126.604 159.891 126.532C159.787 126.452 159.699 126.356 159.627 126.244L159.243 125.56ZM179.774 133.072C180.166 133.6 180.594 133.972 181.058 134.188C181.522 134.404 182.042 134.512 182.618 134.512C183.754 134.512 184.626 134.108 185.234 133.3C185.842 132.492 186.146 131.34 186.146 129.844C186.146 129.052 186.074 128.372 185.93 127.804C185.794 127.236 185.594 126.772 185.33 126.412C185.066 126.044 184.742 125.776 184.358 125.608C183.974 125.44 183.538 125.356 183.05 125.356C182.354 125.356 181.742 125.516 181.214 125.836C180.694 126.156 180.214 126.608 179.774 127.192V133.072ZM179.666 125.728C180.178 125.096 180.77 124.588 181.442 124.204C182.114 123.82 182.882 123.628 183.746 123.628C184.45 123.628 185.086 123.764 185.654 124.036C186.222 124.3 186.706 124.696 187.106 125.224C187.506 125.744 187.814 126.392 188.03 127.168C188.246 127.944 188.354 128.836 188.354 129.844C188.354 130.74 188.234 131.576 187.994 132.352C187.754 133.12 187.406 133.788 186.95 134.356C186.502 134.916 185.95 135.36 185.294 135.688C184.646 136.008 183.914 136.168 183.098 136.168C182.354 136.168 181.714 136.044 181.178 135.796C180.65 135.54 180.182 135.188 179.774 134.74V140.116H177.626V123.844H178.91C179.214 123.844 179.402 123.992 179.474 124.288L179.666 125.728ZM193.287 118.324V136H191.151V118.324H193.287ZM203.339 130.528C202.355 130.56 201.515 130.64 200.819 130.768C200.131 130.888 199.567 131.048 199.127 131.248C198.695 131.448 198.379 131.684 198.179 131.956C197.987 132.228 197.891 132.532 197.891 132.868C197.891 133.188 197.943 133.464 198.047 133.696C198.151 133.928 198.291 134.12 198.467 134.272C198.651 134.416 198.863 134.524 199.103 134.596C199.351 134.66 199.615 134.692 199.895 134.692C200.271 134.692 200.615 134.656 200.927 134.584C201.239 134.504 201.531 134.392 201.803 134.248C202.083 134.104 202.347 133.932 202.595 133.732C202.851 133.532 203.099 133.304 203.339 133.048V130.528ZM196.439 125.56C197.111 124.912 197.835 124.428 198.611 124.108C199.387 123.788 200.247 123.628 201.191 123.628C201.871 123.628 202.475 123.74 203.003 123.964C203.531 124.188 203.975 124.5 204.335 124.9C204.695 125.3 204.967 125.784 205.151 126.352C205.335 126.92 205.427 127.544 205.427 128.224V136H204.479C204.271 136 204.111 135.968 203.999 135.904C203.887 135.832 203.799 135.696 203.735 135.496L203.495 134.344C203.175 134.64 202.863 134.904 202.559 135.136C202.255 135.36 201.935 135.552 201.599 135.712C201.263 135.864 200.903 135.98 200.519 136.06C200.143 136.148 199.723 136.192 199.259 136.192C198.787 136.192 198.343 136.128 197.927 136C197.511 135.864 197.147 135.664 196.835 135.4C196.531 135.136 196.287 134.804 196.103 134.404C195.927 133.996 195.839 133.516 195.839 132.964C195.839 132.484 195.971 132.024 196.235 131.584C196.499 131.136 196.927 130.74 197.519 130.396C198.111 130.052 198.883 129.772 199.835 129.556C200.787 129.332 201.955 129.204 203.339 129.172V128.224C203.339 127.28 203.135 126.568 202.727 126.088C202.319 125.6 201.723 125.356 200.939 125.356C200.411 125.356 199.967 125.424 199.607 125.56C199.255 125.688 198.947 125.836 198.683 126.004C198.427 126.164 198.203 126.312 198.011 126.448C197.827 126.576 197.643 126.64 197.459 126.64C197.315 126.64 197.191 126.604 197.087 126.532C196.983 126.452 196.895 126.356 196.823 126.244L196.439 125.56ZM210.696 125.608C210.96 125.312 211.24 125.044 211.536 124.804C211.832 124.564 212.144 124.36 212.472 124.192C212.808 124.016 213.16 123.884 213.528 123.796C213.904 123.7 214.308 123.652 214.74 123.652C215.404 123.652 215.988 123.764 216.492 123.988C217.004 124.204 217.428 124.516 217.764 124.924C218.108 125.324 218.368 125.808 218.544 126.376C218.72 126.944 218.808 127.572 218.808 128.26V136H216.66V128.26C216.66 127.34 216.448 126.628 216.024 126.124C215.608 125.612 214.972 125.356 214.116 125.356C213.484 125.356 212.892 125.508 212.34 125.812C211.796 126.116 211.292 126.528 210.828 127.048V136H208.68V123.844H209.964C210.268 123.844 210.456 123.992 210.528 124.288L210.696 125.608ZM231.936 136.192C230.976 136.192 230.236 135.924 229.716 135.388C229.204 134.852 228.948 134.08 228.948 133.072V125.632H227.484C227.356 125.632 227.248 125.596 227.16 125.524C227.072 125.444 227.028 125.324 227.028 125.164V124.312L229.02 124.06L229.512 120.304C229.536 120.184 229.588 120.088 229.668 120.016C229.756 119.936 229.868 119.896 230.004 119.896H231.084V124.084H234.6V125.632H231.084V132.928C231.084 133.44 231.208 133.82 231.456 134.068C231.704 134.316 232.024 134.44 232.416 134.44C232.64 134.44 232.832 134.412 232.992 134.356C233.16 134.292 233.304 134.224 233.424 134.152C233.544 134.08 233.644 134.016 233.724 133.96C233.812 133.896 233.888 133.864 233.952 133.864C234.064 133.864 234.164 133.932 234.252 134.068L234.876 135.088C234.508 135.432 234.064 135.704 233.544 135.904C233.024 136.096 232.488 136.192 231.936 136.192ZM238.953 125.464C239.473 124.912 240.049 124.472 240.681 124.144C241.313 123.816 242.041 123.652 242.865 123.652C243.529 123.652 244.113 123.764 244.617 123.988C245.129 124.204 245.553 124.516 245.889 124.924C246.233 125.324 246.493 125.808 246.669 126.376C246.845 126.944 246.933 127.572 246.933 128.26V136H244.785V128.26C244.785 127.34 244.573 126.628 244.149 126.124C243.733 125.612 243.097 125.356 242.241 125.356C241.609 125.356 241.017 125.508 240.465 125.812C239.921 126.116 239.417 126.528 238.953 127.048V136H236.805V118.324H238.953V125.464ZM256.776 130.528C255.792 130.56 254.952 130.64 254.256 130.768C253.568 130.888 253.004 131.048 252.564 131.248C252.132 131.448 251.816 131.684 251.616 131.956C251.424 132.228 251.328 132.532 251.328 132.868C251.328 133.188 251.38 133.464 251.484 133.696C251.588 133.928 251.728 134.12 251.904 134.272C252.088 134.416 252.3 134.524 252.54 134.596C252.788 134.66 253.052 134.692 253.332 134.692C253.708 134.692 254.052 134.656 254.364 134.584C254.676 134.504 254.968 134.392 255.24 134.248C255.52 134.104 255.784 133.932 256.032 133.732C256.288 133.532 256.536 133.304 256.776 133.048V130.528ZM249.876 125.56C250.548 124.912 251.272 124.428 252.048 124.108C252.824 123.788 253.684 123.628 254.628 123.628C255.308 123.628 255.912 123.74 256.44 123.964C256.968 124.188 257.412 124.5 257.772 124.9C258.132 125.3 258.404 125.784 258.588 126.352C258.772 126.92 258.864 127.544 258.864 128.224V136H257.916C257.708 136 257.548 135.968 257.436 135.904C257.324 135.832 257.236 135.696 257.172 135.496L256.932 134.344C256.612 134.64 256.3 134.904 255.996 135.136C255.692 135.36 255.372 135.552 255.036 135.712C254.7 135.864 254.34 135.98 253.956 136.06C253.58 136.148 253.16 136.192 252.696 136.192C252.224 136.192 251.78 136.128 251.364 136C250.948 135.864 250.584 135.664 250.272 135.4C249.968 135.136 249.724 134.804 249.54 134.404C249.364 133.996 249.276 133.516 249.276 132.964C249.276 132.484 249.408 132.024 249.672 131.584C249.936 131.136 250.364 130.74 250.956 130.396C251.548 130.052 252.32 129.772 253.272 129.556C254.224 129.332 255.392 129.204 256.776 129.172V128.224C256.776 127.28 256.572 126.568 256.164 126.088C255.756 125.6 255.16 125.356 254.376 125.356C253.848 125.356 253.404 125.424 253.044 125.56C252.692 125.688 252.384 125.836 252.12 126.004C251.864 126.164 251.64 126.312 251.448 126.448C251.264 126.576 251.08 126.64 250.896 126.64C250.752 126.64 250.628 126.604 250.524 126.532C250.42 126.452 250.332 126.356 250.26 126.244L249.876 125.56ZM265.686 136.192C264.726 136.192 263.986 135.924 263.466 135.388C262.954 134.852 262.698 134.08 262.698 133.072V125.632H261.234C261.106 125.632 260.998 125.596 260.91 125.524C260.822 125.444 260.778 125.324 260.778 125.164V124.312L262.77 124.06L263.262 120.304C263.286 120.184 263.338 120.088 263.418 120.016C263.506 119.936 263.618 119.896 263.754 119.896H264.834V124.084H268.35V125.632H264.834V132.928C264.834 133.44 264.958 133.82 265.206 134.068C265.454 134.316 265.774 134.44 266.166 134.44C266.39 134.44 266.582 134.412 266.742 134.356C266.91 134.292 267.054 134.224 267.174 134.152C267.294 134.08 267.394 134.016 267.474 133.96C267.562 133.896 267.638 133.864 267.702 133.864C267.814 133.864 267.914 133.932 268.002 134.068L268.626 135.088C268.258 135.432 267.814 135.704 267.294 135.904C266.774 136.096 266.238 136.192 265.686 136.192ZM272.031 117.652C272.367 118.22 272.595 118.82 272.715 119.452C272.835 120.084 272.847 120.708 272.751 121.324C272.655 121.94 272.455 122.532 272.151 123.1C271.847 123.668 271.443 124.172 270.939 124.612L270.291 124.192C270.171 124.12 270.115 124.028 270.123 123.916C270.139 123.796 270.179 123.7 270.243 123.628C270.451 123.372 270.627 123.064 270.771 122.704C270.923 122.336 271.019 121.944 271.059 121.528C271.107 121.104 271.087 120.668 270.999 120.22C270.919 119.772 270.755 119.34 270.507 118.924C270.403 118.756 270.371 118.608 270.411 118.48C270.459 118.344 270.559 118.244 270.711 118.18L272.031 117.652ZM282.229 125.848C282.133 126.024 281.985 126.112 281.785 126.112C281.665 126.112 281.529 126.068 281.377 125.98C281.225 125.892 281.037 125.796 280.813 125.692C280.597 125.58 280.337 125.48 280.033 125.392C279.729 125.296 279.369 125.248 278.953 125.248C278.593 125.248 278.269 125.296 277.981 125.392C277.693 125.48 277.445 125.604 277.237 125.764C277.037 125.924 276.881 126.112 276.769 126.328C276.665 126.536 276.613 126.764 276.613 127.012C276.613 127.324 276.701 127.584 276.877 127.792C277.061 128 277.301 128.18 277.597 128.332C277.893 128.484 278.229 128.62 278.605 128.74C278.981 128.852 279.365 128.976 279.757 129.112C280.157 129.24 280.545 129.384 280.921 129.544C281.297 129.704 281.633 129.904 281.929 130.144C282.225 130.384 282.461 130.68 282.637 131.032C282.821 131.376 282.913 131.792 282.913 132.28C282.913 132.84 282.813 133.36 282.613 133.84C282.413 134.312 282.117 134.724 281.725 135.076C281.333 135.42 280.853 135.692 280.285 135.892C279.717 136.092 279.061 136.192 278.317 136.192C277.469 136.192 276.701 136.056 276.013 135.784C275.325 135.504 274.741 135.148 274.261 134.716L274.765 133.9C274.829 133.796 274.905 133.716 274.993 133.66C275.081 133.604 275.193 133.576 275.329 133.576C275.473 133.576 275.625 133.632 275.785 133.744C275.945 133.856 276.137 133.98 276.361 134.116C276.593 134.252 276.873 134.376 277.201 134.488C277.529 134.6 277.937 134.656 278.425 134.656C278.841 134.656 279.205 134.604 279.517 134.5C279.829 134.388 280.089 134.24 280.297 134.056C280.505 133.872 280.657 133.66 280.753 133.42C280.857 133.18 280.909 132.924 280.909 132.652C280.909 132.316 280.817 132.04 280.633 131.824C280.457 131.6 280.221 131.412 279.925 131.26C279.629 131.1 279.289 130.964 278.905 130.852C278.529 130.732 278.141 130.608 277.741 130.48C277.349 130.352 276.961 130.208 276.577 130.048C276.201 129.88 275.865 129.672 275.569 129.424C275.273 129.176 275.033 128.872 274.849 128.512C274.673 128.144 274.585 127.7 274.585 127.18C274.585 126.716 274.681 126.272 274.873 125.848C275.065 125.416 275.345 125.04 275.713 124.72C276.081 124.392 276.533 124.132 277.069 123.94C277.605 123.748 278.217 123.652 278.905 123.652C279.705 123.652 280.421 123.78 281.053 124.036C281.693 124.284 282.245 124.628 282.709 125.068L282.229 125.848ZM293.7 126.28C294.084 125.448 294.556 124.8 295.116 124.336C295.676 123.864 296.36 123.628 297.168 123.628C297.424 123.628 297.668 123.656 297.9 123.712C298.14 123.768 298.352 123.856 298.536 123.976L298.38 125.572C298.332 125.772 298.212 125.872 298.02 125.872C297.908 125.872 297.744 125.848 297.528 125.8C297.312 125.752 297.068 125.728 296.796 125.728C296.412 125.728 296.068 125.784 295.764 125.896C295.468 126.008 295.2 126.176 294.96 126.4C294.728 126.616 294.516 126.888 294.324 127.216C294.14 127.536 293.972 127.904 293.82 128.32V136H291.672V123.844H292.896C293.128 123.844 293.288 123.888 293.376 123.976C293.464 124.064 293.524 124.216 293.556 124.432L293.7 126.28ZM302.671 123.844V136H300.535V123.844H302.671ZM303.127 120.028C303.127 120.236 303.083 120.432 302.995 120.616C302.915 120.792 302.803 120.952 302.659 121.096C302.523 121.232 302.359 121.34 302.167 121.42C301.983 121.5 301.787 121.54 301.579 121.54C301.371 121.54 301.175 121.5 300.991 121.42C300.815 121.34 300.659 121.232 300.523 121.096C300.387 120.952 300.279 120.792 300.199 120.616C300.119 120.432 300.079 120.236 300.079 120.028C300.079 119.82 300.119 119.624 300.199 119.44C300.279 119.248 300.387 119.084 300.523 118.948C300.659 118.804 300.815 118.692 300.991 118.612C301.175 118.532 301.371 118.492 301.579 118.492C301.787 118.492 301.983 118.532 302.167 118.612C302.359 118.692 302.523 118.804 302.659 118.948C302.803 119.084 302.915 119.248 302.995 119.44C303.083 119.624 303.127 119.82 303.127 120.028ZM310.416 130.06C310.848 130.06 311.228 130 311.556 129.88C311.884 129.76 312.16 129.592 312.384 129.376C312.608 129.16 312.776 128.904 312.888 128.608C313 128.304 313.056 127.972 313.056 127.612C313.056 126.868 312.828 126.276 312.372 125.836C311.924 125.396 311.272 125.176 310.416 125.176C309.552 125.176 308.892 125.396 308.436 125.836C307.988 126.276 307.764 126.868 307.764 127.612C307.764 127.972 307.82 128.304 307.932 128.608C308.052 128.904 308.224 129.16 308.448 129.376C308.672 129.592 308.948 129.76 309.276 129.88C309.604 130 309.984 130.06 310.416 130.06ZM314.268 136.66C314.268 136.364 314.184 136.124 314.016 135.94C313.848 135.756 313.62 135.612 313.332 135.508C313.052 135.404 312.724 135.332 312.348 135.292C311.972 135.244 311.572 135.208 311.148 135.184C310.732 135.16 310.308 135.136 309.876 135.112C309.444 135.088 309.028 135.048 308.628 134.992C308.18 135.2 307.812 135.464 307.524 135.784C307.244 136.096 307.104 136.464 307.104 136.888C307.104 137.16 307.172 137.412 307.308 137.644C307.452 137.884 307.668 138.088 307.956 138.256C308.244 138.432 308.604 138.568 309.036 138.664C309.476 138.768 309.992 138.82 310.584 138.82C311.16 138.82 311.676 138.768 312.132 138.664C312.588 138.56 312.972 138.412 313.284 138.22C313.604 138.028 313.848 137.8 314.016 137.536C314.184 137.272 314.268 136.98 314.268 136.66ZM316.44 124.324V125.116C316.44 125.38 316.272 125.548 315.936 125.62L314.556 125.8C314.828 126.328 314.964 126.912 314.964 127.552C314.964 128.144 314.848 128.684 314.616 129.172C314.392 129.652 314.08 130.064 313.68 130.408C313.28 130.752 312.8 131.016 312.24 131.2C311.68 131.384 311.072 131.476 310.416 131.476C309.848 131.476 309.312 131.408 308.808 131.272C308.552 131.432 308.356 131.604 308.22 131.788C308.084 131.964 308.016 132.144 308.016 132.328C308.016 132.616 308.132 132.836 308.364 132.988C308.604 133.132 308.916 133.236 309.3 133.3C309.684 133.364 310.12 133.404 310.608 133.42C311.104 133.436 311.608 133.464 312.12 133.504C312.64 133.536 313.144 133.596 313.632 133.684C314.128 133.772 314.568 133.916 314.952 134.116C315.336 134.316 315.644 134.592 315.876 134.944C316.116 135.296 316.236 135.752 316.236 136.312C316.236 136.832 316.104 137.336 315.84 137.824C315.584 138.312 315.212 138.744 314.724 139.12C314.236 139.504 313.636 139.808 312.924 140.032C312.22 140.264 311.424 140.38 310.536 140.38C309.648 140.38 308.872 140.292 308.208 140.116C307.544 139.94 306.992 139.704 306.552 139.408C306.112 139.112 305.78 138.768 305.556 138.376C305.34 137.992 305.232 137.588 305.232 137.164C305.232 136.564 305.42 136.056 305.796 135.64C306.172 135.224 306.688 134.892 307.344 134.644C306.984 134.484 306.696 134.272 306.48 134.008C306.272 133.736 306.168 133.372 306.168 132.916C306.168 132.74 306.2 132.56 306.264 132.376C306.328 132.184 306.424 131.996 306.552 131.812C306.688 131.62 306.852 131.44 307.044 131.272C307.236 131.104 307.46 130.956 307.716 130.828C307.116 130.492 306.648 130.048 306.312 129.496C305.976 128.936 305.808 128.288 305.808 127.552C305.808 126.96 305.92 126.424 306.144 125.944C306.376 125.456 306.696 125.044 307.104 124.708C307.512 124.364 307.996 124.1 308.556 123.916C309.124 123.732 309.744 123.64 310.416 123.64C310.944 123.64 311.436 123.7 311.892 123.82C312.348 123.932 312.764 124.1 313.14 124.324H316.44ZM320.797 125.464C321.317 124.912 321.893 124.472 322.525 124.144C323.157 123.816 323.885 123.652 324.709 123.652C325.373 123.652 325.957 123.764 326.461 123.988C326.973 124.204 327.397 124.516 327.733 124.924C328.077 125.324 328.337 125.808 328.513 126.376C328.689 126.944 328.777 127.572 328.777 128.26V136H326.629V128.26C326.629 127.34 326.417 126.628 325.993 126.124C325.577 125.612 324.941 125.356 324.085 125.356C323.453 125.356 322.861 125.508 322.309 125.812C321.765 126.116 321.261 126.528 320.797 127.048V136H318.649V118.324H320.797V125.464ZM335.6 136.192C334.64 136.192 333.9 135.924 333.38 135.388C332.868 134.852 332.612 134.08 332.612 133.072V125.632H331.148C331.02 125.632 330.912 125.596 330.824 125.524C330.736 125.444 330.692 125.324 330.692 125.164V124.312L332.684 124.06L333.176 120.304C333.2 120.184 333.252 120.088 333.332 120.016C333.42 119.936 333.532 119.896 333.668 119.896H334.748V124.084H338.264V125.632H334.748V132.928C334.748 133.44 334.872 133.82 335.12 134.068C335.368 134.316 335.688 134.44 336.08 134.44C336.304 134.44 336.496 134.412 336.656 134.356C336.824 134.292 336.968 134.224 337.088 134.152C337.208 134.08 337.308 134.016 337.388 133.96C337.476 133.896 337.552 133.864 337.616 133.864C337.728 133.864 337.828 133.932 337.916 134.068L338.54 135.088C338.172 135.432 337.728 135.704 337.208 135.904C336.688 136.096 336.152 136.192 335.6 136.192ZM347.402 136V125.668L346.058 125.512C345.89 125.472 345.75 125.412 345.638 125.332C345.534 125.244 345.482 125.12 345.482 124.96V124.084H347.402V122.908C347.402 122.212 347.498 121.596 347.69 121.06C347.89 120.516 348.17 120.06 348.53 119.692C348.898 119.316 349.338 119.032 349.85 118.84C350.362 118.648 350.938 118.552 351.578 118.552C352.122 118.552 352.622 118.632 353.078 118.792L353.03 119.86C353.014 120.052 352.906 120.156 352.706 120.172C352.514 120.188 352.254 120.196 351.926 120.196C351.558 120.196 351.222 120.244 350.918 120.34C350.622 120.436 350.366 120.592 350.15 120.808C349.934 121.024 349.766 121.308 349.646 121.66C349.534 122.012 349.478 122.448 349.478 122.968V124.084H352.982V125.632H349.55V136H347.402ZM359.75 123.652C360.638 123.652 361.438 123.8 362.15 124.096C362.862 124.392 363.47 124.812 363.974 125.356C364.478 125.9 364.862 126.56 365.126 127.336C365.398 128.104 365.534 128.964 365.534 129.916C365.534 130.876 365.398 131.74 365.126 132.508C364.862 133.276 364.478 133.932 363.974 134.476C363.47 135.02 362.862 135.44 362.15 135.736C361.438 136.024 360.638 136.168 359.75 136.168C358.854 136.168 358.046 136.024 357.326 135.736C356.614 135.44 356.006 135.02 355.502 134.476C354.998 133.932 354.61 133.276 354.338 132.508C354.074 131.74 353.942 130.876 353.942 129.916C353.942 128.964 354.074 128.104 354.338 127.336C354.61 126.56 354.998 125.9 355.502 125.356C356.006 124.812 356.614 124.392 357.326 124.096C358.046 123.8 358.854 123.652 359.75 123.652ZM359.75 134.5C360.95 134.5 361.846 134.1 362.438 133.3C363.03 132.492 363.326 131.368 363.326 129.928C363.326 128.48 363.03 127.352 362.438 126.544C361.846 125.736 360.95 125.332 359.75 125.332C359.142 125.332 358.61 125.436 358.154 125.644C357.706 125.852 357.33 126.152 357.026 126.544C356.73 126.936 356.506 127.42 356.354 127.996C356.21 128.564 356.138 129.208 356.138 129.928C356.138 131.368 356.434 132.492 357.026 133.3C357.626 134.1 358.534 134.5 359.75 134.5ZM370.271 126.28C370.655 125.448 371.127 124.8 371.687 124.336C372.247 123.864 372.931 123.628 373.739 123.628C373.995 123.628 374.239 123.656 374.471 123.712C374.711 123.768 374.923 123.856 375.107 123.976L374.951 125.572C374.903 125.772 374.783 125.872 374.591 125.872C374.479 125.872 374.315 125.848 374.099 125.8C373.883 125.752 373.639 125.728 373.367 125.728C372.983 125.728 372.639 125.784 372.335 125.896C372.039 126.008 371.771 126.176 371.531 126.4C371.299 126.616 371.087 126.888 370.895 127.216C370.711 127.536 370.543 127.904 370.391 128.32V136H368.243V123.844H369.467C369.699 123.844 369.859 123.888 369.947 123.976C370.035 124.064 370.095 124.216 370.127 124.432L370.271 126.28ZM386.342 136.192C385.382 136.192 384.642 135.924 384.122 135.388C383.61 134.852 383.354 134.08 383.354 133.072V125.632H381.89C381.762 125.632 381.654 125.596 381.566 125.524C381.478 125.444 381.434 125.324 381.434 125.164V124.312L383.426 124.06L383.918 120.304C383.942 120.184 383.994 120.088 384.074 120.016C384.162 119.936 384.274 119.896 384.41 119.896H385.49V124.084H389.006V125.632H385.49V132.928C385.49 133.44 385.614 133.82 385.862 134.068C386.11 134.316 386.43 134.44 386.822 134.44C387.046 134.44 387.238 134.412 387.398 134.356C387.566 134.292 387.71 134.224 387.83 134.152C387.95 134.08 388.05 134.016 388.13 133.96C388.218 133.896 388.294 133.864 388.358 133.864C388.47 133.864 388.57 133.932 388.658 134.068L389.282 135.088C388.914 135.432 388.47 135.704 387.95 135.904C387.43 136.096 386.894 136.192 386.342 136.192ZM393.36 125.464C393.88 124.912 394.456 124.472 395.088 124.144C395.72 123.816 396.448 123.652 397.272 123.652C397.936 123.652 398.52 123.764 399.024 123.988C399.536 124.204 399.96 124.516 400.296 124.924C400.64 125.324 400.9 125.808 401.076 126.376C401.252 126.944 401.34 127.572 401.34 128.26V136H399.192V128.26C399.192 127.34 398.98 126.628 398.556 126.124C398.14 125.612 397.504 125.356 396.648 125.356C396.016 125.356 395.424 125.508 394.872 125.812C394.328 126.116 393.824 126.528 393.36 127.048V136H391.212V118.324H393.36V125.464ZM412.73 128.596C412.73 128.1 412.658 127.648 412.514 127.24C412.378 126.824 412.174 126.468 411.902 126.172C411.638 125.868 411.314 125.636 410.93 125.476C410.546 125.308 410.11 125.224 409.622 125.224C408.598 125.224 407.786 125.524 407.186 126.124C406.594 126.716 406.226 127.54 406.082 128.596H412.73ZM414.458 134.296C414.194 134.616 413.878 134.896 413.51 135.136C413.142 135.368 412.746 135.56 412.322 135.712C411.906 135.864 411.474 135.976 411.026 136.048C410.578 136.128 410.134 136.168 409.694 136.168C408.854 136.168 408.078 136.028 407.366 135.748C406.662 135.46 406.05 135.044 405.53 134.5C405.018 133.948 404.618 133.268 404.33 132.46C404.042 131.652 403.898 130.724 403.898 129.676C403.898 128.828 404.026 128.036 404.282 127.3C404.546 126.564 404.922 125.928 405.41 125.392C405.898 124.848 406.494 124.424 407.198 124.12C407.902 123.808 408.694 123.652 409.574 123.652C410.302 123.652 410.974 123.776 411.59 124.024C412.214 124.264 412.75 124.616 413.198 125.08C413.654 125.536 414.01 126.104 414.266 126.784C414.522 127.456 414.65 128.224 414.65 129.088C414.65 129.424 414.614 129.648 414.542 129.76C414.47 129.872 414.334 129.928 414.134 129.928H406.01C406.034 130.696 406.138 131.364 406.322 131.932C406.514 132.5 406.778 132.976 407.114 133.36C407.45 133.736 407.85 134.02 408.314 134.212C408.778 134.396 409.298 134.488 409.874 134.488C410.41 134.488 410.87 134.428 411.254 134.308C411.646 134.18 411.982 134.044 412.262 133.9C412.542 133.756 412.774 133.624 412.958 133.504C413.15 133.376 413.314 133.312 413.45 133.312C413.626 133.312 413.762 133.38 413.858 133.516L414.458 134.296ZM417.274 136V123.844H418.558C418.862 123.844 419.05 123.992 419.122 124.288L419.278 125.536C419.726 124.984 420.23 124.532 420.79 124.18C421.35 123.828 421.998 123.652 422.734 123.652C423.55 123.652 424.21 123.88 424.714 124.336C425.226 124.792 425.594 125.408 425.818 126.184C425.994 125.744 426.218 125.364 426.49 125.044C426.77 124.724 427.082 124.46 427.426 124.252C427.77 124.044 428.134 123.892 428.518 123.796C428.91 123.7 429.306 123.652 429.706 123.652C430.346 123.652 430.914 123.756 431.41 123.964C431.914 124.164 432.338 124.46 432.682 124.852C433.034 125.244 433.302 125.728 433.486 126.304C433.67 126.872 433.762 127.524 433.762 128.26V136H431.614V128.26C431.614 127.308 431.406 126.588 430.99 126.1C430.574 125.604 429.974 125.356 429.19 125.356C428.838 125.356 428.502 125.42 428.182 125.548C427.87 125.668 427.594 125.848 427.354 126.088C427.114 126.328 426.922 126.632 426.778 127C426.642 127.36 426.574 127.78 426.574 128.26V136H424.426V128.26C424.426 127.284 424.23 126.556 423.838 126.076C423.446 125.596 422.874 125.356 422.122 125.356C421.594 125.356 421.106 125.5 420.658 125.788C420.21 126.068 419.798 126.452 419.422 126.94V136H417.274ZM436.648 134.68C436.648 134.472 436.684 134.276 436.756 134.092C436.836 133.908 436.94 133.748 437.068 133.612C437.204 133.476 437.364 133.368 437.548 133.288C437.732 133.208 437.928 133.168 438.136 133.168C438.344 133.168 438.54 133.208 438.724 133.288C438.908 133.368 439.068 133.476 439.204 133.612C439.34 133.748 439.448 133.908 439.528 134.092C439.608 134.276 439.648 134.472 439.648 134.68C439.648 134.896 439.608 135.096 439.528 135.28C439.448 135.456 439.34 135.612 439.204 135.748C439.068 135.884 438.908 135.988 438.724 136.06C438.54 136.14 438.344 136.18 438.136 136.18C437.928 136.18 437.732 136.14 437.548 136.06C437.364 135.988 437.204 135.884 437.068 135.748C436.94 135.612 436.836 135.456 436.756 135.28C436.684 135.096 436.648 134.896 436.648 134.68Z" fill="#3C3F53"/>
<defs>
<linearGradient id="paint0_linear_645_39545" x1="393.5" y1="87" x2="119.513" y2="112.553" gradientUnits="userSpaceOnUse">
<stop stop-color="#FF9ABA"/>
<stop offset="0.804537" stop-color="var(--main-dark)"/>
</linearGradient>
</defs>
</svg>