<svg xmlns="http://www.w3.org/2000/svg" width="22" height="22" viewBox="0 0 22 22" fill="none">
  <path d="M16 22C17.6667 22 19.0833 21.4167 20.25 20.25C21.4167 19.0833 22 17.6667 22 16H20.5C20.5 17.25 20.0627 18.3127 19.188 19.188C18.3127 20.0627 17.25 20.5 16 20.5V22ZM0 6H1.5C1.5 4.75 1.93733 3.68733 2.812 2.812C3.68733 1.93733 4.75 1.5 6 1.5V0C4.33333 0 2.91667 0.583333 1.75 1.75C0.583333 2.91667 0 4.33333 0 6ZM2.4 19.6C3.2 20.4 4.10833 21 5.125 21.4C6.14167 21.8 7.17933 22 8.238 22C9.296 22 10.3333 21.8 11.35 21.4C12.3667 21 13.275 20.4 14.075 19.6L21.15 12.525C21.4167 12.2583 21.5417 11.9543 21.525 11.613C21.5083 11.271 21.3833 10.9833 21.15 10.75C20.9167 10.5167 20.6293 10.3917 20.288 10.375C19.946 10.3583 19.6417 10.4833 19.375 10.75L14.95 15.175L14.25 14.45L20.8 7.925C21.0333 7.69167 21.15 7.39567 21.15 7.037C21.15 6.679 21.0333 6.38333 20.8 6.15C20.55 5.9 20.2543 5.775 19.913 5.775C19.571 5.775 19.275 5.9 19.025 6.15L13.2 11.975L12.475 11.275L19.375 4.375C19.6083 4.14167 19.725 3.84567 19.725 3.487C19.725 3.129 19.6083 2.83333 19.375 2.6C19.1417 2.36667 18.846 2.25 18.488 2.25C18.1293 2.25 17.8333 2.36667 17.6 2.6L10.7 9.5L10.025 8.8L15.5 3.325C15.7667 3.05833 15.8917 2.754 15.875 2.412C15.8583 2.07067 15.7333 1.78333 15.5 1.55C15.25 1.3 14.9543 1.175 14.613 1.175C14.271 1.175 13.975 1.3 13.725 1.55L6.1 9.175C6.75 9.95833 7.02933 10.875 6.938 11.925C6.846 12.975 6.45833 13.8167 5.775 14.45L5.075 13.75C5.80833 13 6.1 12.179 5.95 11.287C5.8 10.3957 5.39167 9.68333 4.725 9.15L8.8 5.075C9.03333 4.84167 9.15 4.54567 9.15 4.187C9.15 3.829 9.03333 3.53333 8.8 3.3C8.55 3.05 8.24567 2.93333 7.887 2.95C7.529 2.96667 7.23333 3.09167 7 3.325L2.4 7.925C1.6 8.725 1 9.63333 0.6 10.65C0.2 11.6667 0 12.704 0 13.762C0 14.8207 0.2 15.8583 0.6 16.875C1 17.8917 1.6 18.8 2.4 19.6Z" fill="#E6D78C"/>
</svg>