<svg xmlns="http://www.w3.org/2000/svg" width="79" height="79" viewBox="0 0 79 79" fill="none">
  <circle cx="39.5" cy="39.5" r="28" fill="#ABEFEB" stroke="black"/>
  <path d="M27.4255 33.2743C27.331 32.4383 27.1903 31.6082 27.0041 30.7878C26.905 30.1212 26.6214 29.4956 26.1853 28.9817C25.6746 28.5066 25.0101 28.231 24.313 28.2051C24.7682 28.0383 25.1799 27.7708 25.5171 27.4224C26.0243 26.8191 26.35 26.0843 26.4562 25.3033C26.6185 24.595 26.6813 23.8675 26.6429 23.1419C26.6429 22.9854 26.7332 25.3996 28.1179 26.6097C28.6637 27.0557 29.3304 27.3282 30.0324 27.3923C29.3325 27.5846 28.719 28.0092 28.2925 28.5964C28.0109 29.044 27.8473 29.5556 27.8169 30.0834C27.552 31.9137 27.4797 33.2743 27.4255 33.2743Z" fill="#342939"/>
  <path d="M52.6018 37.1453C52.5103 36.3089 52.3696 35.4787 52.1804 34.6589C52.0813 33.9922 51.7977 33.3666 51.3616 32.8528C50.8494 32.38 50.1857 32.1047 49.4893 32.0761C49.9445 31.9094 50.3561 31.6418 50.6933 31.2935C51.2006 30.6901 51.5262 29.9553 51.6325 29.1743C51.7948 28.466 51.8576 27.7386 51.8191 27.013C51.8191 26.8564 51.9095 29.2706 53.2942 30.4807C53.8386 30.9289 54.5061 31.2018 55.2086 31.2634C54.5088 31.4556 53.8952 31.8802 53.4687 32.4674C53.1864 32.9169 53.0228 33.4306 52.9931 33.9605C52.7282 35.8088 52.6741 37.1453 52.6018 37.1453Z" fill="#00847A"/>
  <path d="M56.8525 40.9621C56.8142 40.5952 56.7518 40.2312 56.6659 39.8724C56.6215 39.5809 56.4964 39.3077 56.3046 39.0837C56.0819 38.8754 55.7907 38.7555 55.4858 38.7466C55.6827 38.6676 55.861 38.5487 56.0096 38.3974C56.235 38.1328 56.3792 37.8088 56.425 37.4643C56.4957 37.1524 56.522 36.8322 56.5033 36.513C56.5392 37.082 56.7686 37.6216 57.1535 38.0422C57.3945 38.2372 57.6877 38.3566 57.9964 38.3854C57.6878 38.4714 57.418 38.6605 57.2318 38.9212C57.1059 39.118 57.0333 39.3441 57.0211 39.5774C56.9067 40.3781 56.8826 40.9621 56.8525 40.9621Z" fill="#342939"/>
  <path d="M55.5937 27.4586C55.5559 27.092 55.4955 26.7281 55.4131 26.3689C55.3675 26.0778 55.2425 25.8049 55.0518 25.5803C54.8252 25.3742 54.5331 25.2549 54.2271 25.2431C54.4246 25.1656 54.6033 25.0465 54.7508 24.8939C54.9762 24.6293 55.1204 24.3053 55.1662 23.9608C55.2366 23.6509 55.263 23.3327 55.2445 23.0156C55.2855 23.5815 55.5143 24.1176 55.8947 24.5387C56.1341 24.7363 56.4282 24.8561 56.7376 24.8819C56.4304 24.971 56.1615 25.1594 55.973 25.4177C55.8576 25.6097 55.7895 25.8264 55.7743 26.0498C55.6539 26.8746 55.6298 27.4586 55.5937 27.4586Z" fill="#00847A"/>
  <path d="M23.0546 27.2961C23.0161 26.9272 22.9538 26.5612 22.868 26.2003C22.8243 25.9116 22.7013 25.6407 22.5128 25.4177C22.2876 25.2086 21.995 25.0869 21.688 25.0745C21.8859 25.0005 22.0649 24.8833 22.2118 24.7314C22.4371 24.4668 22.5814 24.1428 22.6272 23.7982C22.6972 23.4863 22.7235 23.1662 22.7054 22.847C22.7422 23.414 22.9716 23.9514 23.3556 24.3701C23.5949 24.5689 23.8887 24.6907 24.1985 24.7193C23.8886 24.8026 23.618 24.9923 23.4339 25.2551C23.308 25.4519 23.2354 25.6781 23.2232 25.9114C23.1088 26.7061 23.0847 27.2961 23.0546 27.2961Z" fill="#00847A"/>
  <path d="M24.1978 38.6023C24.1443 38.09 24.0598 37.5813 23.945 37.0792C23.88 36.6763 23.705 36.2992 23.4393 35.9895C23.126 35.701 22.7208 35.5326 22.2954 35.5139C22.5715 35.4104 22.8206 35.2458 23.0239 35.0322C23.3459 34.6683 23.5551 34.2186 23.6259 33.7378C23.7267 33.3061 23.7653 32.8621 23.7403 32.4194C23.791 33.208 24.1097 33.9557 24.6434 34.5386C24.9758 34.8122 25.3826 34.9799 25.8113 35.0202C25.3812 35.1364 25.0059 35.4008 24.7517 35.7667C24.5781 36.0399 24.4766 36.3527 24.4567 36.6758C24.2761 37.7835 24.246 38.6023 24.1978 38.6023Z" fill="#00847A"/>
  <path d="M32.6387 26.0498C32.5664 29.5717 31.5189 31.426 30.5436 32.4675C29.9415 33.0696 29.5623 33.19 29.2191 33.8763C28.1836 35.9594 30.1462 38.0063 29.1348 39.2947C28.4364 40.1917 27.0457 39.8245 26.7808 40.7095C26.5641 41.4138 27.3829 41.9557 27.0758 42.5156C26.7507 43.1537 25.6189 42.654 24.8964 43.2862C23.9332 44.129 25.1553 45.6943 24.3426 47.1814C23.3974 48.9032 21.0735 48.1145 20.3149 49.7039C19.5564 51.2933 20.917 53.8219 22.6689 54.9236C22.9527 55.1015 23.2557 55.2469 23.572 55.3571C29.496 57.3799 38.5025 55.9591 38.5025 55.9591C44.6674 55.0681 44.5831 53.9001 47.491 54.4179C50.09 54.9915 52.7465 55.2642 55.4078 55.2307C56.0099 55.2307 57.0875 55.1524 57.6293 54.4179C58.406 53.3764 57.7377 51.498 57.6293 51.209C57.244 50.1193 56.7805 49.9327 56.7745 49.1139C56.7745 48.1145 57.3765 47.952 57.4186 47.2295C57.4668 45.2789 52.813 44.2193 52.9274 42.4132C52.9635 41.7389 53.6017 41.5222 53.4813 40.7877C53.397 40.3121 53.0719 40.0773 51.9401 39.1622C50.0316 37.615 49.8751 37.4163 49.8028 37.1093C49.5801 36.1701 50.4049 35.7005 50.146 34.8817C49.8871 34.0629 48.8155 34.0027 47.9786 33.4368C45.9257 32.0521 47.0395 28.6747 45.9919 26.8806C45.0588 25.243 41.9703 24.1172 32.6387 26.0498Z" fill="#FF5E33"/>
  <path d="M56.0219 51.2994L23.7466 51.1068C23.9902 49.7046 24.6536 48.4093 25.649 47.3922C28.0572 45.0683 31.0674 46.2182 33.4755 44.382C34.7579 43.4187 36.1185 41.4802 36.2931 37.1936L36.7868 37.1635L39.7368 36.9528L42.6807 37.1635L43.1684 37.1936C43.349 41.4802 44.7036 43.4187 45.992 44.382C48.4001 46.1881 51.32 45.0924 53.8185 47.3922C54.9316 48.4415 55.6999 49.804 56.0219 51.2994Z" fill="#FFA4A4"/>
  <path d="M42.6384 38.7349C42.7067 39.3203 42.5955 39.9128 42.3195 40.4336C42.0435 40.9544 41.6157 41.3791 41.0929 41.6513C40.57 41.9235 39.9768 42.0303 39.3919 41.9577C38.8069 41.8851 38.2578 41.6364 37.8174 41.2446C37.377 40.8528 37.0661 40.3365 36.9258 39.7639C36.7856 39.1914 36.8226 38.5898 37.032 38.0388C37.2415 37.4878 37.6134 37.0135 38.0985 36.6787C38.5837 36.3439 39.1591 36.1645 39.7486 36.1642C40.472 36.1246 41.1817 36.3727 41.7231 36.8542C42.2644 37.3358 42.5934 38.0118 42.6384 38.7349Z" fill="#E57777"/>
  <path d="M39.7785 21.4501C39.2132 21.4442 38.6482 21.4744 38.0868 21.5404C36.7149 21.7013 35.4499 22.3604 34.532 23.3926C33.6142 24.4248 33.1074 25.7581 33.1079 27.1394V32.9431C33.4895 34.902 34.5568 36.6608 36.1181 37.9039C37.1339 38.683 38.3205 39.2093 39.5798 39.4391H39.8748C41.1342 39.2093 42.3208 38.683 43.3366 37.9039C44.8955 36.6587 45.9621 34.9008 46.3468 32.9431V27.1394C46.3473 25.7581 45.8405 24.4248 44.9226 23.3926C44.0048 22.3604 42.7398 21.7013 41.3679 21.5404C40.8404 21.4778 40.3096 21.4477 39.7785 21.4501Z" fill="#FFA4A4"/>
  <path d="M34.3012 32.0703C34.3012 33.2383 33.6028 34.1835 32.7419 34.1835C31.881 34.1835 31.1826 33.2383 31.1826 32.0703C31.1826 30.9024 31.881 29.9572 32.7419 29.9572C33.6028 29.9572 34.3012 30.9204 34.3012 32.0703Z" fill="#FFA4A4"/>
  <path d="M46.7565 34.2015C47.6177 34.2015 48.3158 33.2554 48.3158 32.0883C48.3158 30.9213 47.6177 29.9752 46.7565 29.9752C45.8954 29.9752 45.1973 30.9213 45.1973 32.0883C45.1973 33.2554 45.8954 34.2015 46.7565 34.2015Z" fill="#FFA4A4"/>
  <path d="M39.0742 33.6716C39.2816 33.5613 39.5136 33.5054 39.7485 33.509C39.9853 33.5054 40.2192 33.5613 40.4288 33.6716C40.2192 33.7818 39.9853 33.8377 39.7485 33.8341C39.5136 33.8377 39.2816 33.7818 39.0742 33.6716Z" fill="#342939"/>
  <path d="M49.3939 50.5888C49.5235 50.5871 49.6502 50.6272 49.7551 50.7032C49.8558 50.7932 49.9256 50.9125 49.9548 51.0443C49.9839 51.1761 49.971 51.3137 49.9177 51.4377H28.2744C28.234 51.3505 28.2185 51.2538 28.2295 51.1583C28.2405 51.0628 28.2775 50.9721 28.3366 50.8963C28.3956 50.8204 28.4745 50.7623 28.5644 50.7282C28.6543 50.6942 28.7518 50.6855 28.8463 50.7032C31.0101 50.107 33.265 49.9131 35.4988 50.1313C36.7511 50.2638 37.0702 50.4444 38.4549 50.5106C40.9112 50.625 41.9888 50.1614 43.9936 50.029C45.8123 49.9167 47.637 50.1059 49.3939 50.5888Z" fill="white"/>
  <path d="M38.4546 46.0978C38.5998 46.28 38.7922 46.419 39.0108 46.4996C39.2295 46.5803 39.466 46.5995 39.6948 46.5553C39.8985 46.5069 40.0878 46.4107 40.2469 46.2746C40.406 46.1385 40.5305 45.9664 40.6099 45.7727L38.4546 46.0978Z" fill="#E57777"/>
  <path d="M40.7246 47.2175C40.9541 47.3277 41.1915 47.4202 41.435 47.4944C42.245 47.733 43.0954 47.8027 43.9335 47.6991C46.1189 47.5185 48.1478 47.2115 48.816 47.0971L44.1141 47.2596L40.7246 47.2175Z" fill="#E57777"/>
  <path d="M38.755 47.2175C38.5255 47.3277 38.288 47.4202 38.0446 47.4944C37.2346 47.733 36.3842 47.8027 35.5461 47.6991C33.3607 47.5185 31.3318 47.2115 30.6636 47.0971L35.3595 47.2596L38.755 47.2175Z" fill="#E57777"/>
  <path d="M27.3345 57.2899C29.544 57.4705 31.7595 57.5307 33.9569 57.6331C38.4421 57.8378 42.9213 58.0665 47.4125 57.8739C48.8152 57.8137 50.2059 57.6933 51.5906 57.5367C51.56 56.44 51.1321 55.3917 50.3866 54.5867C50.5973 53.491 50.802 52.3953 50.9886 51.2996C50.235 50.3957 49.3023 49.6577 48.2493 49.1323C44.2698 47.1455 40.1158 49.066 39.4475 49.3851C39.4429 49.3825 39.4377 49.3811 39.4325 49.3811C39.4272 49.3811 39.422 49.3825 39.4174 49.3851H39.3813C38.713 49.0781 34.565 47.1576 30.5795 49.1443C29.5285 49.673 28.5964 50.4105 27.8402 51.3116L28.4723 54.5988C27.8049 55.3447 27.4046 56.2914 27.3345 57.2899Z" fill="#FFA4A4"/>
  <path d="M29.5318 57.4344L30.0014 52.016C29.525 51.1568 28.7526 50.5 27.828 50.1678C27.1241 49.9485 26.3744 49.9216 25.6566 50.0899C24.9388 50.2583 24.2792 50.6156 23.7462 51.125C23.4151 52.8709 23.1441 54.7373 22.9395 56.73C25.1195 57.106 27.3215 57.3412 29.5318 57.4344Z" fill="#FFA4A4"/>
  <path d="M56.7685 56.7538C56.5698 54.749 56.2868 52.8586 55.9557 51.1006C55.4227 50.5913 54.7631 50.2339 54.0453 50.0655C53.3275 49.8972 52.5778 49.9241 51.8739 50.1434C50.9496 50.4734 50.1784 51.1311 49.7065 51.9916C49.8631 53.8881 50.0256 55.7785 50.1882 57.6749C52.3977 57.4762 54.571 57.1571 56.7685 56.7538Z" fill="#FFA4A4"/>
  <path d="M39.7112 37.6814H39.6209C39.2255 37.6672 38.8368 37.5751 38.477 37.4105C38.4413 37.3935 38.4137 37.3632 38.4002 37.326C38.3867 37.2888 38.3883 37.2478 38.4048 37.2118C38.4126 37.1936 38.424 37.1771 38.4384 37.1635C38.4528 37.1498 38.4698 37.1393 38.4884 37.1325C38.5071 37.1257 38.5269 37.1229 38.5467 37.1241C38.5665 37.1253 38.5858 37.1306 38.6035 37.1396C38.9278 37.286 39.2774 37.3678 39.633 37.3804C40.0194 37.3897 40.4034 37.3158 40.7588 37.1637C40.7958 37.1505 40.8362 37.1512 40.8728 37.1656C40.9093 37.18 40.9394 37.2071 40.9575 37.2419C40.9653 37.2605 40.9693 37.2804 40.9692 37.3005C40.9692 37.3207 40.9651 37.3406 40.9573 37.3591C40.9494 37.3776 40.9379 37.3944 40.9235 37.4084C40.909 37.4224 40.8919 37.4333 40.8732 37.4406C40.506 37.5981 40.1108 37.68 39.7112 37.6814Z" fill="#342939"/>
  <path d="M39.689 36.1341C38.8122 36.13 37.9559 35.8683 37.2266 35.3816C37.194 35.3584 37.1715 35.3238 37.1637 35.2846C37.1558 35.2454 37.1633 35.2047 37.1845 35.1708C37.2076 35.1383 37.2423 35.1157 37.2815 35.1079C37.3206 35.1001 37.3613 35.1075 37.3952 35.1287C38.0801 35.5944 38.8905 35.8403 39.7187 35.8339C40.5469 35.8274 41.3534 35.5689 42.0309 35.0926C42.0628 35.0702 42.1023 35.0615 42.1407 35.0682C42.1791 35.075 42.2133 35.0968 42.2356 35.1287C42.258 35.1606 42.2667 35.2001 42.2599 35.2385C42.2532 35.2769 42.2314 35.311 42.1995 35.3334C41.5337 35.804 40.7497 36.0792 39.9358 36.1281L39.689 36.1341Z" fill="#342939"/>
  <path d="M41.247 35.7605C40.7767 36.0627 40.2287 36.2217 39.6697 36.2181C39.1401 36.2144 38.621 36.0711 38.1646 35.8027C38.6436 35.611 39.1538 35.509 39.6697 35.5016C40.2067 35.4921 40.7411 35.5798 41.247 35.7605Z" fill="white"/>
  <path d="M41.4285 35.7427C41.3692 35.7981 41.3023 35.8447 41.2298 35.8812C40.7542 36.0979 40.4291 35.5922 39.7789 35.5681C39.1287 35.544 38.7916 36.0738 38.1896 35.8631C38.0963 35.8342 38.0087 35.7894 37.9307 35.7307C38.1491 35.3614 38.4805 35.0723 38.8759 34.9059C39.1286 34.8158 39.3967 34.777 39.6645 34.7915C40.1338 34.7611 40.5987 34.8975 40.977 35.1768C41.1651 35.3321 41.3189 35.5248 41.4285 35.7427Z" fill="#E57777"/>
  <path d="M37.1946 30.4265C37.1762 30.6468 37.0731 30.8515 36.9069 30.9974C36.7408 31.1434 36.5245 31.2192 36.3036 31.2091C36.1971 31.2208 36.0894 31.2111 35.9866 31.1806C35.8839 31.1502 35.7883 31.0995 35.7053 31.0317C35.6224 30.9639 35.5538 30.8803 35.5035 30.7856C35.4533 30.691 35.4224 30.5874 35.4126 30.4807C35.431 30.2614 35.5333 30.0576 35.6981 29.9119C35.863 29.7661 36.0777 29.6895 36.2976 29.698C36.4044 29.6863 36.5125 29.696 36.6156 29.7264C36.7187 29.7568 36.8147 29.8073 36.8981 29.875C36.9816 29.9428 37.0507 30.0264 37.1016 30.1211C37.1525 30.2157 37.1841 30.3195 37.1946 30.4265Z" fill="#342939"/>
  <path d="M34.0415 30.3725C34.8603 29.8968 35.8476 29.5055 36.6784 29.8848C37.3648 30.2039 37.6417 30.9504 37.732 30.8962C37.7428 30.5495 37.6595 30.2064 37.491 29.9032C37.3224 29.6001 37.0749 29.3482 36.7748 29.1744C35.9921 28.8072 34.8001 29.2406 34.0415 30.3725Z" fill="#E57777"/>
  <path d="M37.7558 30.9986C37.7289 30.9981 37.7025 30.9906 37.6793 30.9769C37.6561 30.9632 37.6368 30.9437 37.6234 30.9203C37.4401 30.6022 37.1737 30.34 36.8527 30.1618C36.4133 29.9581 35.9258 29.8812 35.445 29.9397C34.9642 29.9982 34.5093 30.1898 34.1315 30.4929C34.1161 30.5082 34.0976 30.52 34.0772 30.5274C34.0568 30.5349 34.035 30.5378 34.0133 30.5361C33.9917 30.5343 33.9707 30.5279 33.9517 30.5173C33.9328 30.5066 33.9164 30.492 33.9037 30.4744C33.8909 30.4568 33.8821 30.4367 33.8779 30.4154C33.8736 30.3941 33.8741 30.3721 33.8791 30.351C33.8842 30.3299 33.8938 30.3101 33.9072 30.293C33.9206 30.2759 33.9376 30.262 33.9569 30.2521C34.3796 29.9141 34.8887 29.7017 35.4262 29.6389C35.9637 29.5761 36.508 29.6655 36.9972 29.8969C37.3648 30.1038 37.6703 30.4052 37.8822 30.7698C37.901 30.8038 37.9065 30.8436 37.8976 30.8815C37.8887 30.9193 37.8661 30.9525 37.8341 30.9745C37.8099 30.9879 37.7833 30.9961 37.7558 30.9986Z" fill="#342939"/>
  <path d="M43.7158 30.5367C43.7531 30.1228 43.3859 29.7515 42.8958 29.7074C42.4057 29.6633 41.9782 29.9631 41.941 30.3771C41.9037 30.791 42.2709 31.1624 42.761 31.2064C43.2511 31.2505 43.6786 30.9507 43.7158 30.5367Z" fill="#342939"/>
  <path d="M45.0952 30.3725C44.2765 29.8968 43.2891 29.5055 42.4583 29.8848C41.772 30.2039 41.495 30.9504 41.4047 30.8962C41.3939 30.5495 41.4772 30.2064 41.6458 29.9032C41.8143 29.6001 42.0618 29.3482 42.362 29.1744C43.1326 28.8072 44.3367 29.2406 45.0952 30.3725Z" fill="#E57777"/>
  <path d="M41.3804 30.9986C41.3545 31.0038 41.3279 31.0038 41.3021 30.9986C41.2701 30.9766 41.2474 30.9434 41.2385 30.9056C41.2296 30.8677 41.2351 30.8279 41.2539 30.7939C41.4642 30.428 41.7702 30.1262 42.1389 29.921C42.6244 29.6956 43.1629 29.6095 43.6944 29.6722C44.2259 29.7349 44.7295 29.944 45.1491 30.2762C45.1685 30.2861 45.1854 30.3 45.1989 30.3171C45.2123 30.3342 45.2219 30.3539 45.2269 30.3751C45.232 30.3962 45.2324 30.4182 45.2282 30.4395C45.224 30.4608 45.2152 30.4809 45.2024 30.4985C45.1897 30.5161 45.1733 30.5307 45.1543 30.5413C45.1354 30.552 45.1144 30.5584 45.0927 30.5602C45.0711 30.5619 45.0493 30.559 45.0289 30.5515C45.0085 30.5441 44.99 30.5323 44.9746 30.517C44.5968 30.2139 44.1419 30.0223 43.6611 29.9638C43.1803 29.9053 42.6928 29.9822 42.2533 30.1859C41.9324 30.3641 41.666 30.6263 41.4827 30.9444C41.4568 30.9749 41.4202 30.9943 41.3804 30.9986Z" fill="#342939"/>
  <path d="M45.5407 28.1992C44.058 27.9555 42.5384 28.0711 41.1097 28.5364C41.0956 28.4083 41.0956 28.2791 41.1097 28.151C41.1607 27.8733 41.2762 27.6115 41.4468 27.3865C42.1091 27.3323 42.6509 27.3202 43.0723 27.3263C43.5567 27.2863 44.0444 27.3352 44.5112 27.4707C44.913 27.6178 45.2683 27.8692 45.5407 28.1992Z" fill="#342939"/>
  <path d="M41.1211 27.3984C41.0473 27.5453 40.9927 27.7011 40.9585 27.8619C40.8973 28.0846 40.8973 28.3196 40.9585 28.5422C41.0007 28.5422 41.0789 28.1328 41.103 28.0124C41.1303 27.8243 41.1808 27.6403 41.2535 27.4646L41.3137 27.3442L41.1211 27.3984Z" fill="#342939"/>
  <path d="M33.9814 28.1991C35.4622 27.9556 36.9797 28.0713 38.4064 28.5362C38.4205 28.4082 38.4205 28.279 38.4064 28.1509C38.3554 27.8732 38.2399 27.6113 38.0693 27.3863C37.4071 27.3321 36.8652 27.3201 36.4438 27.3261C35.9594 27.2868 35.4718 27.3358 35.0049 27.4706C34.6042 27.6165 34.2505 27.8682 33.9814 28.1991Z" fill="#342939"/>
  <path d="M38.4168 27.3984C38.4905 27.5453 38.5451 27.7011 38.5793 27.8619C38.6447 28.084 38.6447 28.3202 38.5793 28.5422C38.5372 28.5422 38.4589 28.1328 38.4348 28.0124C38.4076 27.8243 38.357 27.6403 38.2843 27.4646L38.2241 27.3442L38.4168 27.3984Z" fill="#342939"/>
  <path d="M41.4282 35.7428C41.5847 35.9776 40.8261 37.2299 39.7666 37.272C38.707 37.3141 37.7738 35.9716 37.9303 35.7308C38.0869 35.49 38.6648 36.0499 39.8147 36.0137C40.8141 35.9897 41.3258 35.5803 41.4282 35.7428Z" fill="#E57777"/>
  <path d="M40.4886 21.3178C40.4013 21.6095 40.2947 21.8951 40.1695 22.1727C39.3146 24.0992 38.0142 24.5808 36.4068 26.11C34.1491 28.2352 33.5712 30.2159 32.7403 29.9751C32.5296 29.9149 32.355 29.7222 32.1383 29.2466C31.736 28.2339 31.5898 27.1376 31.7126 26.0548C31.8355 24.9721 32.2237 23.9364 32.8427 23.0396C34.2635 21.0408 37.1112 19.5297 39.2303 20.4147C39.7109 20.6199 40.1404 20.9282 40.4886 21.3178Z" fill="#FF5E33"/>
  <path d="M38.918 21.3178C38.9999 21.6104 39.1046 21.8963 39.231 22.1727C40.0859 24.0992 41.3863 24.5808 42.9938 26.11C45.2514 28.2352 45.8294 30.2159 46.6602 29.9751C46.8709 29.9149 47.0455 29.7222 47.2622 29.2466C47.6646 28.2339 47.8108 27.1376 47.6879 26.0548C47.565 24.9721 47.1769 23.9364 46.5579 23.0396C45.137 21.0408 42.2894 19.5297 40.1702 20.4147C39.6904 20.6182 39.2625 20.9268 38.918 21.3178Z" fill="#FF5E33"/>
  <path d="M34.0418 29.4211H31.6396V31.2152H34.0418V29.4211Z" fill="white"/>
  <path d="M47.9607 29.4211H45.5586V31.2152H47.9607V29.4211Z" fill="white"/>
  <path d="M39.9055 24.2859H39.8574C39.7576 24.2859 39.6768 24.3668 39.6768 24.4665V30.2942C39.6768 30.394 39.7576 30.4749 39.8574 30.4749H39.9055C40.0053 30.4749 40.0862 30.394 40.0862 30.2942V24.4665C40.0862 24.3668 40.0053 24.2859 39.9055 24.2859Z" fill="white"/>
  <path d="M46.9432 24.2859H32.705C32.5254 24.2859 32.3799 24.4314 32.3799 24.611V24.7013C32.3799 24.8808 32.5254 25.0264 32.705 25.0264H46.9432C47.1228 25.0264 47.2683 24.8808 47.2683 24.7013V24.611C47.2683 24.4314 47.1228 24.2859 46.9432 24.2859Z" fill="white"/>
  <path d="M39.851 25.5802C40.363 25.5802 40.7781 25.1651 40.7781 24.653C40.7781 24.141 40.363 23.7259 39.851 23.7259C39.3389 23.7259 38.9238 24.141 38.9238 24.653C38.9238 25.1651 39.3389 25.5802 39.851 25.5802Z" fill="#4A485D"/>
  <path d="M33.7708 24.653C33.7708 24.8364 33.7164 25.0157 33.6145 25.1681C33.5127 25.3206 33.3679 25.4394 33.1984 25.5096C33.029 25.5798 32.8426 25.5981 32.6628 25.5624C32.4829 25.5266 32.3177 25.4383 32.1881 25.3086C32.0584 25.179 31.9701 25.0138 31.9343 24.8339C31.8985 24.6541 31.9169 24.4676 31.9871 24.2982C32.0572 24.1288 32.1761 23.984 32.3285 23.8821C32.481 23.7803 32.6603 23.7259 32.8436 23.7259C33.0895 23.7259 33.3254 23.8236 33.4992 23.9974C33.6731 24.1713 33.7708 24.4071 33.7708 24.653Z" fill="#4A485D"/>
  <path d="M46.7558 25.5802C47.2678 25.5802 47.6829 25.1651 47.6829 24.653C47.6829 24.141 47.2678 23.7259 46.7558 23.7259C46.2437 23.7259 45.8286 24.141 45.8286 24.653C45.8286 25.1651 46.2437 25.5802 46.7558 25.5802Z" fill="#4A485D"/>
  <path d="M32.4627 28.3857H31.1743V31.0166H32.4627V28.3857Z" fill="white"/>
  <path d="M48.3284 28.3857H47.04V31.0166H48.3284V28.3857Z" fill="white"/>
  <path d="M48.7381 31.4019C48.7381 31.5852 48.6837 31.7645 48.5818 31.917C48.48 32.0694 48.3352 32.1883 48.1657 32.2584C47.9963 32.3286 47.8099 32.347 47.6301 32.3112C47.4502 32.2754 47.285 32.1871 47.1553 32.0575C47.0257 31.9278 46.9374 31.7626 46.9016 31.5827C46.8658 31.4029 46.8842 31.2165 46.9544 31.0471C47.0245 30.8777 47.1434 30.7329 47.2958 30.631C47.4483 30.5291 47.6276 30.4747 47.8109 30.4747C48.0568 30.4747 48.2927 30.5724 48.4665 30.7463C48.6404 30.9202 48.7381 31.156 48.7381 31.4019Z" fill="#4A485D"/>
  <path d="M32.7527 31.5225C32.7527 31.7059 32.6983 31.8852 32.5965 32.0376C32.4946 32.1901 32.3498 32.3089 32.1804 32.3791C32.011 32.4493 31.8245 32.4676 31.6447 32.4319C31.4649 32.3961 31.2996 32.3078 31.17 32.1781C31.0403 32.0485 30.952 31.8833 30.9163 31.7034C30.8805 31.5236 30.8988 31.3372 30.969 31.1677C31.0392 30.9983 31.158 30.8535 31.3105 30.7516C31.4629 30.6498 31.6422 30.5954 31.8256 30.5954C32.0715 30.5954 32.3073 30.6931 32.4812 30.8669C32.655 31.0408 32.7527 31.2766 32.7527 31.5225Z" fill="#4A485D"/>
  <path d="M36.2931 33.4066C35.7395 33.4066 35.1982 33.2425 34.7378 32.9349C34.2775 32.6272 33.9186 32.19 33.7068 31.6785C33.4949 31.1669 33.4394 30.6041 33.5474 30.061C33.6555 29.518 33.9221 29.0191 34.3136 28.6276C34.7051 28.2361 35.2039 27.9695 35.747 27.8615C36.29 27.7535 36.8529 27.8089 37.3644 28.0208C37.876 28.2327 38.3132 28.5915 38.6208 29.0519C38.9284 29.5122 39.0926 30.0535 39.0926 30.6072C39.0926 31.3496 38.7977 32.0617 38.2727 32.5867C37.7477 33.1117 37.0356 33.4066 36.2931 33.4066ZM36.2931 28.5C35.8749 28.5 35.4661 28.6241 35.1185 28.8566C34.7709 29.089 34.5 29.4194 34.3403 29.8059C34.1805 30.1924 34.139 30.6176 34.221 31.0277C34.3031 31.4377 34.5049 31.8143 34.8011 32.1095C35.0972 32.4048 35.4743 32.6056 35.8846 32.6865C36.2949 32.7673 36.72 32.7246 37.106 32.5638C37.492 32.4029 37.8216 32.1311 38.0531 31.7828C38.2846 31.4345 38.4075 31.0254 38.4063 30.6072C38.4047 30.0478 38.1814 29.5118 37.7852 29.1168C37.3891 28.7218 36.8526 28.5 36.2931 28.5Z" fill="white"/>
  <path d="M43.3376 33.4066C42.7839 33.4066 42.2426 33.2425 41.7823 32.9349C41.3219 32.6272 40.9631 32.19 40.7512 31.6785C40.5393 31.1669 40.4839 30.6041 40.5919 30.061C40.6999 29.518 40.9665 29.0191 41.358 28.6276C41.7495 28.2361 42.2484 27.9695 42.7914 27.8615C43.3345 27.7535 43.8973 27.8089 44.4089 28.0208C44.9204 28.2327 45.3576 28.5915 45.6653 29.0519C45.9729 29.5122 46.137 30.0535 46.137 30.6072C46.137 31.3496 45.8421 32.0617 45.3171 32.5867C44.7921 33.1117 44.08 33.4066 43.3376 33.4066ZM43.3376 28.5C42.9194 28.5 42.5106 28.6241 42.1629 28.8566C41.8153 29.089 41.5444 29.4194 41.3847 29.8059C41.2249 30.1924 41.1834 30.6176 41.2655 31.0277C41.3475 31.4377 41.5493 31.8143 41.8455 32.1095C42.1416 32.4048 42.5187 32.6056 42.929 32.6865C43.3393 32.7673 43.7644 32.7246 44.1504 32.5638C44.5364 32.4029 44.8661 32.1311 45.0975 31.7828C45.329 31.4345 45.4519 31.0254 45.4507 30.6072C45.4491 30.0478 45.2258 29.5118 44.8297 29.1168C44.4336 28.7218 43.897 28.5 43.3376 28.5Z" fill="white"/>
  <path d="M41.1396 31.5222C40.9689 31.3432 40.7633 31.2011 40.5354 31.1048C40.3076 31.0085 40.0624 30.96 39.8151 30.9623C39.3424 30.9786 38.8949 31.1796 38.5688 31.5222V29.6619C38.9747 29.4868 39.4121 29.3965 39.8542 29.3965C40.2962 29.3965 40.7337 29.4868 41.1396 29.6619V31.5222Z" fill="white"/>
  <path d="M22.0615 56.5794C22.1343 54.5952 22.554 52.6391 23.3017 50.7998C24.2891 48.3917 25.1079 46.4049 26.9802 45.5801C28.8525 44.7553 30.0446 45.5801 32.1156 44.5506C33.3567 43.8895 34.37 42.8699 35.0234 41.6247C35.0347 41.4237 35.1181 41.2334 35.2582 41.0889C35.8603 40.5411 37.1005 41.8655 38.9427 42.0943C41.4051 42.4014 43.2473 40.529 44.1684 41.402C44.2968 41.5285 44.3902 41.6861 44.4393 41.8595C44.8999 42.8289 45.608 43.6596 46.4923 44.2677C48.4008 45.5139 49.9781 44.8697 52.1876 45.851C53.5964 46.4531 54.3549 47.5006 55.1978 48.6746C57.7384 52.0942 57.6059 56.0195 57.5096 57.4042C45.7879 59.8648 33.6561 59.5826 22.0615 56.5794Z" fill="#57315A"/>
  <path d="M39.4112 45.917C37.17 45.9176 34.9641 45.3589 32.9934 44.2915C32.9762 44.2826 32.961 44.2704 32.9486 44.2555C32.9362 44.2406 32.9269 44.2234 32.9213 44.2049C32.9156 44.1864 32.9138 44.1669 32.9159 44.1476C32.9179 44.1284 32.9238 44.1097 32.9332 44.0928C32.9524 44.0577 32.9843 44.0313 33.0224 44.019C33.0605 44.0066 33.1018 44.0094 33.1379 44.0266C34.1066 44.5556 35.1382 44.9602 36.2083 45.2307C39.3717 45.9622 42.689 45.6125 45.6303 44.2373C45.6484 44.2293 45.668 44.225 45.6879 44.2246C45.7077 44.2243 45.7274 44.2278 45.7459 44.2351C45.7643 44.2424 45.7812 44.2532 45.7954 44.267C45.8097 44.2808 45.8211 44.2973 45.8289 44.3156C45.8435 44.3524 45.8435 44.3934 45.8289 44.4303C45.8144 44.4672 45.7864 44.4972 45.7507 44.5142C43.7579 45.4172 41.5989 45.895 39.4112 45.917Z" fill="#342939"/>
  <path d="M35.1012 44.8636C35.0836 44.8692 35.0646 44.8692 35.047 44.8636C35.0285 44.857 35.0115 44.8467 34.9971 44.8332C34.9827 44.8198 34.9712 44.8035 34.9633 44.7855C34.9554 44.7675 34.9513 44.748 34.9512 44.7283C34.9511 44.7086 34.955 44.6891 34.9627 44.671L35.9982 41.9979C36.0049 41.9794 36.0152 41.9624 36.0286 41.948C36.0421 41.9336 36.0583 41.9221 36.0764 41.9142C36.0944 41.9063 36.1139 41.9022 36.1336 41.9021C36.1532 41.902 36.1728 41.9059 36.1909 41.9136C36.2094 41.9203 36.2264 41.9306 36.2408 41.9441C36.2552 41.9575 36.2667 41.9737 36.2746 41.9918C36.2825 42.0098 36.2866 42.0293 36.2867 42.049C36.2868 42.0687 36.2829 42.0882 36.2752 42.1063L35.2457 44.7794C35.232 44.8056 35.2112 44.8275 35.1856 44.8424C35.1601 44.8573 35.1308 44.8647 35.1012 44.8636Z" fill="#342939"/>
  <path d="M37.3103 45.2247C37.2886 45.224 37.2673 45.2188 37.2478 45.2095C37.2282 45.2001 37.2108 45.1868 37.1967 45.1704C37.1825 45.154 37.1719 45.1348 37.1656 45.1141C37.1592 45.0934 37.1572 45.0716 37.1597 45.0501L37.4186 43.6172C37.426 43.5782 37.4484 43.5436 37.4811 43.521C37.5138 43.4985 37.5541 43.4898 37.5932 43.4968C37.6129 43.4996 37.6318 43.5065 37.6488 43.517C37.6657 43.5275 37.6803 43.5414 37.6916 43.5578C37.7029 43.5742 37.7107 43.5927 37.7145 43.6123C37.7183 43.6318 37.718 43.652 37.7136 43.6714L37.4608 45.1042C37.4527 45.1382 37.4335 45.1685 37.4063 45.1904C37.379 45.2122 37.3452 45.2243 37.3103 45.2247Z" fill="#342939"/>
  <path d="M39.3753 45.2069C39.338 45.2069 39.3021 45.1925 39.2752 45.1667C39.2482 45.1409 39.2323 45.1057 39.2308 45.0684L39.0923 43.2623C39.0907 43.2425 39.0929 43.2226 39.099 43.2037C39.1051 43.1848 39.1149 43.1673 39.1277 43.1522C39.1406 43.1371 39.1563 43.1247 39.174 43.1157C39.1917 43.1067 39.211 43.1013 39.2308 43.0997C39.2507 43.0972 39.271 43.0989 39.2902 43.1046C39.3095 43.1104 39.3273 43.1201 39.3426 43.1331C39.3579 43.1461 39.3703 43.1622 39.3791 43.1803C39.3878 43.1984 39.3927 43.2181 39.3933 43.2382L39.5258 45.0443C39.5274 45.0641 39.5251 45.084 39.5191 45.1029C39.513 45.1218 39.5032 45.1393 39.4904 45.1544C39.4775 45.1695 39.4618 45.1819 39.4441 45.1909C39.4264 45.1999 39.4071 45.2054 39.3873 45.2069H39.3753Z" fill="#342939"/>
  <path d="M43.187 44.6227C43.156 44.6228 43.1258 44.6129 43.1008 44.5945C43.0759 44.576 43.0575 44.5501 43.0485 44.5204L42.5007 43.0033C42.4871 42.9657 42.489 42.9244 42.5059 42.8882C42.5229 42.8521 42.5534 42.8242 42.591 42.8106C42.6285 42.7986 42.6693 42.8012 42.705 42.818C42.7407 42.8347 42.7688 42.8644 42.7836 42.9009L43.3315 44.418C43.339 44.4366 43.3427 44.4564 43.3422 44.4764C43.3417 44.4964 43.3371 44.5161 43.3286 44.5342C43.3201 44.5523 43.308 44.5685 43.2929 44.5816C43.2779 44.5948 43.2602 44.6047 43.2412 44.6107L43.187 44.6227Z" fill="#342939"/>
  <path d="M79 39.5C79 61.3152 61.3152 79 39.5 79C17.6848 79 0 61.3152 0 39.5C0 17.6848 17.6848 0 39.5 0C61.3152 0 79 17.6848 79 39.5ZM3.28568 39.5C3.28568 59.5006 19.4994 75.7143 39.5 75.7143C59.5006 75.7143 75.7143 59.5006 75.7143 39.5C75.7143 19.4994 59.5006 3.28568 39.5 3.28568C19.4994 3.28568 3.28568 19.4994 3.28568 39.5Z" fill="#9D9D9D"/>
  <path d="M79 39.5C79 47.7543 76.4141 55.8012 71.6057 62.5103C66.7972 69.2194 60.0078 74.2536 52.1912 76.9057C44.3745 79.5577 35.9234 79.6944 28.0251 77.2965C20.1268 74.8986 13.1781 70.0866 8.15521 63.5365C3.13231 56.9864 0.287588 49.0273 0.0206591 40.7774C-0.246269 32.5274 2.07801 24.4011 6.66699 17.54C11.256 10.6789 17.8791 5.42775 25.6059 2.5243C33.3326 -0.379156 41.7749 -0.789059 49.7466 1.35217L48.8943 4.52538C41.5857 2.56226 33.8457 2.93807 26.7616 5.6C19.6775 8.26194 13.6054 13.0763 9.3981 19.3666C5.19084 25.657 3.0599 33.1074 3.30462 40.6711C3.54935 48.2348 6.15744 55.5319 10.7625 61.5371C15.3676 67.5424 21.7383 71.9541 28.9796 74.1525C36.2209 76.351 43.969 76.2257 51.1355 73.7942C58.3019 71.3627 64.5266 66.7473 68.9351 60.5963C73.3436 54.4452 75.7143 47.0677 75.7143 39.5H79Z" fill="#409BEE"/>
</svg>