<svg xmlns="http://www.w3.org/2000/svg" width="165" height="164" viewBox="0 0 165 164" fill="none">
  <path d="M150.9 81.2845C159.24 81.2845 166.141 88.1014 164.607 96.2984C162.562 107.222 158.296 117.675 152.012 126.999C142.892 140.531 129.929 151.078 114.763 157.305C99.5965 163.533 82.9079 165.163 66.8075 161.988C50.7071 158.813 35.9179 150.976 24.3101 139.468C12.7024 127.961 4.79739 113.299 1.59482 97.3374C-1.60775 81.3758 0.0359254 64.8311 6.318 49.7956C12.6001 34.7601 23.2384 21.909 36.8877 12.8674C46.3653 6.58925 56.9992 2.34364 68.1098 0.334917C76.2454 -1.13594 83 5.70211 83 13.9696C83 22.237 76.1693 28.735 68.2267 31.0298C63.0827 32.5161 58.169 34.7778 53.6656 37.7609C44.9826 43.5127 38.215 51.6879 34.2187 61.2528C30.2224 70.8176 29.1767 81.3426 31.214 91.4966C33.2514 101.651 38.2801 110.978 45.6644 118.298C53.0487 125.619 62.4568 130.604 72.6991 132.624C82.9414 134.644 93.5578 133.607 103.206 129.645C112.854 125.683 121.1 118.974 126.902 110.366C129.863 105.972 132.12 101.184 133.62 96.1724C136.011 88.1831 142.561 81.2845 150.9 81.2845Z" fill="#409BEE"/>
</svg>