<svg width="16" height="16" viewBox="0 0 16 16" fill="none" xmlns="http://www.w3.org/2000/svg">
<g id="Play">
<path id="Vector" d="M13.5926 7.57338L4.59411 2.0741C4.51831 2.02778 4.43155 2.00248 4.34274 2.00082C4.25392 1.99916 4.16627 2.02118 4.0888 2.06463C4.01132 2.10808 3.94682 2.17139 3.90193 2.24803C3.85704 2.32468 3.83337 2.41191 3.83337 2.50073V13.4993C3.83337 13.5881 3.85704 13.6754 3.90193 13.752C3.94682 13.8287 4.01132 13.892 4.0888 13.9354C4.16627 13.9789 4.25392 14.0009 4.34274 13.9992C4.43155 13.9976 4.51831 13.9723 4.59411 13.9259L13.5926 8.42666C13.6657 8.38199 13.7261 8.3193 13.768 8.2446C13.8099 8.16989 13.8319 8.08567 13.8319 8.00002C13.8319 7.91437 13.8099 7.83015 13.768 7.75545C13.7261 7.68074 13.6657 7.61805 13.5926 7.57338Z" fill="#A1A5B3"/>
</g>
</svg>
