<svg width="24" height="24" viewBox="0 0 24 24" fill="none" xmlns="http://www.w3.org/2000/svg">
<g id="fluent:document-search-16-regular">
<path id="Vector" d="M7.5 1.5C6.70435 1.5 5.94129 1.81607 5.37868 2.37868C4.81607 2.94129 4.5 3.70435 4.5 4.5V7.884C4.977 7.716 5.4795 7.599 6 7.5405V4.5C6 4.10218 6.15803 3.72064 6.43934 3.43934C6.72064 3.15804 7.10217 3 7.5 3H12V6.75C12 7.34674 12.2371 7.91903 12.659 8.34099C13.081 8.76295 13.6533 9 14.25 9H18V19.5C18 19.8978 17.842 20.2794 17.5607 20.5607C17.2794 20.842 16.8978 21 16.5 21H16.3725C16.5435 21.4845 16.5435 22.0155 16.3725 22.5H16.5C17.2956 22.5 18.0587 22.1839 18.6213 21.6213C19.1839 21.0587 19.5 20.2956 19.5 19.5V8.121C19.4995 7.52446 19.2621 6.95255 18.84 6.531L14.4705 2.1585C14.2615 1.9496 14.0133 1.78393 13.7403 1.67094C13.4672 1.55795 13.1745 1.49987 12.879 1.5H7.5ZM17.6895 7.5H14.25C14.0511 7.5 13.8603 7.42098 13.7197 7.28033C13.579 7.13968 13.5 6.94891 13.5 6.75V3.3105L17.6895 7.5ZM9.894 18.4545C8.83101 19.2494 7.5064 19.6121 6.18674 19.4697C4.86709 19.3273 3.65036 18.6903 2.78141 17.687C1.91247 16.6836 1.45582 15.3884 1.50337 14.0619C1.55092 12.7355 2.09914 11.4762 3.03769 10.5377C3.97625 9.59914 5.23547 9.05092 6.56193 9.00337C7.88839 8.95582 9.18363 9.41247 10.187 10.2814C11.1903 11.1504 11.8273 12.3671 11.9697 13.6867C12.1121 15.0064 11.7494 16.331 10.9545 17.394L14.7795 21.219C14.9203 21.3596 14.9995 21.5504 14.9997 21.7495C14.9998 21.9485 14.9209 22.1394 14.7802 22.2803C14.6396 22.4211 14.4488 22.5003 14.2498 22.5004C14.0508 22.5006 13.8598 22.4216 13.719 22.281L9.894 18.4545ZM10.5 14.25C10.5 13.2554 10.1049 12.3016 9.40165 11.5983C8.69839 10.8951 7.74456 10.5 6.75 10.5C5.75544 10.5 4.80161 10.8951 4.09835 11.5983C3.39509 12.3016 3 13.2554 3 14.25C3 15.2446 3.39509 16.1984 4.09835 16.9017C4.80161 17.6049 5.75544 18 6.75 18C7.74456 18 8.69839 17.6049 9.40165 16.9017C10.1049 16.1984 10.5 15.2446 10.5 14.25Z" fill="white"/>
</g>
</svg>
