<svg xmlns="http://www.w3.org/2000/svg" width="180" height="120" viewBox="0 0 180 120" fill="none">
<path d="M53.1483 60.0922C69.5566 60.0922 82.9816 46.6672 82.9816 30.2589C82.9816 13.8505 69.5566 0.425537 53.1483 0.425537C36.7399 0.425537 23.3149 13.8505 23.3149 30.2589C23.3149 46.6672 36.7399 60.0922 53.1483 60.0922ZM82.9816 119.759V80.2297C74.7774 77.2464 64.3358 75.0089 53.1483 75.0089C24.0608 75.0089 0.939941 88.4339 0.939941 104.842V119.759H82.9816ZM165.023 0.425537H112.815C104.611 0.425537 97.8983 7.13804 97.8983 15.3422V104.842C97.8983 113.046 104.611 119.759 112.815 119.759H165.023C173.227 119.759 179.94 113.046 179.94 104.842V15.3422C179.94 7.13804 173.227 0.425537 165.023 0.425537ZM135.19 104.842H120.273V15.3422H135.19V104.842Z" fill="#00CB5D"/>
</svg>