<svg xmlns="http://www.w3.org/2000/svg" width="25" height="21" viewBox="0 0 25 21" fill="none">
<path d="M1.91974 8.14898L0.959868 9.15849L0 8.14898L0.959868 7.13946L1.91974 8.14898ZM25 19.5721C25 19.9508 24.857 20.314 24.6024 20.5818C24.3477 20.8496 24.0024 21 23.6423 21C23.2823 21 22.9369 20.8496 22.6823 20.5818C22.4277 20.314 22.2847 19.9508 22.2847 19.5721H25ZM7.74818 16.298L0.959868 9.15849L2.8796 7.13946L9.66792 14.2789L7.74818 16.298ZM0.959868 7.13946L7.74818 0L9.66792 2.01904L2.8796 9.15849L0.959868 7.13946ZM1.91974 6.72109H15.4964V9.57687H1.91974V6.72109ZM25 16.7163V19.5721H22.2847V16.7163H25ZM15.4964 6.72109C18.0169 6.72109 20.4342 7.77415 22.2164 9.64862C23.9987 11.5231 25 14.0654 25 16.7163H22.2847C22.2847 14.8228 21.5695 13.0069 20.2964 11.668C19.0234 10.3291 17.2967 9.57687 15.4964 9.57687V6.72109Z" fill="black"/>
</svg>